<svg xmlns="http://www.w3.org/2000/svg" width="87" height="32" viewBox="0 0 87 32">
    <defs>
        <linearGradient id="a" x1="91.488%" x2="-38.352%" y1="4.948%" y2="71.907%">
            <stop offset="0%" stop-color="#00A0FF"/>
            <stop offset="1%" stop-color="#00A1FF"/>
            <stop offset="26%" stop-color="#00BEFF"/>
            <stop offset="51%" stop-color="#00D2FF"/>
            <stop offset="76%" stop-color="#00DFFF"/>
            <stop offset="100%" stop-color="#00E3FF"/>
        </linearGradient>
        <linearGradient id="b" x1="107.685%" x2="-130.64%" y1="50%" y2="50%">
            <stop offset="0%" stop-color="#FFE000"/>
            <stop offset="41%" stop-color="#FFBD00"/>
            <stop offset="78%" stop-color="#FFA500"/>
            <stop offset="100%" stop-color="#FF9C00"/>
        </linearGradient>
        <linearGradient id="c" x1="86.219%" x2="-50.15%" y1="17.877%" y2="194.703%">
            <stop offset="0%" stop-color="#FF3A44"/>
            <stop offset="100%" stop-color="#C31162"/>
        </linearGradient>
        <linearGradient id="d" x1="-18.754%" x2="42.121%" y1="-54.052%" y2="24.917%">
            <stop offset="0%" stop-color="#32A071"/>
            <stop offset="7%" stop-color="#2DA771"/>
            <stop offset="48%" stop-color="#15CF74"/>
            <stop offset="80%" stop-color="#06E775"/>
            <stop offset="100%" stop-color="#00F076"/>
        </linearGradient>
    </defs>
    <g fill="none" fill-rule="evenodd">
        <rect width="86" height="30.865" x=".5" y=".568" stroke="#FFF" rx="4"/>
        <g fill-rule="nonzero">
            <path fill="#FFF" d="M43.936 16.752c-1.372.007-2.48 1.155-2.475 2.565.004 1.411 1.118 2.552 2.49 2.55 1.372-.003 2.483-1.147 2.483-2.558a2.559 2.559 0 0 0-.722-1.823 2.416 2.416 0 0 0-1.776-.734zm0 4.11a1.504 1.504 0 0 1-1.468-.88 1.586 1.586 0 0 1 .257-1.726 1.48 1.48 0 0 1 1.656-.388c.577.232.957.804.959 1.441.019.4-.12.789-.384 1.081a1.422 1.422 0 0 1-1.02.472zm-5.447-4.11c-1.373.003-2.483 1.15-2.481 2.561.002 1.412 1.116 2.555 2.488 2.554 1.373-.001 2.485-1.146 2.485-2.558a2.559 2.559 0 0 0-.722-1.823 2.416 2.416 0 0 0-1.776-.734h.006zm0 4.11a1.503 1.503 0 0 1-1.472-.875 1.586 1.586 0 0 1 .253-1.728 1.48 1.48 0 0 1 1.656-.391c.578.232.96.803.96 1.441.02.4-.118.789-.383 1.081a1.422 1.422 0 0 1-1.02.472h.006zM32 17.54v1.083h2.528a2.3 2.3 0 0 1-.585 1.366 2.549 2.549 0 0 1-1.949.795c-1.55 0-2.808-1.294-2.808-2.889 0-1.595 1.257-2.888 2.808-2.888.713-.012 1.4.267 1.914.776l.743-.764A3.63 3.63 0 0 0 32 13.894c-1.417-.057-2.75.688-3.475 1.941a4.075 4.075 0 0 0 0 4.066c.725 1.253 2.058 1.998 3.474 1.942a3.46 3.46 0 0 0 2.697-1.114 3.67 3.67 0 0 0 .913-2.539 3.63 3.63 0 0 0-.058-.68L32 17.54zm26.51.843c-.313-.945-1.16-1.594-2.13-1.63a2.31 2.31 0 0 0-1.709.756 2.448 2.448 0 0 0-.631 1.8c-.015.68.24 1.336.706 1.819a2.4 2.4 0 0 0 1.763.739c.831.004 1.609-.42 2.07-1.132l-.847-.601a1.414 1.414 0 0 1-1.223.71 1.261 1.261 0 0 1-1.206-.776l3.33-1.414-.123-.271zm-3.394.854c-.024-.376.1-.746.345-1.027.244-.28.588-.448.954-.465a.96.96 0 0 1 .925.541l-2.224.951zm-2.703 2.48h1.094v-7.522h-1.094v7.521zm-1.79-4.393h-.041a1.734 1.734 0 0 0-1.31-.602c-1.329.066-2.372 1.193-2.372 2.56 0 1.368 1.043 2.494 2.371 2.56.502.01.982-.211 1.311-.601h.035v.367c0 .98-.509 1.504-1.328 1.504a1.378 1.378 0 0 1-1.252-.908l-.954.409a2.37 2.37 0 0 0 2.206 1.51c1.281 0 2.34-.776 2.34-2.665v-4.555h-1.006v.42zm-1.252 3.538c-.782-.071-1.382-.745-1.382-1.553 0-.807.6-1.481 1.382-1.552.378.02.732.196.982.488.25.293.375.676.346 1.064.032.39-.092.777-.344 1.07-.252.293-.61.468-.99.483h.006zm14.264-6.667H61.02v7.521h1.094v-2.852h1.527a2.259 2.259 0 0 0 2.106-1.116 2.398 2.398 0 0 0 0-2.437 2.259 2.259 0 0 0-2.106-1.116h-.006zm0 3.61h-1.527v-2.563h1.55c.693 0 1.255.578 1.255 1.29 0 .713-.562 1.291-1.255 1.291l-.023-.018zm6.746-1.083a2.039 2.039 0 0 0-1.949 1.15l.972.414a1.03 1.03 0 0 1 .994-.553c.28-.034.563.05.783.232.22.182.36.448.387.737v.078a2.363 2.363 0 0 0-1.14-.289c-1.048 0-2.107.602-2.107 1.69.021.47.226.91.567 1.222.342.312.792.468 1.247.434.561.041 1.1-.236 1.404-.722h.035v.601h1.053v-2.894c0-1.318-.97-2.082-2.217-2.082l-.03-.018zm-.135 4.122c-.357 0-.854-.187-.854-.638 0-.602.62-.8 1.17-.8a1.9 1.9 0 0 1 .995.252c-.076.674-.623 1.187-1.282 1.204l-.029-.018zm6.22-3.941l-1.253 3.26h-.035l-1.299-3.26h-1.17l1.949 4.56-1.112 2.534h1.14l2.996-7.094h-1.217zm-9.836 4.813h1.094v-7.521H66.63v7.521zM31.813 9.826c.02.446-.139.881-.439 1.204a1.679 1.679 0 0 1-1.287.535 1.844 1.844 0 0 1-1.69-1.174 1.935 1.935 0 0 1 .397-2.057 1.73 1.73 0 0 1 1.293-.541c.247-.001.492.05.72.15.211.088.4.226.55.403l-.31.32a1.156 1.156 0 0 0-.96-.428 1.34 1.34 0 0 0-.98.424 1.418 1.418 0 0 0-.383 1.02c-.008.574.32 1.096.832 1.323a1.352 1.352 0 0 0 1.508-.282c.18-.2.284-.461.293-.734h-1.27v-.433h1.703c.015.09.023.18.023.27zm2.68-1.504h-1.58v1.143h1.44V9.9h-1.44v1.143h1.58v.445h-2.048v-3.61h2.048v.445zm1.919 3.165h-.45V8.322h-.984v-.445h2.44v.445h-1.006v3.165zm2.726 0v-3.61h.45v3.61h-.45zm2.451 0h-.45V8.322h-.983v-.445h2.41v.445h-.977v3.165zm5.547-.47a1.79 1.79 0 0 1-2.574 0 1.99 1.99 0 0 1 0-2.677c.34-.353.803-.55 1.287-.55.483 0 .946.197 1.287.55.693.75.693 1.928 0 2.678zm-2.24-.3c.526.54 1.38.54 1.906 0a1.573 1.573 0 0 0 0-2.07 1.325 1.325 0 0 0-1.907 0 1.573 1.573 0 0 0 0 2.07zm3.393.77v-3.61h.55l1.708 2.81v-2.81h.45v3.61h-.468l-1.784-2.942v2.942h-.456z"/>
            <path fill="url(#a)" d="M.842.325C.652.56.556.862.573 1.167v13.31c-.017.306.079.607.27.843l.04.042 7.25-7.45v-.174L.882.283l-.04.042z" transform="translate(9.335 7.877)"/>
            <path fill="url(#b)" d="M10.531 10.398L8.132 7.912v-.174l2.4-2.491.052.03 2.873 1.679c.819.475.819 1.257 0 1.739l-2.861 1.672-.065.03z" transform="translate(9.335 7.877)"/>
            <path fill="url(#c)" d="M10.601 10.361L8.132 7.822.842 15.32a.934.934 0 0 0 1.217.036l8.548-4.995" transform="translate(9.335 7.877)"/>
            <path fill="url(#d)" d="M10.601 5.283L2.054.289A.934.934 0 0 0 .837.325l7.295 7.497 2.47-2.539z" transform="translate(9.335 7.877)"/>
            <path fill="#000" d="M19.866 18.184l-8.478 4.964a.955.955 0 0 1-1.17 0l-.04.042.04.043a.95.95 0 0 0 1.17 0l8.548-4.995-.07-.054z" opacity=".2"/>
            <path fill="#000" d="M10.177 23.112a1.226 1.226 0 0 1-.269-.842v.09c-.018.306.078.607.27.842l.04-.042-.04-.048zm12.614-6.63l-2.925 1.702.053.054 2.872-1.672c.332-.16.555-.491.585-.867-.066.34-.282.629-.585.782z" opacity=".12"/>
            <path fill="#FFF" d="M11.388 8.25l11.403 6.667c.303.153.519.442.585.782a1.053 1.053 0 0 0-.585-.866L11.388 8.166c-.819-.476-1.486-.078-1.486.884v.09c.018-.968.673-1.365 1.486-.89z" opacity=".25"/>
        </g>
    </g>
</svg>
