<svg xmlns="http://www.w3.org/2000/svg" width="87" height="32" viewBox="0 0 87 32">
    <g fill="none" fill-rule="evenodd">
        <rect width="86" height="30.865" x=".5" y=".568" stroke="#FFF" rx="4"/>
        <g fill="#FFF" fill-rule="nonzero">
            <path d="M33.106 19.995h-2.77l-.664 2.02h-1.173l2.623-7.472h1.218l2.623 7.472H33.77l-.664-2.02zm-2.483-.932h2.196l-1.083-3.277h-.03l-1.083 3.277zm10.005.228c0 1.693-.88 2.78-2.21 2.78a1.786 1.786 0 0 1-1.667-.952h-.025v2.698h-1.087v-7.25h1.052v.906h.02a1.868 1.868 0 0 1 1.687-.963c1.344 0 2.23 1.093 2.23 2.781zm-1.117 0c0-1.103-.554-1.828-1.4-1.828-.83 0-1.39.74-1.39 1.828 0 1.098.56 1.833 1.39 1.833.846 0 1.4-.72 1.4-1.833zm6.948 0c0 1.693-.881 2.78-2.211 2.78a1.786 1.786 0 0 1-1.667-.952h-.025v2.698H41.47v-7.25h1.052v.906h.02a1.868 1.868 0 0 1 1.687-.963c1.344 0 2.23 1.093 2.23 2.781zm-1.118 0c0-1.103-.554-1.828-1.4-1.828-.83 0-1.39.74-1.39 1.828 0 1.098.56 1.833 1.39 1.833.846 0 1.4-.72 1.4-1.833zm4.97.642c.081.74.781 1.227 1.738 1.227.916 0 1.575-.486 1.575-1.154 0-.58-.397-.928-1.339-1.166l-.941-.233c-1.334-.331-1.954-.973-1.954-2.014 0-1.29 1.093-2.175 2.644-2.175 1.535 0 2.587.886 2.623 2.175h-1.098c-.065-.746-.665-1.196-1.54-1.196-.877 0-1.476.455-1.476 1.118 0 .529.383.84 1.32 1.077l.8.203c1.49.362 2.11.978 2.11 2.07 0 1.399-1.083 2.274-2.805 2.274-1.611 0-2.699-.855-2.77-2.206h1.114zm6.808-4.655v1.289h1.008v.886h-1.008v3.003c0 .466.202.684.645.684.12-.002.239-.011.358-.026v.88c-.2.038-.402.056-.604.052-1.073 0-1.491-.414-1.491-1.47v-3.123h-.77v-.886h.77v-1.29h1.092zm1.591 4.013c0-1.714.982-2.79 2.512-2.79 1.536 0 2.513 1.076 2.513 2.79 0 1.719-.972 2.791-2.513 2.791-1.54 0-2.512-1.072-2.512-2.79zm3.917 0c0-1.176-.524-1.87-1.405-1.87-.88 0-1.404.7-1.404 1.87 0 1.18.523 1.87 1.404 1.87.881 0 1.405-.69 1.405-1.87zm2.005-2.724h1.037v.927h.025a1.269 1.269 0 0 1 1.274-.984c.125 0 .25.014.372.042v1.046a1.48 1.48 0 0 0-.488-.068 1.08 1.08 0 0 0-.847.359 1.147 1.147 0 0 0-.286.894v3.232h-1.087v-5.448zm7.722 3.848c-.147.989-1.083 1.667-2.281 1.667-1.541 0-2.498-1.061-2.498-2.765 0-1.709.962-2.817 2.452-2.817 1.465 0 2.387 1.035 2.387 2.687v.383h-3.741v.068c-.035.405.101.807.374 1.102a1.36 1.36 0 0 0 1.05.44c.528.052 1.026-.26 1.224-.765h1.033zm-3.676-1.626h2.648c.02-.365-.109-.721-.356-.983a1.256 1.256 0 0 0-.943-.4 1.322 1.322 0 0 0-.955.402 1.4 1.4 0 0 0-.394.98zM30.487 8.918c.462-.034.914.147 1.232.493.318.345.469.82.41 1.291 0 1.147-.602 1.807-1.642 1.807h-1.26v-3.59h1.26zm-.719 3.083h.659c.33.02.65-.113.874-.364a1.15 1.15 0 0 0 .277-.927 1.153 1.153 0 0 0-.281-.921 1.085 1.085 0 0 0-.87-.363h-.659V12zm2.974-.848a1.296 1.296 0 0 1 .585-1.213 1.219 1.219 0 0 1 1.316 0c.403.257.63.727.584 1.213.046.486-.18.957-.584 1.215a1.219 1.219 0 0 1-1.317 0 1.296 1.296 0 0 1-.584-1.215zm1.95 0c0-.587-.256-.93-.706-.93-.452 0-.707.343-.707.93 0 .592.255.933.707.933.45 0 .706-.344.706-.933zm3.838 1.356h-.54l-.544-1.996h-.04l-.543 1.996h-.534l-.727-2.71h.528l.472 2.068h.039l.541-2.068h.5l.54 2.068h.042l.47-2.068h.52l-.724 2.71zm1.334-2.71h.5v.43h.04a.786.786 0 0 1 .786-.482c.26-.02.514.082.691.278a.898.898 0 0 1 .22.73v1.754h-.52v-1.62c0-.435-.183-.652-.568-.652a.596.596 0 0 0-.468.195.633.633 0 0 0-.16.492v1.585h-.52v-2.71zm3.066-1.057h.52v3.767h-.52V8.742zm1.243 2.41a1.296 1.296 0 0 1 .584-1.212 1.219 1.219 0 0 1 1.317 0c.403.257.63.727.584 1.213.046.486-.18.957-.584 1.215a1.22 1.22 0 0 1-1.317 0 1.296 1.296 0 0 1-.584-1.215zm1.95 0c0-.586-.257-.93-.707-.93-.452 0-.706.344-.706.93 0 .593.254.934.706.934.45 0 .707-.344.707-.933zm1.082.59c0-.487.353-.768.98-.808l.714-.043v-.234c0-.286-.184-.447-.54-.447-.29 0-.49.11-.549.3h-.503c.053-.465.479-.763 1.076-.763.66 0 1.033.338 1.033.91v1.852h-.5v-.381h-.041a.88.88 0 0 1-.792.425.782.782 0 0 1-.614-.205.829.829 0 0 1-.264-.606zm1.694-.231v-.227l-.644.043c-.362.025-.527.152-.527.39 0 .244.206.386.489.386a.61.61 0 0 0 .463-.147.645.645 0 0 0 .219-.445zm1.2-.358c0-.856.429-1.399 1.094-1.399.336-.016.651.17.808.476h.04V8.742h.519v3.767h-.498v-.428h-.041a.91.91 0 0 1-.828.472c-.67 0-1.093-.542-1.093-1.4zm.538 0c0 .575.263.92.704.92.438 0 .709-.35.709-.918 0-.565-.274-.92-.71-.92-.437 0-.703.348-.703.918zm4.074 0a1.296 1.296 0 0 1 .585-1.213 1.219 1.219 0 0 1 1.316 0c.403.257.63.727.584 1.213.046.486-.18.957-.584 1.215a1.219 1.219 0 0 1-1.317 0 1.296 1.296 0 0 1-.584-1.215zm1.95 0c0-.587-.256-.93-.707-.93-.451 0-.706.343-.706.93 0 .592.255.933.706.933.45 0 .707-.344.707-.933zm1.233-1.354h.5v.43h.039a.786.786 0 0 1 .786-.482c.26-.02.514.082.692.278a.898.898 0 0 1 .22.73v1.754h-.52v-1.62c0-.435-.184-.652-.568-.652a.596.596 0 0 0-.468.195.633.633 0 0 0-.161.492v1.585h-.52v-2.71zm5.175-.674v.687h.57v.45h-.57v1.393c0 .284.114.408.373.408.066 0 .132-.004.198-.012v.445a1.66 1.66 0 0 1-.283.028c-.578 0-.809-.21-.809-.732v-1.53h-.418v-.45h.418v-.687h.521zm1.281-.383h.515v1.493h.041a.808.808 0 0 1 .804-.486c.258-.014.509.09.684.286a.91.91 0 0 1 .223.724v1.75h-.52V10.89c0-.432-.196-.652-.564-.652a.606.606 0 0 0-.487.185.644.644 0 0 0-.176.502v1.583h-.52V8.742zm5.299 3.035a1.07 1.07 0 0 1-1.142.784c-.351.01-.689-.14-.923-.41a1.254 1.254 0 0 1-.294-.988c-.047-.36.06-.722.293-.993a1.2 1.2 0 0 1 .922-.423c.733 0 1.175.515 1.175 1.366v.186h-1.86v.03c-.017.201.05.4.184.548.133.148.321.23.517.229a.627.627 0 0 0 .627-.329h.5zm-1.83-.873h1.331a.665.665 0 0 0-.173-.499.627.627 0 0 0-.475-.203.664.664 0 0 0-.485.203.703.703 0 0 0-.197.499zM22.848 15.88a2.996 2.996 0 0 1 1.378-2.498 2.943 2.943 0 0 0-2.335-1.299c-.982-.106-1.935.605-2.435.605-.51 0-1.281-.594-2.111-.576a3.1 3.1 0 0 0-2.617 1.64c-1.132 2.016-.288 4.977.796 6.605.542.798 1.176 1.689 2.005 1.657.812-.035 1.115-.532 2.095-.532.97 0 1.254.532 2.1.512.871-.015 1.42-.801 1.943-1.606.39-.568.69-1.196.889-1.86-1.035-.45-1.707-1.493-1.708-2.648zm-1.598-4.868c.474-.586.708-1.34.652-2.1a2.875 2.875 0 0 0-1.877.999 2.84 2.84 0 0 0-.67 2.022 2.373 2.373 0 0 0 1.895-.92z"/>
        </g>
    </g>
</svg>
