<?xml version="1.0" encoding="utf-8"?>
<!-- Generator: Adobe Illustrator 23.0.1, SVG Export Plug-In . SVG Version: 6.00 Build 0)  -->
<svg version="1.1" id="Layer_1" xmlns="http://www.w3.org/2000/svg" xmlns:xlink="http://www.w3.org/1999/xlink" x="0px" y="0px"
	 viewBox="0 0 206.9 65.1" style="enable-background:new 0 0 206.9 65.1;" xml:space="preserve">
<style type="text/css">
	.st0{fill:#FFFFFF;}
</style>
<g>
	<path class="st0" d="M134,0c-2.5,0-4.5,2-4.5,4.5V19c-4.7-4.1-10.7-6.4-17-6.4c-8.6,0-16.7,4.3-21.5,11.4c-0.3-0.5-0.6-0.9-1-1.3
		l-0.1-0.2c-0.3-0.4-0.6-0.8-0.9-1.1h-0.2c-0.7-0.8-1.5-1.5-2.2-2.2L86.4,19c-0.3-0.3-0.7-0.6-1.1-0.9L85.2,18
		c-0.8-0.6-1.7-1.2-2.6-1.7l-0.3-0.2c-0.4-0.2-0.7-0.4-1.1-0.6l-0.3-0.1c-0.9-0.5-1.9-0.9-2.8-1.2l-0.4-0.1
		c-0.4-0.1-0.8-0.2-1.1-0.4l-0.4-0.1c-0.5-0.1-1-0.3-1.5-0.4s-1-0.2-1.5-0.3l-0.5-0.1c-0.4,0-0.8-0.1-1.2-0.1c-0.2,0-0.3,0-0.5,0
		c-1-0.1-2-0.1-2.9,0h-0.5c-0.3,0-0.6,0-0.8,0.1l-0.7,0.1c-0.2,0-0.4,0.1-0.6,0.1c-0.1,0-0.2,0-0.4,0.1l-0.4,0.1
		c-0.2,0-0.3,0.1-0.5,0.1c-0.2,0-0.4,0.1-0.6,0.1h-0.4c-0.1,0-0.2,0.1-0.4,0.1c-0.2,0.1-0.4,0.1-0.6,0.2l-0.3,0.1
		c-0.1,0-0.2,0.1-0.3,0.1c-0.2,0.1-0.4,0.1-0.7,0.2h-0.2c-0.1,0-0.2,0.1-0.3,0.1c-0.2,0.1-0.4,0.2-0.7,0.3l-0.5,0.2
		c-0.3,0.1-0.5,0.2-0.8,0.4l-0.3,0.2c-0.3,0.1-0.5,0.3-0.8,0.4L57,15.8c-0.3,0.2-0.6,0.3-0.9,0.5l-0.2,0.1c-0.3,0.2-0.6,0.4-0.9,0.6
		l-0.1,0.1c-0.3,0.2-0.6,0.4-0.9,0.6l-0.1,0.1c-0.3,0.2-0.6,0.5-1,0.8c-0.3,0.3-0.6,0.5-0.9,0.8c-5.4,4.9-8.5,11.9-8.6,19.2v0.1v0.2
		c0,0.8-0.1,1.7-0.2,2.6c-0.1,0.2-0.1,0.4-0.1,0.6c-0.4,1.8-1,3.6-1.9,5.2l-0.3,0.1c-0.2,0.4-0.5,0.8-0.8,1.2
		c-0.1,0.2-0.2,0.3-0.4,0.5c-0.2,0.3-0.4,0.6-0.7,0.8c-0.2,0.2-0.4,0.4-0.5,0.6c-0.2,0.2-0.4,0.4-0.7,0.6l-0.1,0.2
		c-0.2,0.1-0.3,0.3-0.5,0.4c-0.3,0.3-0.6,0.5-1,0.7c-0.2,0.2-0.5,0.4-0.8,0.5c-0.4,0.3-0.8,0.5-1.3,0.7c-0.2,0.1-0.3,0.2-0.5,0.2
		l-0.3,0.1c-0.3,0.1-0.5,0.3-0.8,0.4c-0.2,0.1-0.4,0.1-0.5,0.2l-0.2,0.1c-0.3,0.1-0.6,0.2-0.9,0.3c-0.2,0.1-0.4,0.1-0.6,0.2h-0.2
		c-0.1,0.2-0.4,0.3-0.7,0.3c-0.2,0-0.5,0.1-0.7,0.1h-0.2c-0.3,0-0.5,0.1-0.8,0.1c-0.2,0-0.5,0-0.7,0h-0.3c-0.2,0-0.5,0-0.7,0
		s-0.3,0-0.5,0h-0.4c-0.3,0-0.6,0-0.9-0.1l-0.4-0.1c-2.1-0.3-4.1-0.9-5.9-1.9c-0.3-0.2-0.7-0.4-1-0.6l-0.2-0.1
		c-0.1,0-0.1-0.1-0.2-0.1c-1.8-1.2-3.3-2.7-4.5-4.5L11.9,48c-0.2-0.3-0.4-0.7-0.6-1l-0.1-0.2c-0.1-0.1-0.1-0.2-0.2-0.3
		c-0.2-0.3-0.3-0.6-0.4-0.9h0.1c-0.1-0.2-0.2-0.3-0.2-0.5c-0.1-0.3-0.2-0.6-0.3-0.9L10.1,44c-0.1-0.2-0.1-0.3-0.2-0.5
		c-0.1-0.3-0.2-0.7-0.3-1v-0.1c0-0.2-0.1-0.3-0.1-0.5c-0.1-0.3-0.1-0.7-0.2-1.1v-0.2c0-0.1,0-0.3-0.1-0.4c0-0.4,0-0.7-0.1-1.1
		c-0.2-6.5,3.4-12.7,9.2-15.6c4.7-2.4,10.2-2.5,15.1-0.2c0.2,0.1,0.3,0.1,0.5,0.2H34c0.5,0.2,1.1,0.3,1.7,0.2h0.1h0.1
		c0.2,0,0.5-0.1,0.7-0.1h0.2c0.3-0.1,0.6-0.2,0.9-0.3c2.2-1.1,3.1-3.9,1.9-6.1c-0.1-0.2-0.2-0.4-0.4-0.6c-0.4-0.5-0.9-0.9-1.4-1.2
		h-0.1c-7.4-3.7-16.2-3.6-23.5,0.2c-8.5,4.4-13.9,13.2-14,23v0.1v0.4c0,0.3,0,0.5,0,0.8v0.5c0,0.3,0,0.6,0.1,0.8v0.4
		c0,0.3,0.1,0.6,0.1,0.9l0.1,0.4c0,0.3,0.1,0.6,0.2,1l0.1,0.3c0.1,0.3,0.1,0.6,0.2,0.9l0.1,0.3c0.1,0.3,0.2,0.6,0.2,0.8l0.1,0.4
		c0.1,0.3,0.2,0.5,0.3,0.8l0.1,0.4c0.1,0.3,0.2,0.5,0.3,0.8L2.2,49c0.1,0.3,0.2,0.6,0.4,0.8l0.2,0.5c0,0.1,0.1,0.2,0.1,0.3
		s0.1,0.2,0.2,0.3l0.2,0.3c2.2,4,5.4,7.4,9.3,9.8c0.3,0.2,0.6,0.4,0.9,0.5l0.1,0.1c3.3,1.8,6.9,2.9,10.7,3.2c0.4,0,0.7,0,1.1,0.1
		h0.4c0.2,0,0.4,0,0.6,0H27c0.3,0,0.5,0,0.8,0c0.2,0,0.4,0,0.5,0c0.2,0,0.5,0,0.7-0.1c0.2,0,0.4,0,0.6-0.1c0.2,0,0.5-0.1,0.7-0.1
		s0.4-0.1,0.6-0.1c0.2,0,0.5-0.1,0.7-0.1s0.4-0.1,0.5-0.1c0.2-0.1,0.5-0.1,0.7-0.2l0.5-0.1c0.2-0.1,0.5-0.1,0.7-0.2l0.5-0.2
		c0.2-0.1,0.5-0.2,0.7-0.3l0.5-0.2c0.2-0.1,0.4-0.2,0.7-0.3c0.2-0.1,0.4-0.2,0.6-0.2c0.2-0.1,0.4-0.2,0.6-0.3l0.6-0.3
		c0.4-0.2,0.8-0.4,1.2-0.7c0.2-0.1,0.4-0.2,0.6-0.4l0.1-0.1c0.2-0.2,0.5-0.3,0.7-0.5s0.5-0.3,0.7-0.5c0.1-0.1,0.3-0.2,0.4-0.3
		l0.1-0.1c0.4-0.3,0.8-0.7,1.3-1.1c0.1-0.1,0.3-0.2,0.4-0.3c0.2-0.2,0.4-0.4,0.6-0.6c0.2-0.2,0.4-0.4,0.6-0.7
		c0.2-0.2,0.3-0.3,0.5-0.5c0.3-0.3,0.6-0.7,0.9-1.1l0.2-0.2c0.4-0.5,0.7-1,1.1-1.5c4.8,7.1,12.9,11.4,21.5,11.4s16.7-4.3,21.5-11.4
		c0.3,0.5,0.6,0.9,1,1.3l0.1,0.1c0.3,0.4,0.6,0.8,0.9,1.1l0.1,0.1c0.7,0.8,1.5,1.5,2.3,2.2l0.2,0.1c0.3,0.3,0.7,0.6,1.1,0.9l0.4,0.2
		c0.8,0.6,1.7,1.2,2.6,1.7l0.3,0.2c0.4,0.2,0.7,0.4,1.1,0.6L101,62c0.9,0.5,1.9,0.9,2.9,1.2l0.4,0.1c0.4,0.1,0.8,0.2,1.2,0.4
		l0.3,0.1c0.5,0.1,1,0.3,1.5,0.4h0.2c0.5,0.1,0.9,0.2,1.4,0.2l0.5,0.1c0.4,0,0.8,0.1,1.2,0.1h0.5c0.5,0,1.1,0.1,1.6,0.1
		c14.4,0,26-11.7,26-26V4.5C138.5,2,136.5,0,134,0z M129.5,38.8c0,6.2-3.5,11.9-9,14.9c-0.5,0.3-1,0.5-1.5,0.7h-0.1
		c-0.5,0.2-1,0.4-1.5,0.5c-0.1,0-0.1,0-0.2,0c-0.4,0.1-0.9,0.3-1.3,0.3h-0.1c-1.1,0.2-2.3,0.3-3.4,0.3h-0.1c-0.1,0-0.1,0-0.2,0
		c-0.5,0-1,0-1.4-0.1c-0.1,0-0.2,0-0.2,0c-0.1,0-0.2,0-0.3,0h-0.1c-0.4,0-0.7-0.1-1.1-0.2c-0.1,0-0.2,0-0.2-0.1
		c-0.1,0-0.2,0-0.3-0.1h-0.2c-0.3-0.1-0.6-0.1-0.9-0.2c-0.1,0-0.2-0.1-0.3-0.1l-0.5-0.2c-0.2-0.1-0.5-0.2-0.7-0.3s-0.4-0.2-0.6-0.3
		l-0.5-0.3c-0.1-0.1-0.2-0.1-0.3-0.2c-0.3-0.2-0.6-0.3-0.9-0.5l-0.1-0.1c-0.1,0-0.2-0.1-0.2-0.1c-0.1,0-0.1-0.1-0.2-0.1
		c-0.4-0.2-0.7-0.5-1.1-0.8l-0.3-0.2c-0.4-0.3-0.8-0.7-1.2-1.1c-3.2-3.2-5-7.5-5-12l0,0v-0.2c0-9.4,7.7-17,17-17c9.4,0,17,7.6,17,17
		l0,0L129.5,38.8L129.5,38.8z M86.4,38.8c0,9.4-7.7,17-17,17c-9.4,0-17-7.6-17-17l0,0v-0.1c0-4.5,1.8-8.7,5-11.9l0.1-0.1
		c0.4-0.4,0.8-0.7,1.2-1.1v-0.2c0.4-0.3,0.7-0.6,1.2-0.9c0.1,0,0.1-0.1,0.2-0.1c0.4-0.2,0.8-0.5,1.1-0.7c0.1,0,0.1-0.1,0.2-0.1
		l0.3-0.1c0.3-0.2,0.7-0.4,1.1-0.5c0.1-0.1,0.2-0.1,0.4-0.1l0.5-0.2c0.2-0.1,0.4-0.2,0.7-0.2c0.2-0.1,0.4-0.1,0.5-0.1l0.6-0.2
		c0.2,0,0.3-0.1,0.5-0.1s0.4-0.1,0.6-0.1l0.6-0.1c0.2,0,0.3-0.1,0.5-0.1c1.1-0.1,2.3-0.1,3.5,0c0.1,0,0.3,0,0.4,0.1l0.6,0.1
		c0.2,0,0.4,0.1,0.7,0.1c0.1,0,0.3,0.1,0.4,0.1l0.6,0.1c0.2,0.1,0.4,0.1,0.6,0.2s0.3,0.1,0.5,0.2l0.6,0.2c0.2,0.1,0.3,0.1,0.5,0.2
		c0.3,0.1,0.5,0.2,0.8,0.4l0.4,0.2c0.1,0,0.2,0.1,0.3,0.1c0.4,0.2,0.7,0.4,1,0.6l0.2,0.1c0.1,0,0.1,0.1,0.2,0.1
		c0.4,0.2,0.7,0.5,1,0.8l0.3,0.2c0.4,0.3,0.7,0.6,1.1,1l0.1,0.1c0.3,0.3,0.7,0.7,1.1,1.2C85.1,30.9,86.5,34.7,86.4,38.8L86.4,38.8
		L86.4,38.8z M54.4,18.6L54.4,18.6L54.4,18.6L54.4,18.6z M93.8,55.3L93.8,55.3L93.8,55.3L93.8,55.3z"/>
</g>
<g>
	<path class="st0" d="M157.1,62v2.7h-11.4V47.6h3.1V62H157.1z"/>
	<path class="st0" d="M160.7,64.7h-3.2l7-17.1h3.3l7,17.1h-3.3l-1.3-3.3h-8L160.7,64.7z M166,51.2L166,51.2l-3,7.5h6L166,51.2z"/>
	<path class="st0" d="M184.3,64.7h-7.5V47.6h7.3c2,0,3.5,0.4,4.5,1.3c1,0.9,1.5,2,1.5,3.4c0,0.9-0.2,1.7-0.7,2.3
		c-0.5,0.7-1.1,1.1-1.9,1.5c0.9,0.3,1.6,0.8,2.1,1.5s0.8,1.5,0.8,2.4c0,1.5-0.5,2.7-1.5,3.5C187.7,64.3,186.2,64.7,184.3,64.7z
		 M184.1,50.3h-4.3v4.5h4.3c1.9,0,2.8-0.7,2.8-2.2c0-0.7-0.2-1.3-0.7-1.7C185.7,50.5,185,50.3,184.1,50.3z M184.3,57.4h-4.5v4.7h4.5
		c2,0,2.9-0.8,2.9-2.3c0-0.7-0.3-1.3-0.8-1.7C185.9,57.6,185.2,57.4,184.3,57.4z"/>
	<path class="st0" d="M199.5,62.4c1.2,0,2.2-0.2,2.9-0.6s1-1,1-1.8c0-0.6-0.2-1-0.6-1.4c-0.4-0.4-0.9-0.6-1.5-0.8s-1.2-0.3-1.9-0.5
		s-1.4-0.4-2.1-0.5c-0.7-0.2-1.4-0.4-2-0.8c-0.6-0.3-1.1-0.8-1.4-1.4c-0.4-0.6-0.6-1.4-0.6-2.4c0-1.4,0.6-2.6,1.8-3.6
		s2.7-1.5,4.7-1.5s3.6,0.5,4.8,1.6c1.1,1.1,1.7,2.4,1.8,4.1h-3c0-0.9-0.3-1.6-0.9-2.2c-0.6-0.6-1.5-0.9-2.6-0.9s-1.9,0.2-2.5,0.6
		c-0.6,0.4-0.9,1-0.9,1.7c0,0.5,0.2,0.9,0.6,1.2s0.9,0.6,1.5,0.7c0.6,0.2,1.3,0.3,2,0.5s1.4,0.4,2.1,0.5c0.7,0.2,1.4,0.5,2,0.8
		s1.1,0.9,1.5,1.5c0.4,0.7,0.6,1.5,0.6,2.4c0,1.6-0.7,2.8-1.9,3.7c-1.3,0.9-3,1.4-5.2,1.4s-3.9-0.6-5-1.7s-1.7-2.5-1.7-4h3
		c0.1,0.9,0.4,1.7,1.1,2.2C197.4,62.2,198.3,62.4,199.5,62.4z"/>
</g>
</svg>
