<svg xmlns="http://www.w3.org/2000/svg" xmlns:xlink="http://www.w3.org/1999/xlink" width="360" height="563" viewBox="0 0 360 563">
    <defs>
        <path id="a" d="M0 0h1190v562.072H0z"/>
    </defs>
    <g fill="none" fill-rule="evenodd" transform="translate(-59)">
        <mask id="b" fill="#fff">
            <use xlink:href="#a"/>
        </mask>
        <use fill="#72767D" xlink:href="#a"/>
        <path fill="#A7AAB2" d="M77.323 113.95l32.863-20.457L65.16-17.527l26.974-10.856 43.104 106.281 69.221-43.09-15.928-39.274 5.72-2.303 15.521 38.27 62.442-38.87 3.268 5.21-63.364 39.444 17.044 42.024 162.247-37.316-16.892-106.246 11.614-1.833 24.086 151.493 127.709-31.721-40.658-100.25 26.93-10.838 42.186 104.02 309.961-76.99 7.032 28.095-305.998 76.005L694.763 363.16l97.4-35.316 9.94 27.202-96.448 34.97 137.262 338.446-26.93 10.839L678.346 399.92 2.794 644.868l-9.939-27.202 188.365-68.3-18.068-44.55L78.8 538.767v34.568h-6.2v-77.843H-40.231V645h-6.2V496.17l-148.952 59.953-2.317-5.71 151.27-60.885v-39.135h-47.291l-150.639 60.63-2.316-5.71 151.756-61.081.133.326v-.343h48.356V409h-46.67l-150.639 60.631-2.316-5.71 147.55-59.388V298.94l-92.538 37.246-2.316-5.711 146.93-59.138v-42.664l-112.62 27.972-7.032-28.095L72.6 169.265V119.64l-1.24-1.976.62-.387L24.018-7.194l5.774-2.209L77.323 113.95zm60.261-30.268l6.191 15.265 79.3-18.238-16.27-40.117-69.22 43.09zm-25.052 15.595l-33.733 20.999v47.45l55.865-13.876-22.132-54.573zm33.588 5.451l17.05 42.041 78.763-19.563L225.42 86.49l-79.3 18.238zm85.386-19.638l16.472 40.614 150.786-37.453-6.385-40.16L231.506 85.09zm28.815 435.595l11.765-4.265-7.113-17.538-4.652 21.803zm-18.544 6.724l11.985-56.17-32.074-79.086-33.487 13.478 21.18 52.223-5.725 2.305-21.18-52.223-44.656 17.973 49.215 121.35 54.742-19.85zm-5.082-142.723l51.115 126.032 13.5-4.895-50.228-124.794-16.498-20.388 2.111 24.045zm-16.67 1.493l-2.45-27.896-16.366-40.355-41.76 16.808 26.436 65.184 34.14-13.741zm97.008 113.943l10.709-3.883.042-.799-17.333-11.672 6.582 16.354zm11.776-24.164l5.047-95.941-38.693-2.02v1.25l29.74 73.329-5.74 2.31-30.136-74.305h-.063v-1.467l-17.759 7.148 28.108 69.834 29.496 19.862zm-59.91-95.426l20.065-8.076V244.573l-74.042 29.801 28.753 70.895 22.443 27.734-.188.152 2.97 7.377zm65.901 99.46l13.212 8.897 41.38-15.003-5.36-2.267 37.09-87.046-81.08-4.233-5.242 99.653zm-256 52.124l82.033-33.018-28.747-70.881L78.8 449.665v82.45zm-6.2-81.723H-40.232v38.921H72.6v-38.921zm0-251.286l-112.832 28.026v44.715H72.6v-72.74zm6.2-1.54v73.223l88.796-35.74-21.937-54.09-66.86 16.607zM72.6 361.43v-83.403H-40.232v83.403H72.6zm6.2-.877l72.607-29.224-28.988-71.475-43.62 17.557v83.142zm-6.2 7.055H-40.232v35.215H72.6v-35.215zm0 41.393H-40.232v35.215H72.6V409zm6.2 34.022l101.36-40.797-26.437-65.184L78.8 367.197v75.825zM-46.433 278.026h-.114l-45.762 18.42v106.376h45.876v-35.215h-.62v-6.178h.62v-83.403zm380.613 95.824l7.432-141.273-43.575-43.41-20.908 8.416 17.841 43.993h.192v130.236l39.018 2.038zm6.186.322l83.332 4.351 15.45-36.26-31.364-197.268-103.512 41.663 43.66 43.495h.01l.008.018-.009.01-7.575 143.991zM212.603 268.656l74.53-29.998-15.724-38.772-74.53 29.998 15.724 38.772zm426.014 33.305l-89.66 36.087 26.365 68.421 92.132-33.406-28.837-71.102zm-2.313-5.704l-87.383-215.46-134.14 33.318 36.499 229.57.035.016-.024.056.033.205-.129.02-13.773 32.324 198.882-80.049zM434.01 384.314l-36.986 86.804 172.48-62.539-26.287-68.22-109.207 43.955zM169.904 240.74l-41.76 16.808 28.988 71.474 41.76-16.808-28.988-71.474zm236.892-101.968l-3.468-21.814-144.355 35.856 15.849 39.077 131.974-53.119zm-137.695 55.422l-16.173-39.879-78.763 19.564 20.405 50.313 74.53-29.998z" mask="url(#b)" opacity=".5"/>
        <ellipse cx="262.482" cy="340.022" fill="#000" fill-opacity=".35" rx="12.086" ry="2.162"/>
        <path fill="#FFF" d="M277.667 315.324a15.04 15.04 0 0 1-1.458 6.477c-4.281 10.138-13.727 17.913-13.727 17.913s-9.447-7.775-13.729-17.913h.002a15.04 15.04 0 0 1-1.458-6.477c0-8.362 6.798-15.14 15.185-15.14 8.386 0 15.185 6.778 15.185 15.14zm-15.486 4.029c3.082 0 5.581-2.492 5.581-5.565 0-3.074-2.499-5.566-5.581-5.566-3.083 0-5.582 2.492-5.582 5.566 0 3.073 2.5 5.565 5.582 5.565z"/>
        <text fill="#FFF" fill-opacity=".5" font-family="AppleSDGothicNeo-Medium, Apple SD Gothic Neo" font-size="18" font-weight="400">
            <tspan x="409.879" y="538.776">예술의</tspan> <tspan x="417.664" y="559.776">전당</tspan>
        </text>
        <text fill="#FFF" fill-opacity=".5" font-family="AppleSDGothicNeo-Medium, Apple SD Gothic Neo" font-size="18" font-weight="400" transform="rotate(-20 297.417 526.61)">
            <tspan x="222.618" y="532.109">예술의전당 앞 교차로</tspan>
        </text>
        <text fill="#FFF" fill-opacity=".5" font-family="AppleSDGothicNeo-Medium, Apple SD Gothic Neo" font-size="18" font-weight="400" transform="rotate(-15 152.3 167.328)">
            <tspan x="96.033" y="172.828">서초 3동 사거리</tspan>
        </text>
    </g>
</svg>
