<svg xmlns="http://www.w3.org/2000/svg" xmlns:xlink="http://www.w3.org/1999/xlink" width="102" height="19" viewBox="0 0 102 19">
    <defs>
        <path id="a" d="M.134.23h16.964v16.687H.134z"/>
        <path id="c" d="M.083.23h16.963v16.687H.083z"/>
        <path id="e" d="M1.91.264C.998.264.26 1.117.26 2.17c0 1.052.74 1.906 1.651 1.906.912 0 1.651-.854 1.651-1.906 0-1.053-.739-1.906-1.65-1.906z"/>
        <linearGradient id="f" x1="15.749%" x2="85.642%" y1="15.318%" y2="86.077%">
            <stop offset="0%" stop-color="#FB4F80"/>
            <stop offset="100%" stop-color="#F9022F"/>
        </linearGradient>
    </defs>
    <g fill="none" fill-rule="evenodd">
        <path fill="#FD344F" d="M74.382 7.719L72 17.219h5.168l.232-.926h-4.227l2.138-8.574zM81.19 7.719l-2.59 9.5h1.023l2.577-9.5zM91.23 7.719l-5.677 8.366-1.077-8.366H83.4l1.318 9.5h1.157l6.525-9.5zM94.328 7.719l-2.528 9.5h5.924l.234-.913h-4.926l.92-3.453h4.459l.246-.925h-4.459l.882-3.297h4.874l.246-.912z"/>
        <path fill="#FFF" d="M12.432.594L7.81 13.456h-.02L3.088.594H0v16.625h2.23V4.813h.061l4.523 12.406h1.932L13.29 4.767h.04v12.452H15.6V.594z"/>
        <g transform="translate(18)">
            <mask id="b" fill="#fff">
                <use xlink:href="#a"/>
            </mask>
            <path fill="#FFF" d="M8.616 14.533c1.588 0 3.062-.69 4.105-1.738 1.02-1.07 1.656-2.606 1.656-4.21 0-1.092-.25-2.095-.75-3.008a5.89 5.89 0 0 0-2.108-2.161 5.526 5.526 0 0 0-2.903-.802c-3.197-.067-5.828 2.718-5.76 5.97-.068 3.209 2.563 6.016 5.76 5.949M.814 5.332A7.718 7.718 0 0 1 2.63 2.658c.749-.757 1.656-1.337 2.722-1.76A8.181 8.181 0 0 1 8.639.23a8.72 8.72 0 0 1 4.263 1.091 7.875 7.875 0 0 1 3.062 3.008c.748 1.27 1.134 2.696 1.134 4.233 0 1.18-.227 2.272-.68 3.32-.454 1.047-1.066 1.938-1.815 2.65a8.553 8.553 0 0 1-2.721 1.738 8.841 8.841 0 0 1-3.311.647 8.645 8.645 0 0 1-3.29-.647 8.119 8.119 0 0 1-2.697-1.693A8.312 8.312 0 0 1 .134 8.63a8.11 8.11 0 0 1 .68-3.297" mask="url(#b)"/>
        </g>
        <path fill="#FFF" d="M37.954 15.513c-.976-.913-1.475-2.139-1.475-3.698v-1.716h2.54v1.582c0 .891.272 1.582.817 2.072a2.68 2.68 0 0 0 1.905.758c.793 0 1.45-.245 1.973-.758.522-.512.77-1.158.77-1.938V.475h2.61v11.34c0 1.448-.477 2.673-1.475 3.631-.975.958-2.222 1.448-3.742 1.448-1.633 0-2.948-.445-3.923-1.381"/>
        <g transform="translate(49.98)">
            <mask id="d" fill="#fff">
                <use xlink:href="#c"/>
            </mask>
            <path fill="#FFF" d="M8.564 14.533c1.587 0 3.062-.69 4.106-1.738 1.02-1.07 1.655-2.606 1.655-4.21 0-1.092-.25-2.095-.749-3.008a5.895 5.895 0 0 0-2.109-2.161 5.527 5.527 0 0 0-2.903-.802c-3.198-.067-5.828 2.718-5.76 5.97-.068 3.209 2.562 6.016 5.76 5.949M.763 5.332a7.71 7.71 0 0 1 1.814-2.674C3.326 1.901 4.233 1.321 5.3.898A8.177 8.177 0 0 1 8.587.23 8.72 8.72 0 0 1 12.85 1.32a7.87 7.87 0 0 1 3.06 3.008c.75 1.27 1.135 2.696 1.135 4.233 0 1.18-.226 2.272-.68 3.32-.454 1.047-1.066 1.938-1.814 2.65a8.56 8.56 0 0 1-2.722 1.738 8.841 8.841 0 0 1-3.31.647 8.64 8.64 0 0 1-3.29-.647 8.11 8.11 0 0 1-2.698-1.693c-.748-.735-1.338-1.604-1.792-2.65a8.322 8.322 0 0 1-.657-3.298 8.11 8.11 0 0 1 .68-3.297" mask="url(#d)"/>
        </g>
        <g transform="translate(68.4)">
            <mask id="g" fill="#fff">
                <use xlink:href="#e"/>
            </mask>
            <path fill="url(#f)" d="M1.91.264C.998.264.26 1.117.26 2.17c0 1.052.74 1.906 1.651 1.906.912 0 1.651-.854 1.651-1.906 0-1.053-.739-1.906-1.65-1.906z" mask="url(#g)"/>
        </g>
    </g>
</svg>
