<svg xmlns="http://www.w3.org/2000/svg" xmlns:xlink="http://www.w3.org/1999/xlink" width="1920" height="910" viewBox="0 0 1920 910">
    <defs>
        <path id="a" d="M0 0h1920v910H0z"/>
    </defs>
    <g fill="none" fill-rule="evenodd">
        <mask id="b" fill="#fff">
            <use xlink:href="#a"/>
        </mask>
        <use fill="#72767D" xlink:href="#a"/>
        <path fill="#A7AAB2" d="M124.757 184.485l52.999-33.117-72.624-179.744 43.59-17.61 69.518 172.058 111.624-69.748-25.68-63.555 9.275-3.747 25.018 61.92 100.697-62.92 5.301 8.482L342.282 60.36l27.484 68.024 261.738-60.425-27.24-171.985 18.77-2.973 38.837 245.198 205.99-51.358-65.545-162.226 43.589-17.61 68.02 168.351L1413.908-49.3l11.373 45.615L931.71 119.37l189.273 468.45 157.086-57.172 16.08 44.176-155.544 56.611L1360 1179.389 1316.41 1197 1094.4 647.524 4.552 1044.184l-16.08-44.176 303.883-110.6-29.13-72.1-136.086 54.98v55.948h-10.003V802.207H-64.912v242.055h-10.003V803.307l-240.317 97.09-3.747-9.273 244.064-98.605V729.19h-76.3l-243.038 98.19-3.747-9.274 244.84-98.919.224.554v-.554h78.02v-57.013h-75.299l-243.038 98.19-3.747-9.273 238.063-96.18V484l-149.293 60.316-3.747-9.274 237.062-95.776v-68.922l-181.677 45.296-11.374-45.614 385.101-96.014v-80.314l-2-3.201.98-.613L38.753-11.648l9.338-3.585 76.667 199.718zm97.288-48.996l9.977 24.694 127.877-29.522-26.23-64.92-111.624 69.748zm-40.484 25.296l-54.423 34.006v76.727l90.088-22.461-35.665-88.272zm54.255 8.787l27.474 68 127.01-31.666-26.608-65.855-127.876 29.521zm137.744-31.8l26.541 65.69 243.26-60.65-10.288-64.95-259.513 59.91zm46.47 705.167l18.923-6.887-11.44-28.314-7.482 35.2zm-29.925 10.891l19.316-90.87-51.74-128.058-54.016 21.823 34.16 84.546-9.274 3.747-34.16-84.547-71.996 29.088 79.364 196.425 88.346-32.154zm-8.218-231.108l82.46 204.087 22.068-8.031-81.567-201.892-26.314-32.495 3.353 38.33zm-26.893 2.477l-3.927-44.887-26.488-65.556-67.29 27.186 42.63 105.509 55.075-22.252zm156.815 184.336l16.988-6.183.077-1.46-27.702-18.684 10.637 26.327zm18.714-39.106l8.132-155.177-62.425-3.271v1.986l47.983 118.758-9.274 3.747-48.61-120.307h-.102v-2.374l-28.8 11.636L483.08 738.43l47.442 32zM433.68 616.153l32.547-13.15V395.967l-119.441 48.256 46.808 115.85 35.591 43.952-.305.247 4.8 11.881zm106.517 160.8l21.425 14.452 66.544-24.219-8.552-3.63 59.822-140.926-130.792-6.854-8.447 161.178zm-413.059 84.548l132.338-53.466-46.355-114.73-85.983 34.739V861.5zm-10.003-132.31H-64.912v63.014h182.047v-63.014zm0-406.73L-64.912 367.85v72.275h182.047V322.462zm10.003-2.493v118.444l143.217-57.862-35.345-87.477-107.872 26.895zm-10.003 265.19V450.127H-64.912v135.03h182.047zm10.003-1.422l117.129-47.321-46.73-115.658-70.399 28.442v134.537zm-10.003 11.424H-64.912v57.013h182.047V595.16zm0 67.015H-64.912v57.013h182.047v-57.013zm10.003 55.08l163.506-66.057-42.63-105.51-120.876 48.836v122.732zM-74.915 450.128h-.18l-73.84 29.832v172.214h74.02V595.16h-1v-10.002h1V450.127zm614.094 155.137l11.986-228.705-70.28-70.278-33.734 13.63 28.77 71.203h.309v210.85l62.949 3.3zm9.989.523l134.427 7.045 24.915-58.695-50.587-319.381L490.96 302.21l70.41 70.409h.018v.016l.013.013-.015.015-12.218 233.123zM343.038 434.95l120.186-48.557-25.347-62.735-120.186 48.557 25.347 62.735zm687.274 53.956l-144.579 58.412 42.482 110.664 148.564-54.07-46.467-115.006zm-3.747-9.274l-140.92-348.775-216.391 53.95 58.861 371.625.058.024-.04.092.053.33-.207.034-22.212 52.327 320.798-129.607zM700.24 622.26l-59.592 140.384 278.166-101.24-42.357-110.338-176.217 71.194zM274.102 389.824l-67.291 27.187 46.73 115.657 67.291-27.186-46.73-115.658zm382.215-165.207l-5.574-35.195-232.857 58.056 25.518 63.158 212.913-86.02zM434.13 314.383l-26.045-64.461-127.01 31.666 32.869 81.352 120.186-48.557z" mask="url(#b)" opacity=".5"/>
        <ellipse cx="423.5" cy="550.5" fill="#000" fill-opacity=".35" rx="19.5" ry="3.5"/>
        <path fill="#FFF" d="M448 510.513c0 3.753-.846 7.307-2.352 10.486h.002C438.74 537.412 423.5 550 423.5 550s-15.242-12.588-22.15-29h.002A24.419 24.419 0 0 1 399 510.512C399 496.975 409.968 486 423.5 486c13.53 0 24.5 10.975 24.5 24.513zm-24.986 6.523c4.974 0 9.006-4.034 9.006-9.01 0-4.977-4.032-9.011-9.006-9.011-4.973 0-9.005 4.034-9.005 9.01 0 4.977 4.032 9.01 9.005 9.01z"/>
        <text fill="#FFF" fill-opacity=".5" font-family="AppleSDGothicNeo-Medium, Apple SD Gothic Neo" font-size="18" font-weight="400">
            <tspan x="660.075" y="863">예술의전당</tspan>
        </text>
        <text fill="#FFF" fill-opacity=".5" font-family="AppleSDGothicNeo-Medium, Apple SD Gothic Neo" font-size="18" font-weight="400" transform="rotate(-20 491.068 843.518)">
            <tspan x="416.269" y="849.018">예술의전당 앞 교차로</tspan>
        </text>
        <text fill="#FFF" fill-opacity=".5" font-family="AppleSDGothicNeo-Medium, Apple SD Gothic Neo" font-size="18" font-weight="400" transform="rotate(-15 254.292 262.765)">
            <tspan x="198.024" y="268.265">서초 3동 사거리</tspan>
        </text>
        <text fill="#FFF" fill-opacity=".5" font-family="AppleSDGothicNeo-Medium, Apple SD Gothic Neo" font-size="18" font-weight="400">
            <tspan x="750.138" y="272">서울 남부터미널</tspan>
        </text>
        <g>
            <g transform="translate(858 138)">
                <circle cx="14" cy="14" r="14" fill="#FFF" fill-opacity=".7"/>
                <text fill="#72767D" font-family="AppleSDGothicNeo-Medium, Apple SD Gothic Neo" font-size="18" font-weight="400">
                    <tspan x="9.982" y="21">5</tspan>
                </text>
            </g>
            <g transform="translate(828 60)">
                <circle cx="14" cy="14" r="14" fill="#FFF" fill-opacity=".7"/>
                <text fill="#72767D" font-family="AppleSDGothicNeo-Medium, Apple SD Gothic Neo" font-size="18" font-weight="400">
                    <tspan x="9.478" y="21">6</tspan>
                </text>
            </g>
            <g transform="translate(977 107)">
                <circle cx="14" cy="14" r="14" fill="#FFF" fill-opacity=".7"/>
                <text fill="#72767D" font-family="AppleSDGothicNeo-Medium, Apple SD Gothic Neo" font-size="18" font-weight="400">
                    <tspan x="9.676" y="21">3</tspan>
                </text>
            </g>
            <g transform="translate(957 152)">
                <circle cx="14" cy="14" r="14" fill="#FFF" fill-opacity=".7"/>
                <text fill="#72767D" font-family="AppleSDGothicNeo-Medium, Apple SD Gothic Neo" font-size="18" font-weight="400">
                    <tspan x="9.451" y="21">4</tspan>
                </text>
            </g>
            <g transform="translate(947 30)">
                <circle cx="14" cy="14" r="14" fill="#FFF" fill-opacity=".7"/>
                <text fill="#72767D" font-family="AppleSDGothicNeo-Medium, Apple SD Gothic Neo" font-size="18" font-weight="400">
                    <tspan x="9.703" y="21">2</tspan>
                </text>
            </g>
            <g transform="translate(904 6)">
                <circle cx="14" cy="14" r="14" fill="#FFF" fill-opacity=".7"/>
                <text fill="#72767D" font-family="AppleSDGothicNeo-Medium, Apple SD Gothic Neo" font-size="18" font-weight="400">
                    <tspan x="11.197" y="21">1</tspan>
                </text>
            </g>
        </g>
        <text fill="#FFF" fill-opacity=".5" font-family="AppleSDGothicNeo-Medium, Apple SD Gothic Neo" font-size="18" font-weight="400" transform="rotate(69 900.385 101.853)">
            <tspan x="804.292" y="107.353">남부터미널역 (예술의 전당)</tspan>
        </text>
    </g>
</svg>
