<?xml version="1.0" encoding="utf-8"?>
<!-- Generator: Adobe Illustrator 23.0.1, SVG Export Plug-In . SVG Version: 6.00 Build 0)  -->
<svg version="1.1" id="Layer_1" xmlns="http://www.w3.org/2000/svg" xmlns:xlink="http://www.w3.org/1999/xlink" x="0px" y="0px"
	 viewBox="0 0 214 92" style="enable-background:new 0 0 214 92;" xml:space="preserve">
<style type="text/css">
	.st0{fill:url(#SVGID_1_);}
	.st1{fill:#8251E5;}
	.st2{fill:#3D3D3D;}
</style>
<g>
	
		<linearGradient id="SVGID_1_" gradientUnits="userSpaceOnUse" x1="142.4128" y1="1019.65" x2="4.1462" y2="1019.65" gradientTransform="matrix(1 0 0 1 0 -986)">
		<stop  offset="3.690097e-07" style="stop-color:#8251E5"/>
		<stop  offset="1" style="stop-color:#093CF0"/>
	</linearGradient>
	<path class="st0" d="M138.3,1.2c-2.5,0-4.5,2-4.5,4.5v14.5c-4.7-4.1-10.7-6.4-17-6.4c-8.6,0-16.7,4.3-21.5,11.4
		c-0.3-0.5-0.6-0.9-1-1.3l-0.1-0.2c-0.3-0.4-0.6-0.8-0.9-1.1h-0.2c-0.7-0.8-1.5-1.5-2.2-2.2l-0.2-0.2c-0.3-0.3-0.7-0.6-1.1-0.9
		l-0.1-0.1c-0.8-0.6-1.7-1.2-2.6-1.7l-0.3-0.2c-0.4-0.2-0.7-0.4-1.1-0.6l-0.3-0.1c-0.9-0.5-1.9-0.9-2.8-1.2L82,15.3
		c-0.4-0.1-0.8-0.2-1.1-0.4l-0.4-0.1c-0.5-0.1-1-0.3-1.5-0.4c-0.5-0.1-1-0.2-1.5-0.3L77,14c-0.4,0-0.8-0.1-1.2-0.1
		c-0.2,0-0.3,0-0.5,0c-1-0.1-2-0.1-2.9,0h-0.5c-0.3,0-0.6,0-0.8,0.1l-0.7,0.1c-0.2,0-0.4,0.1-0.6,0.1c-0.1,0-0.2,0-0.4,0.1L69,14.4
		c-0.2,0-0.3,0.1-0.5,0.1s-0.4,0.1-0.6,0.1h-0.4c-0.1,0-0.2,0.1-0.4,0.1c-0.2,0.1-0.4,0.1-0.6,0.2L66.2,15c-0.1,0-0.2,0.1-0.3,0.1
		c-0.2,0.1-0.4,0.1-0.7,0.2H65c-0.1,0-0.2,0.1-0.3,0.1c-0.2,0.1-0.4,0.2-0.7,0.3l-0.5,0.2c-0.3,0.1-0.5,0.2-0.8,0.4l-0.3,0.2
		c-0.3,0.1-0.5,0.3-0.8,0.4L61.3,17c-0.3,0.2-0.6,0.3-0.9,0.5l-0.2,0.1c-0.3,0.2-0.6,0.4-0.9,0.6l-0.1,0.1c-0.3,0.2-0.6,0.4-0.9,0.6
		L58.2,19c-0.3,0.2-0.6,0.5-1,0.8c-0.3,0.3-0.6,0.5-0.9,0.8c-5.4,4.9-8.5,11.9-8.6,19.2v0.1v0.2c0,0.8-0.1,1.7-0.2,2.6
		c-0.1,0.2-0.1,0.4-0.1,0.6c-0.4,1.8-1,3.6-1.9,5.2l-0.3,0.1c-0.2,0.4-0.5,0.8-0.8,1.2c-0.1,0.2-0.2,0.3-0.4,0.5
		c-0.2,0.3-0.4,0.6-0.7,0.8c-0.2,0.2-0.4,0.4-0.5,0.6c-0.2,0.2-0.4,0.4-0.7,0.6L42,52.5c-0.2,0.1-0.3,0.3-0.5,0.4
		c-0.3,0.3-0.6,0.5-1,0.7c-0.2,0.2-0.5,0.4-0.8,0.5c-0.4,0.3-0.8,0.5-1.3,0.7c-0.2,0.1-0.3,0.2-0.5,0.2l-0.3,0.1
		c-0.3,0.1-0.5,0.3-0.8,0.4c-0.2,0.1-0.4,0.1-0.5,0.2l-0.2,0.1c-0.3,0.1-0.6,0.2-0.9,0.3c-0.2,0.1-0.4,0.1-0.6,0.2h-0.2
		c-0.1,0.2-0.4,0.3-0.7,0.3c-0.2,0-0.5,0.1-0.7,0.1h-0.2c-0.3,0-0.5,0.1-0.8,0.1c-0.2,0-0.5,0-0.7,0H31c-0.2,0-0.5,0-0.7,0
		s-0.3,0-0.5,0h-0.4c-0.3,0-0.6,0-0.9-0.1l-0.4-0.1c-2.1-0.3-4.1-0.9-5.9-1.9c-0.3-0.2-0.7-0.4-1-0.6L21,54c-0.1,0-0.1-0.1-0.2-0.1
		c-1.8-1.2-3.3-2.7-4.5-4.5l-0.1-0.2c-0.2-0.3-0.4-0.7-0.6-1L15.5,48c-0.1-0.1-0.1-0.2-0.2-0.3c-0.2-0.3-0.3-0.6-0.4-0.9H15
		c-0.1-0.2-0.2-0.3-0.2-0.5c-0.1-0.3-0.2-0.6-0.3-0.9l-0.1-0.2c-0.1-0.2-0.1-0.3-0.2-0.5c-0.1-0.3-0.2-0.7-0.3-1v-0.1
		c0-0.2-0.1-0.3-0.1-0.5c-0.1-0.3-0.1-0.7-0.2-1.1v-0.2c0-0.1,0-0.3-0.1-0.4c0-0.4,0-0.7-0.1-1.1c-0.2-6.5,3.4-12.7,9.2-15.6
		c4.7-2.4,10.2-2.5,15.1-0.2c0.2,0.1,0.3,0.1,0.5,0.2h0.1c0.5,0.2,1.1,0.3,1.7,0.2h0.1h0.1c0.2,0,0.5-0.1,0.7-0.1h0.2
		c0.3-0.1,0.6-0.2,0.9-0.3c2.2-1.1,3.1-3.9,1.9-6.1c-0.1-0.2-0.2-0.4-0.4-0.6c-0.4-0.5-0.9-0.9-1.4-1.2H42
		c-7.4-3.7-16.2-3.6-23.5,0.2C10,21.2,4.6,30,4.5,39.8v0.1v0.4c0,0.3,0,0.5,0,0.8v0.5c0,0.3,0,0.6,0.1,0.8v0.4
		c0,0.3,0.1,0.6,0.1,0.9l0.1,0.4c0,0.3,0.1,0.6,0.2,1l0.1,0.3c0.1,0.3,0.1,0.6,0.2,0.9l0.1,0.3c0.1,0.3,0.2,0.6,0.2,0.8l0.1,0.4
		c0.1,0.3,0.2,0.5,0.3,0.8L6.1,49c0.1,0.3,0.2,0.5,0.3,0.8l0.1,0.4c0.1,0.3,0.2,0.6,0.4,0.8l0.2,0.5c0,0.1,0.1,0.2,0.1,0.3
		s0.1,0.2,0.2,0.3l0.2,0.3c2.2,4,5.4,7.4,9.3,9.8c0.3,0.2,0.6,0.4,0.9,0.5l0.1,0.1c3.3,1.8,6.9,2.9,10.7,3.2c0.4,0,0.7,0,1.1,0.1
		h0.4c0.2,0,0.4,0,0.6,0h0.6c0.3,0,0.5,0,0.8,0c0.2,0,0.4,0,0.5,0c0.2,0,0.5,0,0.7-0.1c0.2,0,0.4,0,0.6-0.1c0.2,0,0.5-0.1,0.7-0.1
		s0.4-0.1,0.6-0.1c0.2,0,0.5-0.1,0.7-0.1s0.4-0.1,0.5-0.1c0.2-0.1,0.5-0.1,0.7-0.2l0.5-0.1c0.2-0.1,0.5-0.1,0.7-0.2l0.5-0.2
		c0.2-0.1,0.5-0.2,0.7-0.3l0.5-0.2c0.2-0.1,0.4-0.2,0.7-0.3c0.2-0.1,0.4-0.2,0.6-0.2c0.2-0.1,0.4-0.2,0.6-0.3l0.6-0.3
		c0.4-0.2,0.8-0.4,1.2-0.7c0.2-0.1,0.4-0.2,0.6-0.4l0.1-0.1c0.2-0.2,0.5-0.3,0.7-0.5s0.5-0.3,0.7-0.5c0.1-0.1,0.3-0.2,0.4-0.3
		l0.1-0.1c0.4-0.3,0.8-0.7,1.3-1.1c0.1-0.1,0.3-0.2,0.4-0.3c0.2-0.2,0.4-0.4,0.6-0.6c0.2-0.2,0.4-0.4,0.6-0.7
		c0.2-0.2,0.3-0.3,0.5-0.5c0.3-0.3,0.6-0.7,0.9-1.1l0.2-0.2c0.4-0.5,0.7-1,1.1-1.5C56.7,61.7,64.8,66,73.4,66s16.7-4.3,21.5-11.4
		c0.3,0.5,0.6,0.9,1,1.3L96,56c0.3,0.4,0.6,0.8,0.9,1.1l0.1,0.1c0.7,0.8,1.5,1.5,2.3,2.2l0.2,0.1c0.3,0.3,0.7,0.6,1.1,0.9l0.4,0.2
		c0.8,0.6,1.7,1.2,2.6,1.7l0.3,0.2c0.4,0.2,0.7,0.4,1.1,0.6l0.3,0.1c0.9,0.5,1.9,0.9,2.9,1.2l0.4,0.1c0.4,0.1,0.8,0.2,1.2,0.4
		l0.3,0.1c0.5,0.1,1,0.3,1.5,0.4h0.2c0.5,0.1,0.9,0.2,1.4,0.2l0.5,0.1c0.4,0,0.8,0.1,1.2,0.1h0.5c0.5,0,1.1,0.1,1.6,0.1
		c14.4,0,26-11.7,26-26V5.7C142.8,3.2,140.8,1.2,138.3,1.2z M133.8,40c0,6.2-3.5,11.9-9,14.9c-0.5,0.3-1,0.5-1.5,0.7h-0.1
		c-0.5,0.2-1,0.4-1.5,0.5c-0.1,0-0.1,0-0.2,0c-0.4,0.1-0.9,0.3-1.3,0.3h-0.1c-1.1,0.2-2.3,0.3-3.4,0.3h-0.1c-0.1,0-0.1,0-0.2,0
		c-0.5,0-1,0-1.4-0.1c-0.1,0-0.2,0-0.2,0c-0.1,0-0.2,0-0.3,0h-0.1c-0.4,0-0.7-0.1-1.1-0.2c-0.1,0-0.2,0-0.2-0.1
		c-0.1,0-0.2,0-0.3-0.1h-0.2c-0.3-0.1-0.6-0.1-0.9-0.2c-0.1,0-0.2-0.1-0.3-0.1l-0.5-0.2c-0.2-0.1-0.5-0.2-0.7-0.3s-0.4-0.2-0.6-0.3
		l-0.5-0.3c-0.1-0.1-0.2-0.1-0.3-0.2c-0.3-0.2-0.6-0.3-0.9-0.5l-0.1-0.1c-0.1,0-0.2-0.1-0.2-0.1c-0.1,0-0.1-0.1-0.2-0.1
		c-0.4-0.2-0.7-0.5-1.1-0.8l-0.3-0.2c-0.4-0.3-0.8-0.7-1.2-1.1c-3.2-3.2-5-7.5-5-12l0,0v-0.2c0-9.4,7.7-17,17-17c9.4,0,17,7.6,17,17
		l0,0L133.8,40z M90.7,40c0,9.4-7.7,17-17,17c-9.4,0-17-7.6-17-17l0,0v-0.1c0-4.5,1.8-8.7,5-11.9l0.1-0.1c0.4-0.4,0.8-0.7,1.2-1.1
		v-0.2c0.4-0.3,0.7-0.6,1.2-0.9c0.1,0,0.1-0.1,0.2-0.1c0.4-0.2,0.8-0.5,1.1-0.7c0.1,0,0.1-0.1,0.2-0.1l0.3-0.1
		c0.3-0.2,0.7-0.4,1.1-0.5c0.1-0.1,0.2-0.1,0.4-0.1l0.5-0.2c0.2-0.1,0.4-0.2,0.7-0.2c0.2-0.1,0.4-0.1,0.5-0.1l0.6-0.2
		c0.2,0,0.3-0.1,0.5-0.1s0.4-0.1,0.6-0.1l0.6-0.1c0.2,0,0.3-0.1,0.5-0.1c1.1-0.1,2.3-0.1,3.5,0c0.1,0,0.3,0,0.4,0.1l0.6,0.1
		c0.2,0,0.4,0.1,0.7,0.1c0.1,0,0.3,0.1,0.4,0.1l0.6,0.1c0.2,0.1,0.4,0.1,0.6,0.2s0.3,0.1,0.5,0.2l0.6,0.2c0.2,0.1,0.3,0.1,0.5,0.2
		c0.3,0.1,0.5,0.2,0.8,0.4l0.4,0.2c0.1,0,0.2,0.1,0.3,0.1c0.4,0.2,0.7,0.4,1,0.6l0.2,0.1c0.1,0,0.1,0.1,0.2,0.1
		c0.4,0.2,0.7,0.5,1,0.8l0.3,0.2c0.4,0.3,0.7,0.6,1.1,1l0.1,0.1c0.3,0.3,0.7,0.7,1.1,1.2C89.4,32.1,90.8,35.9,90.7,40L90.7,40
		L90.7,40z M58.7,19.8L58.7,19.8L58.7,19.8L58.7,19.8z M98.1,56.5L98.1,56.5L98.1,56.5L98.1,56.5z"/>
</g>
<g>
	<path class="st1" d="M161.4,63.2v2.7H150V48.8h3.1v14.4C153.1,63.2,161.4,63.2,161.4,63.2z"/>
	<path class="st1" d="M165,65.9h-3.2l7-17.1h3.3l7,17.1h-3.3l-1.3-3.3h-8L165,65.9z M170.3,52.4L170.3,52.4l-3,7.5h6L170.3,52.4z"/>
	<path class="st1" d="M188.6,65.9h-7.5V48.8h7.3c2,0,3.5,0.4,4.5,1.3s1.5,2,1.5,3.4c0,0.9-0.2,1.7-0.7,2.3c-0.5,0.7-1.1,1.1-1.9,1.5
		c0.9,0.3,1.6,0.8,2.1,1.5s0.8,1.5,0.8,2.4c0,1.5-0.5,2.7-1.5,3.5C192,65.5,190.5,65.9,188.6,65.9z M188.4,51.5h-4.3V56h4.3
		c1.9,0,2.8-0.7,2.8-2.2c0-0.7-0.2-1.3-0.7-1.7S189.3,51.5,188.4,51.5z M188.6,58.6h-4.5v4.7h4.5c2,0,2.9-0.8,2.9-2.3
		c0-0.7-0.3-1.3-0.8-1.7C190.2,58.8,189.5,58.6,188.6,58.6z"/>
	<path class="st1" d="M203.8,63.6c1.2,0,2.2-0.2,2.9-0.6c0.7-0.4,1-1,1-1.8c0-0.6-0.2-1-0.6-1.4c-0.4-0.4-0.9-0.6-1.5-0.8
		s-1.2-0.3-1.9-0.5s-1.4-0.4-2.1-0.5c-0.7-0.2-1.4-0.4-2-0.8c-0.6-0.3-1.1-0.8-1.4-1.4c-0.4-0.6-0.6-1.4-0.6-2.4
		c0-1.4,0.6-2.6,1.8-3.6s2.7-1.5,4.7-1.5s3.6,0.5,4.8,1.6c1.1,1.1,1.7,2.4,1.8,4.1h-3c0-0.9-0.3-1.6-0.9-2.2
		c-0.6-0.6-1.5-0.9-2.6-0.9s-1.9,0.2-2.5,0.6s-0.9,1-0.9,1.7c0,0.5,0.2,0.9,0.6,1.2s0.9,0.6,1.5,0.7c0.6,0.2,1.3,0.3,2,0.5
		s1.4,0.4,2.1,0.5c0.7,0.2,1.4,0.5,2,0.8s1.1,0.9,1.5,1.5c0.4,0.7,0.6,1.5,0.6,2.4c0,1.6-0.7,2.8-1.9,3.7c-1.3,0.9-3,1.4-5.2,1.4
		s-3.9-0.6-5-1.7s-1.7-2.5-1.7-4h3c0.1,0.9,0.4,1.7,1.1,2.2C201.7,63.4,202.6,63.6,203.8,63.6z"/>
</g>
<g>
	<path class="st2" d="M4.5,83.2c0-2.2,0.7-4,2.1-5.3c1.4-1.4,3.2-2.1,5.4-2.1c1.9,0,3.5,0.5,4.8,1.5s2.1,2.3,2.4,4h-2.7
		c-0.3-1-0.8-1.8-1.6-2.3c-0.8-0.6-1.8-0.8-2.9-0.8c-1.5,0-2.7,0.5-3.5,1.4s-1.3,2.1-1.3,3.7s0.4,2.8,1.3,3.7s2,1.4,3.5,1.4
		c1.1,0,2.1-0.3,2.9-0.8c0.8-0.6,1.3-1.3,1.6-2.3h2.7c-0.3,1.7-1.1,3-2.4,4s-2.9,1.5-4.8,1.5c-2.2,0-4-0.7-5.4-2.1
		C5.2,87.2,4.5,85.5,4.5,83.2z"/>
	<path class="st2" d="M26.4,90.7c-1.7,0-3.1-0.5-4.1-1.6s-1.6-2.3-1.6-3.9s0.5-2.8,1.6-3.9s2.4-1.6,4.1-1.6s3.1,0.5,4.1,1.6
		s1.6,2.3,1.6,3.9s-0.5,2.8-1.6,3.9C29.5,90.2,28.1,90.7,26.4,90.7z M23.3,85.2c0,1,0.3,1.8,0.9,2.4s1.4,0.9,2.3,0.9
		s1.7-0.3,2.3-0.9c0.6-0.6,0.9-1.4,0.9-2.4s-0.3-1.8-0.9-2.4s-1.4-0.9-2.3-0.9s-1.7,0.3-2.3,0.9C23.6,83.5,23.3,84.2,23.3,85.2z"/>
	<path class="st2" d="M36.7,80.1v1.4c0.3-0.5,0.7-0.8,1.3-1.2c0.6-0.3,1.3-0.5,2.1-0.5c1.3,0,2.3,0.4,3,1.1s1.1,1.7,1.1,3v6.5h-2.5
		v-6.2c0-0.7-0.2-1.3-0.5-1.7c-0.4-0.4-0.9-0.6-1.6-0.6c-0.8,0-1.4,0.2-1.9,0.7S37,83.7,37,84.5v6h-2.5V80.1H36.7z"/>
	<path class="st2" d="M49.4,80.1v1.4c0.3-0.5,0.7-0.8,1.3-1.2c0.6-0.3,1.3-0.5,2.1-0.5c1.3,0,2.3,0.4,3,1.1s1.1,1.7,1.1,3v6.5h-2.5
		v-6.2c0-0.7-0.2-1.3-0.5-1.7c-0.4-0.4-0.9-0.6-1.6-0.6c-0.8,0-1.4,0.2-1.9,0.7s-0.7,1.1-0.7,1.9v6h-2.5V80.1H49.4z"/>
	<path class="st2" d="M69.9,86h-8.3c0.1,0.8,0.4,1.5,0.9,2s1.2,0.7,2.1,0.7c0.6,0,1.1-0.1,1.6-0.4s0.8-0.6,1-1.1h2.5
		c-0.3,1.1-1,1.9-1.9,2.6s-2,1-3.3,1c-1.6,0-2.9-0.5-3.9-1.5s-1.5-2.3-1.5-3.9c0-1.5,0.5-2.8,1.5-3.9c1-1,2.3-1.6,3.9-1.6
		c1.6,0,2.9,0.5,3.9,1.5s1.5,2.3,1.5,3.9V86z M64.5,81.8c-0.8,0-1.4,0.2-2,0.7c-0.5,0.4-0.8,1-1,1.8h5.8c-0.1-0.7-0.4-1.3-0.9-1.8
		C66,82,65.3,81.8,64.5,81.8z"/>
	<path class="st2" d="M71.5,85.2c0-1.5,0.5-2.8,1.5-3.9c1-1,2.3-1.6,3.9-1.6c1.5,0,2.7,0.4,3.6,1.2s1.4,1.7,1.6,2.8h-2.6
		c-0.2-0.6-0.5-1-0.9-1.4c-0.5-0.3-1-0.5-1.7-0.5c-0.9,0-1.6,0.3-2.1,0.9S74,84.2,74,85.2s0.3,1.8,0.8,2.4s1.2,0.9,2.1,0.9
		c0.7,0,1.2-0.2,1.7-0.5s0.8-0.8,0.9-1.4h2.6c-0.2,1.1-0.7,2-1.6,2.8s-2.1,1.2-3.6,1.2c-1.6,0-2.9-0.5-3.9-1.6
		C72,88.1,71.5,86.8,71.5,85.2z"/>
	<path class="st2" d="M89.2,88.2v2.1c-0.3,0.1-0.7,0.1-1.3,0.1c-2.1,0-3.2-1-3.2-3.1v-5.5H83v-1.9h1.7v-2.7h2.5v2.7h2v1.9h-2v5.3
		c0,0.8,0.4,1.2,1.2,1.2L89.2,88.2z"/>
	<path class="st2" d="M101.6,90.7c-1.7,0-3.1-0.5-4.1-1.6s-1.6-2.3-1.6-3.9s0.5-2.8,1.6-3.9s2.4-1.6,4.1-1.6s3.1,0.5,4.1,1.6
		s1.6,2.3,1.6,3.9s-0.5,2.8-1.6,3.9C104.7,90.2,103.3,90.7,101.6,90.7z M98.5,85.2c0,1,0.3,1.8,0.9,2.4s1.4,0.9,2.3,0.9
		s1.7-0.3,2.3-0.9c0.6-0.6,0.9-1.4,0.9-2.4s-0.3-1.8-0.9-2.4s-1.4-0.9-2.3-0.9s-1.7,0.3-2.3,0.9C98.8,83.5,98.5,84.2,98.5,85.2z"/>
	<path class="st2" d="M111.9,80.1v1.4c0.3-0.5,0.7-0.8,1.3-1.2c0.6-0.3,1.3-0.5,2.1-0.5c1.3,0,2.3,0.4,3,1.1s1.1,1.7,1.1,3v6.5h-2.5
		v-6.2c0-0.7-0.2-1.3-0.5-1.7c-0.4-0.4-0.9-0.6-1.6-0.6c-0.8,0-1.4,0.2-1.9,0.7s-0.7,1.1-0.7,1.9v6h-2.5V80.1H111.9z"/>
	<path class="st2" d="M133.1,90.5H128V76.2h5.1c2.5,0,4.5,0.7,5.9,2s2.1,3,2.1,5.2c0,2.1-0.7,3.9-2.1,5.2
		C137.6,89.8,135.7,90.5,133.1,90.5z M137.1,86.9c0.9-0.9,1.4-2.1,1.4-3.6s-0.5-2.7-1.4-3.6s-2.3-1.3-4.1-1.3h-2.4v9.7h2.4
		C134.8,88.2,136.2,87.8,137.1,86.9z"/>
	<path class="st2" d="M153.7,86h-8.3c0.1,0.8,0.4,1.5,0.9,2s1.2,0.7,2.1,0.7c0.6,0,1.1-0.1,1.6-0.4s0.8-0.6,1-1.1h2.5
		c-0.3,1.1-1,1.9-1.9,2.6s-2,1-3.3,1c-1.6,0-2.9-0.5-3.9-1.5s-1.5-2.3-1.5-3.9c0-1.5,0.5-2.8,1.5-3.9c1-1,2.3-1.6,3.9-1.6
		s2.9,0.5,3.9,1.5s1.5,2.3,1.5,3.9V86z M148.4,81.8c-0.8,0-1.4,0.2-2,0.7c-0.5,0.4-0.8,1-1,1.8h5.8c-0.1-0.7-0.4-1.3-0.9-1.8
		S149.2,81.8,148.4,81.8z"/>
	<path class="st2" d="M165.5,84.5v6H163v-6.2c0-1.6-0.7-2.4-2.1-2.4c-0.7,0-1.3,0.2-1.8,0.7s-0.7,1.1-0.7,1.9v6.1H156V80.1h2.3v1.4
		c0.3-0.5,0.7-0.9,1.2-1.2c0.5-0.3,1.2-0.5,2-0.5c1.5,0,2.6,0.5,3.3,1.6c0.9-1.1,2.2-1.6,3.7-1.6c1.3,0,2.3,0.4,2.9,1.1
		c0.7,0.8,1,1.7,1,3v6.5h-2.5v-6.2c0-1.6-0.7-2.4-2.1-2.4c-0.8,0-1.4,0.2-1.8,0.7S165.5,83.7,165.5,84.5z"/>
	<path class="st2" d="M178.7,90.7c-1.3,0-2.3-0.3-2.9-0.9s-0.9-1.3-0.9-2.3c0-1.8,1.4-2.9,4.2-3.3l3.2-0.4v-0.2
		c0-1.3-0.8-1.9-2.3-1.9c-1.4,0-2.1,0.5-2.3,1.5h-2.4c0.1-1,0.6-1.9,1.3-2.5s1.9-1,3.5-1s2.7,0.3,3.5,1s1.2,1.6,1.2,2.9v4.8
		c0,0.8,0.1,1.5,0.3,2h-2.4c0,0,0-0.1-0.1-0.2c0-0.1,0-0.3-0.1-0.5c0-0.2,0-0.5,0-0.7C181.7,90.2,180.5,90.7,178.7,90.7z
		 M182.2,85.6l-2.9,0.4c-1.4,0.2-2,0.7-2,1.5c0,0.9,0.6,1.4,1.9,1.4c1,0,1.7-0.2,2.2-0.7s0.8-1.1,0.8-1.9V85.6z"/>
	<path class="st2" d="M190,80.1v1.4c0.3-0.5,0.7-0.8,1.3-1.2c0.6-0.3,1.3-0.5,2.1-0.5c1.3,0,2.3,0.4,3,1.1s1.1,1.7,1.1,3v6.5H195
		v-6.2c0-0.7-0.2-1.3-0.5-1.7c-0.4-0.4-0.9-0.6-1.6-0.6c-0.8,0-1.4,0.2-1.9,0.7s-0.7,1.1-0.7,1.9v6h-2.5V80.1H190z"/>
	<path class="st2" d="M208.2,81.4v-6h2.5v15h-2.3v-1.5c-0.7,1.1-2,1.7-3.7,1.7c-1.6,0-2.8-0.5-3.7-1.6s-1.4-2.3-1.4-3.9
		s0.5-2.8,1.4-3.9c0.9-1,2.1-1.6,3.7-1.6C206.3,79.8,207.5,80.4,208.2,81.4z M208.3,85.2c0-1-0.3-1.8-0.8-2.4
		c-0.6-0.6-1.3-0.9-2.2-0.9s-1.7,0.3-2.2,0.9s-0.8,1.4-0.8,2.4c0,0.9,0.3,1.7,0.8,2.4s1.3,1,2.2,1s1.7-0.3,2.2-0.9
		C208,87,208.3,86.2,208.3,85.2z"/>
</g>
</svg>
