<svg xmlns="http://www.w3.org/2000/svg" width="60" height="60" viewBox="0 0 60 60">
    <g fill="none" fill-rule="evenodd">
        <circle cx="30" cy="30" r="30" fill="#F3F3F3"/>
        <path fill="#D6D6D6" d="M28.535 33.765l5.208-3.315-5.208-3.316v6.631zm-1.108 2.02a.75.75 0 0 1-.389-.658v-9.355a.75.75 0 0 1 1.15-.632l7.351 4.678a.746.746 0 0 1 0 1.263l-7.35 4.678a.747.747 0 0 1-.762.025zM12.497 22.35h5.186v-5.854h-5.186v5.854zm0 7.351h5.186v-5.854h-5.186v5.854zm0 7.35h5.186v-5.854h-5.186v5.854zm0 7.351h5.186v-5.854h-5.186v5.854zm6.682 0H41.74V16.496H19.179v27.907zm24.058-22.052h5.186v-5.854h-5.186v5.854zm0 7.351h5.186v-5.854h-5.186v5.854zm0 7.35h5.186v-5.854h-5.186v5.854zm0 7.351h5.186v-5.854h-5.186v5.854zM11.749 15h37.422c.413 0 .748.336.748.748v29.403a.749.749 0 0 1-.748.749H11.749a.75.75 0 0 1-.749-.749V15.748a.75.75 0 0 1 .749-.748z"/>
    </g>
</svg>
