<svg xmlns="http://www.w3.org/2000/svg" width="55" height="55" viewBox="0 0 55 55">
    <g fill="none" fill-rule="evenodd">
        <circle cx="27.5" cy="27.5" r="27.5" fill="#F3F3F3"/>
        <path fill="#F3F3F3" stroke="#D6D6D6" stroke-linecap="round" stroke-linejoin="round" stroke-width="2" d="M29.196 11.827L44.892 36.94A2 2 0 0 1 43.196 40H11.804a2 2 0 0 1-1.696-3.06l15.696-25.113a2 2 0 0 1 3.392 0z"/>
        <path fill="#D6D6D6" d="M27.518 32c-.826 0-1.518.684-1.518 1.5s.692 1.5 1.518 1.5c.795 0 1.517-.684 1.48-1.464A1.472 1.472 0 0 0 27.519 32zM27.147 20.04c-.707.192-1.147.803-1.147 1.544.036.447.065.9.101 1.346l.303 5.074c.036.577.505.996 1.11.996.607 0 1.082-.447 1.112-1.03 0-.35 0-.673.035-1.029.066-1.092.137-2.183.202-3.275.036-.707.101-1.414.137-2.121 0-.255-.036-.481-.137-.707-.303-.634-1.01-.956-1.716-.798z"/>
    </g>
</svg>
