<svg xmlns="http://www.w3.org/2000/svg" width="60" height="60" viewBox="0 0 60 60">
    <g fill="none" fill-rule="evenodd">
        <circle cx="30" cy="30" r="30" fill="#F3F3F3"/>
        <path fill="#D6D6D6" d="M30.96 21.045a.75.75 0 0 1-.808 1.264l-.769-.478a.75.75 0 0 1 .792-1.274l.77.478.015.01zm-6.984-4.338a.751.751 0 0 1-.747 1.282L11.775 37.666l4.143 2.412a.75.75 0 1 1-.755 1.296l-4.79-2.788a.752.752 0 0 1-.27-1.026l15.824-27.187a.747.747 0 0 1 1.025-.271l4.66 2.712a.752.752 0 0 1 .193 1.134c-.412.485-.583 1.779.024 2.573a.75.75 0 1 1-1.19.91c-.83-1.083-.868-2.607-.426-3.695l-3.367-1.96-2.87 4.931zm21.236 16.065l4.444-3.243-2.336-3.202c-.474.22-.987.334-1.512.334a3.651 3.651 0 0 1-3.647-3.647c0-.91.347-1.783.954-2.449l-2.337-3.203-4.369 3.188a.75.75 0 0 1-1.165.85L16.578 35.02l2.434 3.335a3.604 3.604 0 0 1 1.458-.307 3.651 3.651 0 0 1 3.647 3.647c0 .9-.327 1.743-.914 2.403l2.253 3.09L44.198 33.51a.749.749 0 0 1 1.014-.74zm-19.92 16.213a.755.755 0 0 1-.605-.308l-3.088-4.233a.75.75 0 0 1 .154-1.04 2.125 2.125 0 0 0 .864-1.709 2.15 2.15 0 0 0-2.147-2.147c-.442 0-.87.138-1.238.4a.75.75 0 0 1-1.04-.17l-3.267-4.479a.75.75 0 0 1 .164-1.048l25.41-18.543a.753.753 0 0 1 1.049.164l3.177 4.355a.749.749 0 0 1-.167 1.05 2.123 2.123 0 0 0-.897 1.737 2.15 2.15 0 0 0 2.147 2.147c.454 0 .893-.148 1.27-.428a.749.749 0 0 1 1.052.161l3.18 4.356a.748.748 0 0 1-.164 1.048L25.735 48.841a.75.75 0 0 1-.442.144zM37.544 24.6l-.533-.731a.75.75 0 0 1 1.211-.884l.534.73a.75.75 0 1 1-1.212.885zm2.444 3.35l-.534-.731a.75.75 0 0 1 1.212-.885l.533.732a.75.75 0 1 1-1.21.884zm2.444 3.349l-.534-.731a.75.75 0 0 1 1.212-.885l.533.732a.75.75 0 1 1-1.21.884zm-15.8-11.179l-.768-.478a.75.75 0 0 1 .792-1.273l.769.478a.75.75 0 1 1-.792 1.273z"/>
    </g>
</svg>
