<svg xmlns="http://www.w3.org/2000/svg" width="55" height="55" viewBox="0 0 55 55">
    <g fill="none" fill-rule="evenodd">
        <circle cx="27.5" cy="27.5" r="27.5" fill="#F3F3F3"/>
        <path stroke="#D6D6D6" d="M12.859 34.505l5.357-1.777.196.115c1.42.838 3 1.376 4.656 1.572l.422.05.018.425c.209 4.802 4.243 8.61 9.16 8.61a9.245 9.245 0 0 0 5.003-1.457l.167-.107 4.403.83-1.659-3.714.123-.219a8.828 8.828 0 0 0 1.13-4.333c0-3.6-2.173-6.812-5.474-8.24l-.398-.172.114-.419c.28-1.024.423-2.087.423-3.169 0-6.627-5.373-12-12-12s-12 5.373-12 12c0 2.377.692 4.649 1.97 6.59l.134.204-1.745 5.211z"/>
        <path stroke="#D6D6D6" d="M12.859 34.505l5.357-1.777.196.115A11.94 11.94 0 0 0 24.5 34.5c6.627 0 12-5.373 12-12s-5.373-12-12-12-12 5.373-12 12c0 2.377.692 4.649 1.97 6.59l.134.204-1.745 5.211z"/>
        <path fill="#D6D6D6" d="M19 22h2v2h-2zM24 22h2v2h-2zM29 22h2v2h-2z"/>
    </g>
</svg>
