<svg xmlns="http://www.w3.org/2000/svg" width="60" height="60" viewBox="0 0 60 60">
    <g fill="none" fill-rule="evenodd">
        <circle cx="30" cy="30" r="30" fill="#424242"/>
        <path fill="#A9A9A9" d="M49.706 26.823a.78.78 0 0 1 0 1.556h-4.008a.78.78 0 0 1-.779-.777.78.78 0 0 1 .78-.779h4.007zM45.23 24.82a.785.785 0 0 1-.721-.49.774.774 0 0 1 .436-.999l3.884-1.52a.779.779 0 0 1 1.005.436.774.774 0 0 1-.436 1.004l-3.87 1.515a.957.957 0 0 1-.298.054zm-5.33 5.309a2.741 2.741 0 0 0 1.356-3.743c-.304-.628-.864-1.1-1.502-1.383l-.205-.09v5.37l.351-.154zm-1.901 7.362V17.233l-.385.248c-6.857 4.408-11.006 4.974-13.856 4.974h-2.777v10.277h2.777c6.988 0 11.379 2.405 13.832 4.422l.409.336zm-18.56-4.758V22.455h-2.753a5.136 5.136 0 0 0-5.136 5.135c0 2.829 2.314 5.142 5.142 5.142h2.747zm20.305-9.341a4.31 4.31 0 0 1 3.344 4.21 4.302 4.302 0 0 1-3.354 4.21l-.193.046v7.569c0 .33-.215.624-.531.732a.8.8 0 0 1-.861-.281c-.173-.23-4.361-5.598-14.391-5.598h-2.391l4.075 9.852a.773.773 0 0 1-.417 1.01c-.439.163-.866-.04-1.02-.421l-4.314-10.441h-3.009A6.682 6.682 0 0 1 10 27.597c0-3.68 3.01-6.69 6.69-6.69h7.076c2.889 0 7.155-.655 14.559-5.767a.784.784 0 0 1 .808-.051.75.75 0 0 1 .416.68v7.578l.195.044zm9.653 8.546a.775.775 0 0 1 .43.417c.08.187.083.392.007.579a.784.784 0 0 1-1.006.444l-3.882-1.521a.772.772 0 0 1-.438-1.003.777.777 0 0 1 1.007-.437l3.882 1.52z"/>
    </g>
</svg>
