<svg xmlns="http://www.w3.org/2000/svg" width="22" height="21" viewBox="0 0 22 21">
    <path fill="#FFC506" fill-rule="evenodd" d="M18.672 7.397a.493.493 0 0 1 .266.548l-2.105 9.019a.539.539 0 0 1-.535.4H5.774a.539.539 0 0 1-.534-.4L3.135 7.966a.492.492 0 0 1 .266-.546.581.581 0 0 1 .643.072l3.774 3.283 2.788-4.666a.578.578 0 0 1 .43-.21.58.58 0 0 1 .43.209l2.788 4.641 3.775-3.28a.58.58 0 0 1 .643-.07zM3 7a1 1 0 1 1 0-2 1 1 0 0 1 0 2zm8-2a1 1 0 1 1 0-2 1 1 0 0 1 0 2zm8 2a1 1 0 1 1 0-2 1 1 0 0 1 0 2z"/>
</svg>
