<svg xmlns="http://www.w3.org/2000/svg" width="16" height="16" viewBox="0 0 16 16">
    <g fill="none" fill-rule="evenodd">
        <path d="M0 0h16v16H0z"/>
        <path fill="#424242" fill-rule="nonzero" d="M7.556.889c-2.703 0-4.89 2.143-4.89 4.794 0 2.855 3.088 6.793 4.359 8.293.28.328.789.328 1.068 0 1.264-1.5 4.351-5.438 4.351-8.293 0-2.65-2.186-4.794-4.888-4.794zm0 6.506c-.964 0-1.746-.767-1.746-1.712S6.592 3.97 7.556 3.97c.963 0 1.746.767 1.746 1.712s-.783 1.712-1.746 1.712z"/>
    </g>
</svg>
