<svg xmlns="http://www.w3.org/2000/svg" width="17" height="17" viewBox="0 0 17 17">
    <path fill="#FFF" fill-rule="nonzero" d="M15 10.475a4.51 4.51 0 0 1-.63 2.302l.61 2.203-2.203-.61a4.51 4.51 0 0 1-2.302.63 4.536 4.536 0 0 1-4.361-3.314 5.326 5.326 0 0 1-2.485-.736l-2.61.722.722-2.61A5.329 5.329 0 0 1 1 6.347 5.352 5.352 0 0 1 6.346 1a5.352 5.352 0 0 1 5.34 5.114A4.536 4.536 0 0 1 15 10.474zm-11.242-.412l.154.099a4.51 4.51 0 0 0 2.434.71 4.53 4.53 0 0 0 4.525-4.526A4.53 4.53 0 0 0 6.346 1.82 4.53 4.53 0 0 0 1.82 6.346c0 .866.246 1.707.71 2.433l.098.154-.432 1.562 1.562-.432zm10.046 3.74l-.32-1.158.1-.155c.39-.6.596-1.297.596-2.015a3.715 3.715 0 0 0-2.524-3.513 5.356 5.356 0 0 1-4.694 4.694 3.714 3.714 0 0 0 3.513 2.524 3.69 3.69 0 0 0 2.015-.596l.155-.1 1.159.32zM4 6h1v1H4V6zm2 0h1v1H6V6zm2 0h1v1H8V6z"/>
</svg>
