<svg xmlns="http://www.w3.org/2000/svg" width="17" height="17" viewBox="0 0 17 17">
    <g fill="none" fill-rule="evenodd">
        <path d="M0 0h17v17H0z"/>
        <path stroke="#FD344F" d="M2.571 12l-1.257-1.258a.444.444 0 0 1 0-.628l8.8-8.8a.444.444 0 0 1 .628 0L12 2.571a.444.444 0 0 1 0 .629 1.333 1.333 0 1 0 1.886 1.886.444.444 0 0 1 .629 0l1.257 1.257a.444.444 0 0 1 0 .628l-8.8 8.8a.444.444 0 0 1-.628 0l-1.257-1.257a.444.444 0 0 1 0-.629A1.333 1.333 0 1 0 3.2 12a.444.444 0 0 1-.629 0z"/>
        <path fill="#FD344F" fill-rule="nonzero" d="M8.227 4.458h1v1h-1zM9.485 5.715h1v1h-1zM10.742 6.972h1v1h-1zM11.999 8.229h1v1h-1z"/>
    </g>
</svg>
