<svg xmlns="http://www.w3.org/2000/svg" width="20" height="20" viewBox="0 0 20 20">
    <g fill="none" fill-rule="evenodd">
        <path d="M0 0h20v20H0z"/>
        <path fill="#2196F3" d="M17.399 17.931l-1.403 1.564-2.392-2.093a6.994 6.994 0 0 1-1.909.759 8.61 8.61 0 0 1-1.955.23c-1.227 0-2.327-.226-3.3-.678a7.26 7.26 0 0 1-2.473-1.852 8.283 8.283 0 0 1-1.553-2.737 10.14 10.14 0 0 1-.54-3.335c0-1.165.18-2.27.54-3.312A8.283 8.283 0 0 1 3.967 3.74a7.39 7.39 0 0 1 2.472-1.863c.974-.46 2.074-.69 3.301-.69 1.227 0 2.327.23 3.3.69a7.39 7.39 0 0 1 2.473 1.863 8.283 8.283 0 0 1 1.553 2.737c.36 1.043.54 2.147.54 3.312a10.83 10.83 0 0 1-.552 3.404 8.336 8.336 0 0 1-.713 1.575c-.291.499-.644.94-1.058 1.323l2.116 1.84zm-7.475-3.726l1.38-1.587 2.001 1.748a5.586 5.586 0 0 0 1.104-2.139 9.337 9.337 0 0 0 .034-4.738 6.381 6.381 0 0 0-.885-2.013 4.442 4.442 0 0 0-1.553-1.414c-.636-.353-1.391-.529-2.265-.529-.874 0-1.63.176-2.266.529a4.442 4.442 0 0 0-1.552 1.414 6.381 6.381 0 0 0-.885 2.013 9.268 9.268 0 0 0-.288 2.3c0 .782.096 1.549.288 2.3.191.751.486 1.422.885 2.012.399.59.916 1.062 1.553 1.415.636.353 1.391.529 2.265.529.307 0 .617-.03.931-.092.315-.061.618-.161.909-.299l-1.656-1.449z"/>
    </g>
</svg>
