<?xml version="1.0" standalone="no"?>
<!DOCTYPE svg PUBLIC "-//W3C//DTD SVG 20010904//EN"
 "http://www.w3.org/TR/2001/REC-SVG-20010904/DTD/svg10.dtd">
<svg version="1.0" xmlns="http://www.w3.org/2000/svg"
 width="116.000000pt" height="48.000000pt" viewBox="0 0 116.000000 48.000000"
 preserveAspectRatio="xMidYMid meet">
<metadata>
Created by potrace 1.15, written by Peter Selinger 2001-2017
</metadata>
<g transform="translate(0.000000,48.000000) scale(0.100000,-0.100000)"
fill="#000000" stroke="none">
<path d="M0 253 l1 -228 64 70 c57 61 66 68 77 54 7 -8 37 -46 67 -82 l54 -67
64 0 c35 0 63 2 63 5 0 2 -40 51 -88 107 -48 57 -91 108 -95 115 -5 8 26 54
79 120 48 59 92 114 97 121 7 9 -5 12 -54 12 l-64 0 -80 -100 -80 -100 -3 100
-3 100 -49 0 -50 0 0 -227z"/>
<path d="M400 380 l0 -100 50 0 50 0 0 55 c0 50 2 55 23 55 12 0 41 -9 64 -19
53 -24 77 -68 76 -138 -1 -82 -39 -126 -120 -139 l-43 -7 0 57 0 56 -50 0 -50
0 0 -101 0 -101 103 4 c116 5 162 22 215 82 36 41 47 86 45 173 -3 153 -91
223 -280 223 l-83 0 0 -100z"/>
<path d="M790 375 l0 -105 50 0 50 0 0 105 0 105 -50 0 -50 0 0 -105z"/>
<path d="M1060 330 l0 -150 -135 0 -135 0 0 -90 0 -90 50 0 50 0 0 45 0 45 85
0 85 0 0 -45 0 -45 50 0 50 0 0 240 0 240 -50 0 -50 0 0 -150z"/>
</g>
</svg>
