<svg xmlns="http://www.w3.org/2000/svg" width="191" height="67" viewBox="0 0 191 67">
    <defs>
        <linearGradient id="a" x1="91.488%" x2="-38.352%" y1="4.948%" y2="71.907%">
            <stop offset="0%" stop-color="#00A0FF"/>
            <stop offset="1%" stop-color="#00A1FF"/>
            <stop offset="26%" stop-color="#00BEFF"/>
            <stop offset="51%" stop-color="#00D2FF"/>
            <stop offset="76%" stop-color="#00DFFF"/>
            <stop offset="100%" stop-color="#00E3FF"/>
        </linearGradient>
        <linearGradient id="b" x1="107.685%" x2="-130.64%" y1="50%" y2="50%">
            <stop offset="0%" stop-color="#FFE000"/>
            <stop offset="41%" stop-color="#FFBD00"/>
            <stop offset="78%" stop-color="#FFA500"/>
            <stop offset="100%" stop-color="#FF9C00"/>
        </linearGradient>
        <linearGradient id="c" x1="86.219%" x2="-50.15%" y1="17.877%" y2="194.703%">
            <stop offset="0%" stop-color="#FF3A44"/>
            <stop offset="100%" stop-color="#C31162"/>
        </linearGradient>
        <linearGradient id="d" x1="-18.754%" x2="42.121%" y1="-54.052%" y2="24.917%">
            <stop offset="0%" stop-color="#32A071"/>
            <stop offset="7%" stop-color="#2DA771"/>
            <stop offset="48%" stop-color="#15CF74"/>
            <stop offset="80%" stop-color="#06E775"/>
            <stop offset="100%" stop-color="#00F076"/>
        </linearGradient>
    </defs>
    <g fill="none" fill-rule="evenodd">
        <rect width="190" height="66" x=".5" y=".5" stroke="#FFF" rx="8"/>
        <g fill-rule="nonzero">
            <path fill="#FFF" d="M96.679 35.075c-3.019.014-5.455 2.417-5.446 5.37.01 2.955 2.462 5.343 5.48 5.338 3.019-.004 5.463-2.4 5.463-5.354a5.22 5.22 0 0 0-1.588-3.818 5.457 5.457 0 0 0-3.91-1.536zm0 8.604c-1.36.094-2.641-.637-3.229-1.84a3.197 3.197 0 0 1 .565-3.616 3.372 3.372 0 0 1 3.644-.812c1.27.486 2.106 1.683 2.11 3.018a3.06 3.06 0 0 1-.845 2.263 3.198 3.198 0 0 1-2.245.987zm-11.986-8.604c-3.02.007-5.464 2.407-5.459 5.362.005 2.956 2.456 5.349 5.476 5.346 3.02-.002 5.467-2.398 5.467-5.354a5.22 5.22 0 0 0-1.588-3.818 5.457 5.457 0 0 0-3.909-1.536h.013zm0 8.604c-1.361.099-2.645-.628-3.238-1.831a3.197 3.197 0 0 1 .557-3.619 3.372 3.372 0 0 1 3.644-.819c1.272.486 2.11 1.683 2.114 3.02a3.06 3.06 0 0 1-.845 2.262 3.198 3.198 0 0 1-2.245.987h.013zm-14.278-6.954v2.268h5.562a4.702 4.702 0 0 1-1.287 2.86 5.757 5.757 0 0 1-4.288 1.663c-3.412 0-6.18-2.708-6.18-6.048s2.768-6.047 6.18-6.047a5.993 5.993 0 0 1 4.21 1.625l1.635-1.6a8.189 8.189 0 0 0-5.832-2.355c-3.117-.12-6.05 1.44-7.645 4.064a8.174 8.174 0 0 0 0 8.514c1.595 2.623 4.528 4.183 7.645 4.064a7.813 7.813 0 0 0 5.935-2.33 7.465 7.465 0 0 0 2.009-5.317 7.241 7.241 0 0 0-.129-1.424l-7.815.063zm58.334 1.764c-.688-1.979-2.552-3.337-4.687-3.414a5.204 5.204 0 0 0-3.76 1.585 4.976 4.976 0 0 0-1.39 3.77 5.182 5.182 0 0 0 1.555 3.806 5.417 5.417 0 0 0 3.879 1.547 5.48 5.48 0 0 0 4.557-2.368l-1.867-1.26a3.143 3.143 0 0 1-2.69 1.487 2.786 2.786 0 0 1-2.653-1.626l7.326-2.96-.27-.567zm-7.468 1.789a2.897 2.897 0 0 1 .759-2.15 3.026 3.026 0 0 1 2.1-.974 2.133 2.133 0 0 1 2.034 1.133l-4.893 1.99zm-5.947 5.19h2.407V29.721h-2.407v15.747zm-3.94-9.196h-.09a3.9 3.9 0 0 0-2.884-1.26c-2.922.138-5.219 2.497-5.219 5.36 0 2.863 2.297 5.222 5.22 5.36a3.77 3.77 0 0 0 2.883-1.259h.077v.769c0 2.053-1.12 3.15-2.922 3.15a3.023 3.023 0 0 1-2.755-1.903l-2.099.857c.808 1.923 2.728 3.174 4.854 3.162 2.82 0 5.15-1.625 5.15-5.581V35.39h-2.215v.882zm-2.755 7.407c-1.721-.148-3.042-1.559-3.042-3.25s1.32-3.102 3.042-3.25c.832.041 1.611.41 2.161 1.022.55.612.825 1.415.761 2.228a2.958 2.958 0 0 1-.757 2.24 3.091 3.091 0 0 1-2.178 1.01h.013zm31.387-13.958h-5.754v15.747h2.407v-5.971h3.36c1.87.131 3.659-.77 4.635-2.337a4.811 4.811 0 0 0 0-5.102c-.976-1.567-2.765-2.469-4.635-2.337h-.013zm0 7.558h-3.36v-5.366h3.412c1.525 0 2.761 1.21 2.761 2.702s-1.236 2.702-2.761 2.702l-.052-.038zm14.844-2.267c-1.79-.105-3.475.84-4.287 2.406l2.137.87a2.29 2.29 0 0 1 2.189-1.16 2.353 2.353 0 0 1 1.722.486c.484.382.791.937.853 1.543v.163a5.41 5.41 0 0 0-2.51-.604c-2.305 0-4.635 1.26-4.635 3.54a3.61 3.61 0 0 0 1.247 2.557c.752.653 1.741.98 2.744.907a3.41 3.41 0 0 0 3.09-1.511h.077v1.26h2.317v-6.06c0-2.76-2.137-4.36-4.88-4.36l-.064-.037zm-.296 8.63c-.785 0-1.88-.39-1.88-1.336 0-1.26 1.365-1.675 2.575-1.675a4.349 4.349 0 0 1 2.189.529c-.166 1.41-1.37 2.485-2.82 2.52l-.064-.038zm13.686-8.252l-2.756 6.828h-.077l-2.858-6.828h-2.575l4.287 9.55-2.446 5.303h2.51l6.592-14.853h-2.677zm-21.642 10.078h2.407V29.721h-2.407v15.747zM70.003 20.574a3.373 3.373 0 0 1-.965 2.52 3.79 3.79 0 0 1-2.833 1.121c-1.632-.012-3.097-.981-3.718-2.458a3.906 3.906 0 0 1 .873-4.307 3.906 3.906 0 0 1 2.845-1.134 4.066 4.066 0 0 1 1.584.315c.466.184.88.473 1.21.844l-.682.668a2.6 2.6 0 0 0-2.112-.895 3.02 3.02 0 0 0-2.157.887 2.889 2.889 0 0 0-.842 2.137 2.971 2.971 0 0 0 1.832 2.77 3.088 3.088 0 0 0 3.317-.59c.397-.42.625-.966.644-1.538h-2.794v-.907h3.747c.034.187.051.377.051.567zm5.897-3.15h-3.476v2.394h3.167v.907h-3.167v2.394H75.9v.932h-4.506v-7.559H75.9v.933zm4.223 6.627h-.992v-6.626h-2.163v-.933h5.369v.933h-2.214v6.626zm5.999 0v-7.559h.991v7.56h-.991zm5.394 0h-.991v-6.626h-2.163v-.933h5.304v.933h-2.15v6.626zm12.205-.982a4.08 4.08 0 0 1-5.665 0 4.019 4.019 0 0 1 0-5.607 4.035 4.035 0 0 1 2.833-1.154c1.063 0 2.083.416 2.832 1.154a4.006 4.006 0 0 1 0 5.607zm-4.93-.63a3.02 3.02 0 0 0 4.196 0 3.174 3.174 0 0 0 0-4.334 3.02 3.02 0 0 0-4.197 0 3.174 3.174 0 0 0 0 4.334zm7.466 1.612v-7.559h1.21l3.76 5.884v-5.884h.991v7.56h-1.03l-3.927-6.161v6.16h-1.004z"/>
            <path fill="url(#a)" d="M.754.68A2.485 2.485 0 0 0 .16 2.444v27.867c-.039.64.173 1.272.593 1.764l.09.088 15.95-15.596V16.2L.845.592.754.68z" transform="translate(21.64 16.492)"/>
            <path fill="url(#b)" d="M22.073 21.77l-5.278-5.203V16.2l5.278-5.215.116.063 6.322 3.515c1.802.995 1.802 2.633 0 3.64l-6.296 3.503-.142.063z" transform="translate(21.64 16.492)"/>
            <path fill="url(#c)" d="M22.228 21.694l-5.433-5.316L.754 32.075a2.134 2.134 0 0 0 2.677.076l18.81-10.457" transform="translate(21.64 16.492)"/>
            <path fill="url(#d)" d="M22.228 11.061L3.418.605A2.134 2.134 0 0 0 .742.68l16.054 15.698 5.433-5.317z" transform="translate(21.64 16.492)"/>
            <path fill="#000" d="M43.714 38.073L25.06 48.467a2.188 2.188 0 0 1-2.574 0l-.09.088.09.088a2.175 2.175 0 0 0 2.574 0l18.81-10.456-.155-.114z" opacity=".2"/>
            <path fill="#000" d="M22.394 48.391a2.485 2.485 0 0 1-.592-1.764v.19c-.039.64.173 1.27.592 1.763l.09-.088-.09-.1zm27.757-13.883l-6.437 3.565.116.114 6.321-3.503a2.206 2.206 0 0 0 1.288-1.814 2.351 2.351 0 0 1-1.288 1.638z" opacity=".12"/>
            <path fill="#FFF" d="M25.06 17.273l25.091 13.96c.666.32 1.141.925 1.288 1.637a2.206 2.206 0 0 0-1.288-1.814L25.06 17.097c-1.802-.995-3.27-.164-3.27 1.852v.189c.039-2.028 1.48-2.86 3.27-1.865z" opacity=".25"/>
        </g>
    </g>
</svg>
