<svg xmlns="http://www.w3.org/2000/svg" width="191" height="67" viewBox="0 0 191 67">
    <g fill="none" fill-rule="evenodd">
        <rect width="190" height="66" x=".5" y=".5" stroke="#FFF" rx="8"/>
        <g fill="#FFF" fill-rule="nonzero">
            <path d="M72.849 41.865h-6.094l-1.464 4.228h-2.58l5.771-15.644h2.682l5.772 15.644H74.31l-1.462-4.228zm-5.463-1.951h4.83l-2.381-6.863h-.067l-2.382 6.863zm22.015.477c0 3.544-1.938 5.822-4.864 5.822-1.512.077-2.936-.698-3.667-1.996h-.056v5.65h-2.392v-15.18h2.316v1.897h.044a4.155 4.155 0 0 1 3.711-2.016c2.958 0 4.908 2.288 4.908 5.823zm-2.459 0c0-2.31-1.22-3.828-3.08-3.828-1.828 0-3.058 1.55-3.058 3.828 0 2.298 1.23 3.837 3.058 3.837 1.86 0 3.08-1.507 3.08-3.837zm15.288 0c0 3.544-1.938 5.822-4.864 5.822-1.512.077-2.937-.698-3.667-1.996h-.056v5.65h-2.392v-15.18h2.316v1.897h.044a4.155 4.155 0 0 1 3.711-2.016c2.958 0 4.908 2.288 4.908 5.823zm-2.459 0c0-2.31-1.22-3.828-3.08-3.828-1.828 0-3.058 1.55-3.058 3.828 0 2.298 1.23 3.837 3.058 3.837 1.86 0 3.08-1.507 3.08-3.837zm10.938 1.343c.178 1.552 1.718 2.57 3.822 2.57 2.017 0 3.468-1.018 3.468-2.417 0-1.214-.875-1.941-2.947-2.44l-2.072-.488c-2.936-.694-4.299-2.038-4.299-4.218 0-2.699 2.404-4.553 5.818-4.553 3.378 0 5.694 1.854 5.772 4.553h-2.415c-.145-1.56-1.464-2.503-3.391-2.503-1.928 0-3.247.953-3.247 2.34 0 1.107.843 1.758 2.903 2.256l1.762.423c3.28.76 4.643 2.049 4.643 4.337 0 2.927-2.383 4.76-6.172 4.76-3.545 0-5.94-1.79-6.094-4.62h2.45zm14.98-9.746v2.7h2.217v1.853h-2.217v6.288c0 .977.444 1.432 1.419 1.432.263-.004.525-.022.787-.054v1.843a6.71 6.71 0 0 1-1.33.109c-2.36 0-3.28-.868-3.28-3.08v-6.538h-1.694v-1.854h1.695v-2.699h2.403zm3.5 8.403c0-3.589 2.16-5.844 5.529-5.844 3.38 0 5.53 2.255 5.53 5.844 0 3.599-2.14 5.844-5.53 5.844s-5.528-2.245-5.528-5.844zm8.62 0c0-2.462-1.153-3.915-3.091-3.915-1.939 0-3.09 1.464-3.09 3.915 0 2.472 1.151 3.914 3.09 3.914 1.938 0 3.091-1.442 3.091-3.914zm4.41-5.704h2.283v1.942h.055c.318-1.25 1.488-2.11 2.804-2.061.275-.001.55.028.82.087v2.19a3.413 3.413 0 0 0-1.076-.141 2.438 2.438 0 0 0-1.863.75 2.327 2.327 0 0 0-.63 1.874v6.765h-2.392V34.687zm16.992 8.056c-.321 2.07-2.382 3.492-5.018 3.492-3.391 0-5.496-2.223-5.496-5.79 0-3.578 2.116-5.898 5.395-5.898 3.225 0 5.253 2.168 5.253 5.626v.802h-8.233v.142c-.077.849.223 1.69.823 2.308a3.07 3.07 0 0 0 2.313.923c1.16.106 2.256-.546 2.692-1.605h2.271zm-8.087-3.404h5.827a2.71 2.71 0 0 0-.783-2.059 2.834 2.834 0 0 0-2.076-.836 2.984 2.984 0 0 0-2.1.842 2.857 2.857 0 0 0-.868 2.053zM67.086 18.673a3.439 3.439 0 0 1 2.71 1.03 3.28 3.28 0 0 1 .905 2.705c0 2.402-1.327 3.782-3.615 3.782H64.31v-7.517h2.775zm-1.582 6.454h1.449a2.442 2.442 0 0 0 1.924-.762 2.33 2.33 0 0 0 .609-1.941 2.337 2.337 0 0 0-.619-1.929 2.449 2.449 0 0 0-1.914-.76h-1.449v5.392zm6.544-1.776c-.1-1.017.4-2 1.286-2.54a2.798 2.798 0 0 1 2.896 0 2.67 2.67 0 0 1 1.286 2.54 2.67 2.67 0 0 1-1.284 2.544c-.888.54-2.012.54-2.9 0a2.67 2.67 0 0 1-1.284-2.544zm4.291 0c0-1.23-.564-1.949-1.555-1.949-.994 0-1.554.72-1.554 1.95 0 1.239.56 1.952 1.554 1.952.99 0 1.555-.718 1.555-1.953zm8.445 2.84h-1.187L82.4 22.011h-.09l-1.193 4.178H79.94l-1.598-5.673h1.16l1.039 4.329h.086l1.191-4.329h1.098l1.192 4.329h.09l1.034-4.329h1.144l-1.592 5.673zm2.936-5.674h1.101v.901h.086a1.74 1.74 0 0 1 1.73-1.01 1.908 1.908 0 0 1 1.521.583c.39.41.57.972.485 1.527v3.672H91.5V22.8c0-.912-.405-1.365-1.25-1.365a1.345 1.345 0 0 0-1.03.407 1.284 1.284 0 0 0-.355 1.03v3.32H87.72v-5.674zm6.746-2.214h1.144v7.887h-1.144v-7.887zm2.735 5.048a2.67 2.67 0 0 1 1.286-2.54 2.798 2.798 0 0 1 2.896 0 2.67 2.67 0 0 1 1.286 2.54 2.67 2.67 0 0 1-1.284 2.544c-.888.54-2.012.54-2.9 0a2.67 2.67 0 0 1-1.284-2.544zm4.29 0c0-1.23-.564-1.949-1.554-1.949-.995 0-1.554.72-1.554 1.95 0 1.239.56 1.952 1.554 1.952.99 0 1.555-.718 1.555-1.953zm2.383 1.235c0-1.021.777-1.61 2.156-1.694l1.57-.088v-.49c0-.6-.405-.937-1.187-.937-.638 0-1.08.23-1.208.63h-1.108c.117-.974 1.054-1.6 2.37-1.6 1.452 0 2.272.709 2.272 1.907v3.876h-1.101v-.797h-.09a1.963 1.963 0 0 1-1.742.89 1.776 1.776 0 0 1-1.351-.429 1.698 1.698 0 0 1-.581-1.268zm3.726-.485v-.474l-1.416.088c-.798.053-1.16.318-1.16.819 0 .51.453.807 1.075.807.368.037.736-.075 1.02-.308.282-.234.456-.57.481-.932zm2.643-.75c0-1.792.942-2.928 2.406-2.928a1.918 1.918 0 0 1 1.778.995h.086v-3.115h1.144v7.887h-1.097v-.896h-.09a2.022 2.022 0 0 1-1.82.99c-1.475 0-2.407-1.136-2.407-2.933zm1.182 0c0 1.203.58 1.928 1.549 1.928.964 0 1.56-.735 1.56-1.923 0-1.182-.602-1.927-1.56-1.927-.963 0-1.55.729-1.55 1.922zm8.965 0c-.1-1.017.399-2 1.286-2.54a2.798 2.798 0 0 1 2.896 0 2.67 2.67 0 0 1 1.286 2.54 2.67 2.67 0 0 1-1.284 2.544c-.888.54-2.012.54-2.9 0a2.67 2.67 0 0 1-1.284-2.544zm4.291 0c0-1.23-.564-1.949-1.555-1.949-.995 0-1.554.72-1.554 1.95 0 1.239.56 1.952 1.554 1.952.99 0 1.555-.718 1.555-1.953zm2.712-2.834h1.101v.901h.086a1.74 1.74 0 0 1 1.73-1.01 1.908 1.908 0 0 1 1.521.583c.39.41.57.972.485 1.527v3.672h-1.144V22.8c0-.912-.405-1.365-1.25-1.365a1.345 1.345 0 0 0-1.03.407 1.284 1.284 0 0 0-.355 1.03v3.32h-1.144v-5.674zm11.388-1.412v1.438h1.256v.943h-1.256v2.917c0 .594.25.855.82.855.146 0 .291-.01.436-.026v.932a3.833 3.833 0 0 1-.622.058c-1.272 0-1.78-.438-1.78-1.532v-3.204h-.92v-.943h.92v-1.438h1.146zm2.819-.802h1.134v3.126h.09a1.79 1.79 0 0 1 1.768-1.016c.568-.03 1.12.189 1.507.598.386.409.565.965.49 1.517v3.662h-1.146v-3.386c0-.906-.43-1.365-1.24-1.365-.397-.032-.79.11-1.07.387a1.309 1.309 0 0 0-.389 1.05v3.314H141.6v-7.887zm11.66 6.355c-.321 1.07-1.38 1.762-2.512 1.642a2.66 2.66 0 0 1-2.032-.858 2.54 2.54 0 0 1-.646-2.07 2.579 2.579 0 0 1 .645-2.08 2.7 2.7 0 0 1 2.028-.884c1.613 0 2.586 1.078 2.586 2.86v.39h-4.094v.063c-.036.42.11.837.405 1.147.294.31.707.483 1.14.478a1.398 1.398 0 0 0 1.378-.688h1.102zm-4.025-1.828h2.928c.03-.385-.109-.764-.38-1.044a1.414 1.414 0 0 0-1.047-.425 1.5 1.5 0 0 0-1.067.425c-.283.276-.439.653-.434 1.044zM50.276 33.249c.028-2.137 1.173-4.112 3.034-5.231A6.56 6.56 0 0 0 48.17 25.3c-2.162-.222-4.258 1.266-5.36 1.266-1.122 0-2.818-1.244-4.645-1.207-2.403.075-4.59 1.38-5.758 3.436-2.49 4.219-.633 10.418 1.752 13.828 1.193 1.67 2.588 3.535 4.413 3.469 1.786-.073 2.453-1.114 4.608-1.114 2.136 0 2.761 1.114 4.623 1.072 1.916-.03 3.124-1.677 4.275-3.363a13.691 13.691 0 0 0 1.955-3.896c-2.276-.942-3.756-3.124-3.758-5.542zm-3.517-10.192a6.052 6.052 0 0 0 1.435-4.397 6.43 6.43 0 0 0-4.13 2.09 5.763 5.763 0 0 0-1.472 4.235 5.323 5.323 0 0 0 4.167-1.928z"/>
        </g>
    </g>
</svg>
