<svg xmlns="http://www.w3.org/2000/svg" xmlns:xlink="http://www.w3.org/1999/xlink" width="109" height="19" viewBox="0 0 109 19">
    <defs>
        <path id="a" d="M.594.057h17.323V18H.594z"/>
        <path id="c" d="M.404.057h17.323V18H.404z"/>
        <path id="e" d="M.49.465H9.01v9.916H.49z"/>
        <path id="g" d="M.022.057h3.457v3.576H.022z"/>
    </defs>
    <g fill="none" fill-rule="evenodd">
        <path fill="#FFF" d="M15.75 0l-4.74 13.153h-.02L6.166 0H3v17h2.288V4.314h.062L9.988 17h1.983L16.63 4.267h.04V17H19V0z"/>
        <g transform="translate(21)">
            <mask id="b" fill="#fff">
                <use xlink:href="#a"/>
            </mask>
            <path fill="#FFF" d="M9.255 15.437c1.621 0 3.127-.743 4.192-1.869 1.042-1.15 1.69-2.803 1.69-4.527 0-1.175-.254-2.252-.764-3.235a6.188 6.188 0 0 0-2.153-2.323 5.434 5.434 0 0 0-2.965-.863C5.99 2.548 3.303 5.543 3.373 9.04c-.07 3.45 2.617 6.469 5.882 6.397M1.288 5.543a8.323 8.323 0 0 1 1.853-2.875c.765-.814 1.69-1.437 2.78-1.892A7.99 7.99 0 0 1 9.278.057c1.576 0 3.034.407 4.354 1.174 1.321.766 2.362 1.845 3.127 3.234.764 1.365 1.158 2.898 1.158 4.552 0 1.27-.231 2.443-.695 3.569-.463 1.126-1.088 2.084-1.853 2.85a8.696 8.696 0 0 1-2.78 1.87A8.641 8.641 0 0 1 9.21 18a8.452 8.452 0 0 1-3.358-.695 8.235 8.235 0 0 1-2.756-1.82c-.765-.791-1.367-1.725-1.83-2.851a9.35 9.35 0 0 1-.671-3.546c0-1.245.23-2.443.694-3.545" mask="url(#b)"/>
        </g>
        <path fill="#FFF" d="M41.833 16.49c-.996-.981-1.506-2.299-1.506-3.976V10.67h2.595v1.701c0 .958.277 1.701.833 2.228.555.551 1.204.815 1.945.815.81 0 1.482-.264 2.016-.815.532-.55.787-1.245.787-2.084V.321h2.663v12.193c0 1.557-.486 2.875-1.505 3.905-.996 1.03-2.27 1.557-3.821 1.557-1.668 0-3.012-.478-4.007-1.485"/>
        <g transform="translate(53.795)">
            <mask id="d" fill="#fff">
                <use xlink:href="#c"/>
            </mask>
            <path fill="#FFF" d="M9.065 15.437c1.621 0 3.126-.743 4.193-1.869 1.042-1.15 1.69-2.803 1.69-4.527 0-1.175-.256-2.252-.765-3.235a6.204 6.204 0 0 0-2.153-2.323 5.436 5.436 0 0 0-2.965-.863C5.8 2.548 3.112 5.543 3.183 9.04c-.07 3.45 2.617 6.469 5.882 6.397M1.1 5.543A8.321 8.321 0 0 1 2.95 2.668c.764-.814 1.691-1.437 2.78-1.892A7.99 7.99 0 0 1 9.088.057c1.575 0 3.034.407 4.354 1.174 1.32.766 2.363 1.845 3.127 3.234.765 1.365 1.158 2.898 1.158 4.552a9.208 9.208 0 0 1-.696 3.569c-.462 1.126-1.088 2.084-1.851 2.85a8.711 8.711 0 0 1-2.78 1.87A8.644 8.644 0 0 1 9.02 18a8.45 8.45 0 0 1-3.36-.695 8.241 8.241 0 0 1-2.755-1.82c-.764-.791-1.366-1.725-1.83-2.851a9.35 9.35 0 0 1-.671-3.546 9.1 9.1 0 0 1 .695-3.545" mask="url(#d)"/>
        </g>
        <path fill="#FD344F" d="M82.435 17.997h-5.563l2.565-9.917h.999l-2.302 8.951h4.55zM84.958 17.997h-1.013L86.51 8.08h1zM96.806 8.08h1.144l-6.378 9.917h-1.131l-1.29-9.917h1.053l1.052 8.734z"/>
        <g transform="translate(96.63 7.615)">
            <mask id="f" fill="#fff">
                <use xlink:href="#e"/>
            </mask>
            <path fill="#FD344F" d="M6.5 10.382H.49L3.053.465h5.958l-.25.952H3.815l-.894 3.441h4.524l-.25.966H2.672L1.739 9.43h4.998z" mask="url(#f)"/>
        </g>
        <g transform="translate(73.205)">
            <mask id="h" fill="#fff">
                <use xlink:href="#g"/>
            </mask>
            <path fill="#FD344F" d="M3.479 1.845c0 .987-.774 1.788-1.73 1.788-.953 0-1.727-.8-1.727-1.788C.022.858.796.057 1.75.057c.955 0 1.729.8 1.729 1.788" mask="url(#h)"/>
        </g>
    </g>
</svg>
