<svg xmlns="http://www.w3.org/2000/svg" width="85" height="85" viewBox="0 0 85 85">
    <g fill="none" fill-rule="evenodd">
        <path fill="#000" d="M72.157 53.355c-2.297 2.162-6.108 3.044-13.153 3.044h-32.11c-14.206 0-16.498-4.71-16.498-15.976V28.59c0-5.775 0-9.947 1.966-12.404 2.031-2.538 6.241-3.573 14.532-3.573h32.11c8.12 0 12.265.974 14.306 3.36 2.04 2.385 2.193 6.544 2.193 12.617v11.834c0 6.857-1 10.724-3.346 12.932M76.67 13.19c-2.976-3.48-8.095-4.899-17.667-4.899h-32.11c-9.806 0-15.016 1.512-17.984 5.22-2.908 3.634-2.908 8.434-2.908 15.078v11.834c0 5.48.48 11.09 3.966 15.003 3.216 3.612 8.594 5.295 16.926 5.295h32.11c8.298 0 12.988-1.23 16.19-4.244 3.296-3.102 4.702-7.903 4.702-16.054V28.59c0-7.025-.224-11.892-3.225-15.399"/>
        <path fill="#E84955" d="M37.22 26.699L51.8 34.146a.041.041 0 0 1 .024.039.044.044 0 0 1-.024.04L37.22 41.72a.07.07 0 0 1-.044 0 .05.05 0 0 1-.022-.04V26.739c0-.014.01-.03.022-.038l.044-.001zm16.606 3.612l-14.58-7.447a4.53 4.53 0 0 0-4.351.143 4.376 4.376 0 0 0-2.135 3.731v14.943c0 1.517.82 2.948 2.14 3.734a4.49 4.49 0 0 0 2.299.632c.713 0 1.424-.172 2.056-.497l14.58-7.495a4.345 4.345 0 0 0 2.384-3.875 4.343 4.343 0 0 0-2.393-3.87z"/>
        <path fill="#000" d="M77.89 71.193H8.008c-1.107 0-2.008.886-2.008 1.975 0 1.09.901 1.975 2.008 1.975H77.89c1.107 0 2.009-.886 2.009-1.975s-.902-1.975-2.009-1.975"/>
        <path fill="#FD344F" d="M68.767 69.453c-2.083 0-3.778 1.667-3.778 3.715 0 2.049 1.695 3.715 3.778 3.715 2.082 0 3.777-1.666 3.777-3.715 0-2.048-1.695-3.715-3.777-3.715"/>
    </g>
</svg>
