<svg xmlns="http://www.w3.org/2000/svg" width="85" height="85" viewBox="0 0 85 85">
    <g fill="none" fill-rule="evenodd">
        <path fill="#000" d="M32.085 23.572c0-5.662 4.758-10.27 10.606-10.27s10.606 4.608 10.606 10.27v9.351H32.085v-9.35zm12.467 47.001H23.606a5.309 5.309 0 0 1-5.303-5.302V43.529a5.309 5.309 0 0 1 5.303-5.303h38.18a5.309 5.309 0 0 1 5.303 5.303v5.303a2.651 2.651 0 1 0 5.303 0v-5.303c0-5.848-4.758-10.606-10.606-10.606h-3.187v-9.35C58.6 14.985 51.463 8 42.691 8c-8.772 0-15.909 6.986-15.909 15.572v9.351h-3.176C17.758 32.923 13 37.681 13 43.53V65.27c0 5.847 4.758 10.605 10.606 10.605h20.946a2.651 2.651 0 0 0 0-5.303z"/>
        <path fill="#FD344F" d="M79.768 51.183a2.651 2.651 0 0 0-3.699.613L63 70.05a1.499 1.499 0 0 1-1.044.519 1.5 1.5 0 0 1-1.135-.406l-8.446-8.242a2.652 2.652 0 0 0-3.704 3.795l8.46 8.257.025.023a6.835 6.835 0 0 0 5.153 1.864 6.835 6.835 0 0 0 4.86-2.532c.031-.038.06-.077.09-.117l13.122-18.33a2.651 2.651 0 0 0-.613-3.699"/>
        <path fill="#000" d="M57.809 51.218a2.651 2.651 0 1 1 0 5.302 2.651 2.651 0 0 1 0-5.302M47.734 51.218a2.651 2.651 0 1 1 0 5.302 2.651 2.651 0 0 1 0-5.302M27.848 51.218a2.651 2.651 0 1 1 0 5.302 2.651 2.651 0 0 1 0-5.302M37.79 51.218a2.651 2.651 0 1 1 .001 5.302 2.651 2.651 0 0 1 0-5.302"/>
    </g>
</svg>
