<svg xmlns="http://www.w3.org/2000/svg" width="85" height="85" viewBox="0 0 85 85">
    <g fill="none" fill-rule="evenodd">
        <path fill="#8C8C8C" d="M33.743 25.84l-28.4 28.163 5.753 5.704c2.698-1.364 6.091-.928 8.347 1.308a7.093 7.093 0 0 1 1.318 8.277l5.752 5.704 28.4-28.163-.26-.257a2.181 2.181 0 0 1 0-3.104 2.226 2.226 0 0 1 3.131 0l.259.256 8.517-8.446-5.752-5.704c-2.698 1.364-6.091.928-8.346-1.308a7.092 7.092 0 0 1-1.319-8.277l-5.752-5.704-8.517 8.446.042.042a2.182 2.182 0 0 1 0 3.104 2.227 2.227 0 0 1-3.13 0l-.043-.041zm7.638 7.573l-1.919-1.902a2.181 2.181 0 0 1 0-3.104 2.226 2.226 0 0 1 3.13 0l1.92 1.902a2.182 2.182 0 0 1 0 3.104 2.226 2.226 0 0 1-3.131 0zm7.595 7.533l-1.918-1.903a2.182 2.182 0 0 1 0-3.104 2.226 2.226 0 0 1 3.13 0l1.919 1.903a2.182 2.182 0 0 1 0 3.104 2.227 2.227 0 0 1-3.13 0zm22.28-7.216a2.182 2.182 0 0 1 0 3.104L28.078 79.653a2.226 2.226 0 0 1-3.13 0l-8.636-8.564a2.183 2.183 0 0 1 0-3.104 2.72 2.72 0 0 0 0-3.866 2.776 2.776 0 0 0-3.898 0 2.226 2.226 0 0 1-3.13 0L.648 55.555a2.182 2.182 0 0 1 0-3.104L43.826 9.632a2.227 2.227 0 0 1 3.13 0l8.636 8.564a2.182 2.182 0 0 1 0 3.104 2.72 2.72 0 0 0 0 3.866 2.776 2.776 0 0 0 3.898 0 2.227 2.227 0 0 1 3.13 0l8.636 8.564z"/>
        <path fill="#A9A9A9" d="M84.28 30.033l-8.635-8.564c-.872-.864-2.27-.838-3.15.019-1.396 1.359-3.9.944-4.62-1.245-.309-.936.02-1.935.728-2.626a2.183 2.183 0 0 0 .013-3.118l-8.635-8.563a2.226 2.226 0 0 0-3.13 0l-2.675 2.652-.002.002a2.183 2.183 0 0 0 0 3.105 2.228 2.228 0 0 0 3.132 0l.023-.026 1.087-1.077 5.752 5.704a7.092 7.092 0 0 0 1.318 8.278c2.255 2.236 5.648 2.672 8.347 1.307l5.752 5.704L39.537 71.3l-1.504 1.518-.095.094c-.838.831-.804 2.213.034 3.044a2.226 2.226 0 0 0 3.13 0L84.28 33.138a2.182 2.182 0 0 0 0-3.105"/>
    </g>
</svg>
