<svg xmlns="http://www.w3.org/2000/svg" width="85" height="85" viewBox="0 0 85 85">
    <g fill="none" fill-rule="evenodd">
        <path fill="#F9D4D4" d="M33.432 22.426l1.918 1.903"/>
        <path fill="#000" d="M33.785 25.881l-1.918-1.902c-.865-.858-.194-1.582.67-2.44.865-.857 1.595-1.522 2.46-.665l1.919 1.903a2.182 2.182 0 0 1 0 3.104 2.227 2.227 0 0 1-3.13 0"/>
        <path fill="#F9D4D4" d="M41.028 29.959l1.918 1.902"/>
        <path fill="#000" d="M41.38 33.413l-1.918-1.902a2.181 2.181 0 0 1 0-3.104 2.226 2.226 0 0 1 3.13 0l1.92 1.902a2.182 2.182 0 0 1 0 3.104 2.226 2.226 0 0 1-3.131 0"/>
        <path fill="#F9D4D4" d="M48.623 37.491l1.919 1.903"/>
        <path fill="#000" d="M48.976 40.946l-1.918-1.903a2.182 2.182 0 0 1 0-3.104 2.226 2.226 0 0 1 3.13 0l1.919 1.903a2.182 2.182 0 0 1 0 3.104 2.227 2.227 0 0 1-3.13 0"/>
        <path fill="#F9D4D4" d="M56.219 45.024l1.918 1.902"/>
        <path fill="#000" d="M56.572 48.478l-1.918-1.902a2.181 2.181 0 0 1 0-3.104 2.226 2.226 0 0 1 3.13 0l1.918 1.902c.865.857.006 1.396-.858 2.253-.865.857-1.407 1.709-2.272.851"/>
        <path fill="#FD344F" d="M84.28 30.033l-8.635-8.564c-.872-.864-2.27-.838-3.15.019-1.396 1.359-3.9.944-4.62-1.245-.309-.936.02-1.935.728-2.626a2.183 2.183 0 0 0 .013-3.118l-8.635-8.563a2.226 2.226 0 0 0-3.13 0l-2.675 2.652-.002.002a2.183 2.183 0 0 0 0 3.105 2.228 2.228 0 0 0 3.132 0l.023-.026 1.087-1.077 5.752 5.704a7.092 7.092 0 0 0 1.318 8.278c2.255 2.236 5.648 2.672 8.347 1.307l5.752 5.704L39.537 71.3l-1.504 1.518-.095.094c-.838.831-.804 2.213.034 3.044a2.226 2.226 0 0 0 3.13 0L84.28 33.138a2.182 2.182 0 0 0 0-3.105"/>
        <path fill="#000" d="M26.513 74.996l-5.752-5.704a7.093 7.093 0 0 0-1.318-8.277c-2.256-2.236-5.649-2.672-8.347-1.308l-5.752-5.704L45.39 14.289l5.752 5.704a7.092 7.092 0 0 0 1.319 8.277c2.255 2.236 5.648 2.672 8.346 1.308l5.752 5.704-40.047 39.714zM71.256 33.73l-8.635-8.564a2.227 2.227 0 0 0-3.131 0 2.776 2.776 0 0 1-3.898 0 2.72 2.72 0 0 1 0-3.866 2.182 2.182 0 0 0 0-3.104l-8.635-8.564a2.227 2.227 0 0 0-3.13 0L.647 52.451a2.182 2.182 0 0 0 0 3.104l8.636 8.564a2.226 2.226 0 0 0 3.13 0 2.776 2.776 0 0 1 3.898 0 2.72 2.72 0 0 1 0 3.866 2.183 2.183 0 0 0 0 3.104l8.636 8.564a2.226 2.226 0 0 0 3.13 0l43.178-42.82a2.182 2.182 0 0 0 0-3.103z"/>
    </g>
</svg>
