<svg xmlns="http://www.w3.org/2000/svg" width="85" height="85" viewBox="0 0 85 85">
    <g fill="none" fill-rule="evenodd">
        <path fill="#8C8C8C" d="M32.085 23.572v9.351h21.212v-9.35c0-5.663-4.758-10.27-10.606-10.27s-10.606 4.607-10.606 10.27zm12.467 47.001a2.651 2.651 0 1 1 0 5.303H23.606C17.758 75.876 13 71.118 13 65.27V43.529c0-5.848 4.758-10.606 10.606-10.606h3.176v-9.35C26.782 14.985 33.92 8 42.691 8c8.772 0 15.908 6.986 15.908 15.572v9.351h3.187c5.848 0 10.606 4.758 10.606 10.606v5.303a2.651 2.651 0 1 1-5.303 0v-5.303a5.309 5.309 0 0 0-5.303-5.303h-38.18a5.309 5.309 0 0 0-5.303 5.303V65.27a5.309 5.309 0 0 0 5.303 5.302h20.946zm13.257-19.355a2.651 2.651 0 1 1 0 5.302 2.651 2.651 0 0 1 0-5.302zm-10.075 0a2.651 2.651 0 1 1 0 5.302 2.651 2.651 0 0 1 0-5.302zm-19.886 0a2.651 2.651 0 1 1 0 5.302 2.651 2.651 0 0 1 0-5.302zm9.943 0a2.651 2.651 0 1 1 0 5.302 2.651 2.651 0 0 1 0-5.302z"/>
        <path fill="#A9A9A9" d="M79.768 51.183a2.651 2.651 0 0 0-3.699.613L63 70.05a1.499 1.499 0 0 1-1.044.519 1.5 1.5 0 0 1-1.135-.406l-8.446-8.242a2.652 2.652 0 0 0-3.704 3.795l8.46 8.257.025.023a6.835 6.835 0 0 0 5.153 1.864 6.835 6.835 0 0 0 4.86-2.532c.031-.038.06-.077.09-.117l13.122-18.33a2.651 2.651 0 0 0-.613-3.699"/>
    </g>
</svg>
