<svg xmlns="http://www.w3.org/2000/svg" width="47" height="47" viewBox="0 0 47 47">
    <path fill="#AFAFAF" fill-rule="nonzero" d="M29.727 8c5.083 0 9.219 4.136 9.219 9.219v12.508c0 5.083-4.136 9.219-9.22 9.219H17.22C12.136 38.946 8 34.81 8 29.726V17.22C8 12.136 12.136 8 17.219 8h12.508zm-6.254 7.47c-4.413 0-8.004 3.59-8.004 8.003s3.59 8.003 8.004 8.003c4.413 0 8.004-3.59 8.004-8.003s-3.59-8.004-8.004-8.004zm0 12.893a4.89 4.89 0 1 1 0-9.78 4.89 4.89 0 0 1 0 9.78zm8.019-10.916a1.918 1.918 0 1 0 0-3.836 1.918 1.918 0 0 0 0 3.836z"/>
</svg>
