<svg xmlns="http://www.w3.org/2000/svg" width="47" height="47" viewBox="0 0 47 47">
    <path fill="#AFAFAF" fill-rule="nonzero" d="M42.638 15.841c.011.128.286 3.18.286 6.243v2.863c0 3.064-.275 6.115-.286 6.243l-.005.04c-.038.3-.411 2.981-1.701 4.36-1.55 1.675-3.296 1.857-4.135 1.945l-.218.024-.068.007c-5.146.368-12.917.418-12.995.419h-.024c-.395-.006-9.71-.143-12.681-.42l-.09-.013c-.093-.016-.23-.031-.388-.05-1.001-.112-2.863-.322-4.335-1.906-1.349-1.394-1.677-4.083-1.71-4.386l-.002-.02A78.17 78.17 0 0 1 4 24.947v-2.863c0-3.064.275-6.115.286-6.243l.005-.04c.038-.3.411-2.982 1.701-4.36 1.57-1.699 3.327-1.898 4.17-1.994l.183-.021.069-.007C15.606 9.05 23.377 9 23.455 9h.014c.078 0 7.849.05 12.995.419l.068.007c.058.007.122.015.193.022.854.096 2.63.295 4.195 1.934 1.355 1.394 1.683 4.133 1.716 4.441l.002.018zm-13.185 5.94l-8.599-4.627a1.59 1.59 0 0 0-1.563.027 1.534 1.534 0 0 0-.775 1.336v9.172c0 .552.288 1.05.77 1.333a1.596 1.596 0 0 0 1.558.035l8.6-4.547c.51-.27.829-.791.831-1.362a1.548 1.548 0 0 0-.822-1.368z"/>
</svg>
