<svg xmlns="http://www.w3.org/2000/svg" width="47" height="47" viewBox="0 0 47 47">
    <path fill="#AFAFAF" fill-rule="evenodd" d="M38.444 14.017c-.687.308-1.4.55-2.133.725a6.711 6.711 0 0 0 1.756-2.818c.097-.308-.234-.574-.51-.409a12.255 12.255 0 0 1-3.261 1.358.86.86 0 0 1-.775-.194A6.64 6.64 0 0 0 29.108 11a7.08 7.08 0 0 0-2.113.329 6.492 6.492 0 0 0-4.355 4.692 7.227 7.227 0 0 0-.158 2.476.246.246 0 0 1-.268.272c-4.734-.444-9.003-2.743-12.02-6.473a.347.347 0 0 0-.572.045 6.758 6.758 0 0 0-.903 3.38c0 1.822.727 3.539 1.989 4.791a5.949 5.949 0 0 1-1.522-.594.349.349 0 0 0-.518.303 6.735 6.735 0 0 0 3.896 6.202 5.924 5.924 0 0 1-1.266-.107.35.35 0 0 0-.398.453 6.7 6.7 0 0 0 5.28 4.582 12.239 12.239 0 0 1-6.893 2.11h-.772a.511.511 0 0 0-.499.388c-.06.228.05.47.253.588a18.196 18.196 0 0 0 9.199 2.5c2.827 0 5.472-.565 7.86-1.68a17.37 17.37 0 0 0 5.752-4.345 19.077 19.077 0 0 0 3.522-5.945c.783-2.108 1.197-4.358 1.197-6.507v-.102c0-.345.155-.67.425-.89a13.25 13.25 0 0 0 2.652-2.934c.194-.293-.112-.66-.432-.517z"/>
</svg>
