<?xml version="1.0" encoding="UTF-8"?>
<svg width="260px" height="33px" viewBox="0 0 260 33" version="1.1" xmlns="http://www.w3.org/2000/svg" xmlns:xlink="http://www.w3.org/1999/xlink">
    <!-- Generator: sketchtool 51.1 (57501) - http://www.bohemiancoding.com/sketch -->
    <title>00DCFE56-061F-41F9-BF6E-8E95E83647CD</title>
    <desc>Created with sketchtool.</desc>
    <defs></defs>
    <g id="01_멤버쉽" stroke="none" stroke-width="1" fill="none" fill-rule="evenodd">
        <g id="01_로그인_01" transform="translate(-50.000000, -90.000000)" fill-rule="nonzero">
            <g id="img_logo" transform="translate(50.000000, 90.000000)">
                <path d="M135.821438,31.5714286 L132.544813,31.5714286 C132.032892,31.5714286 131.617897,31.155693 131.617897,30.6428571 C131.617897,30.5883013 131.622697,30.5338516 131.63224,30.4801399 L135.928826,6.29727359 C136.018532,5.79237295 135.68268,5.31021911 135.17868,5.22035289 C135.125063,5.21079283 135.070711,5.20598492 135.016252,5.20598492 L128.121511,5.20598492 C127.609589,5.20598492 127.194594,4.79024933 127.194594,4.2774135 C127.194594,4.22576931 127.198895,4.17421512 127.207452,4.12328729 L127.664833,1.40104957 C127.739949,0.953979669 128.126342,0.626604355 128.578892,0.626604355 L150.018324,0.62660435 C150.530246,0.62660435 150.94524,1.04233994 150.94524,1.55517578 C150.94524,1.60383017 150.941423,1.65240931 150.933824,1.70046445 L150.503347,4.42270218 C150.43201,4.87382336 150.04378,5.20598492 149.587848,5.20598492 L142.058813,5.20598492 C141.609549,5.20598492 141.224965,5.52873769 141.146238,5.97183916 L136.734012,30.8055743 C136.655285,31.2486758 136.270701,31.5714286 135.821438,31.5714286 Z M152.897586,31.5714286 L149.596925,31.5714286 C149.085003,31.5714286 148.670009,31.155693 148.670009,30.6428571 C148.670009,30.5887705 148.674726,30.5347873 148.684106,30.4815232 L153.810819,1.37117168 C153.888967,0.927429235 154.273845,0.603934152 154.723637,0.603934152 L165.011907,0.603934152 C171.099321,0.603934152 174.35801,3.89111328 174.35801,8.87855749 C174.35801,9.39997212 174.33538,10.0800781 174.244861,10.6241629 C173.724376,14.9995117 170.827763,17.9239677 167.139107,19.0574777 L170.896311,30.3492171 C171.058195,30.8357359 170.795729,31.3616044 170.310077,31.5237773 C170.215563,31.5553384 170.116588,31.5714286 170.016961,31.5714286 L166.5477,31.5714286 C166.144971,31.5714286 165.788322,31.3109139 165.665179,30.9267884 L162.300878,20.4324131 C162.176987,20.0459577 161.816898,19.7848974 161.411736,19.7877966 L156.52748,19.8227464 C156.080596,19.8259441 155.699615,20.14812 155.621467,20.5889153 L153.81022,30.805236 C153.731634,31.2484943 153.346979,31.5714286 152.897586,31.5714286 Z M163.744639,5.00195312 L159.155557,5.00195312 C158.707326,5.00195312 158.323314,5.32326052 158.243467,5.76510986 L156.678172,14.4269402 C156.586979,14.9315734 156.921409,15.4147181 157.425142,15.5060742 C157.479629,15.5159557 157.53489,15.5209263 157.590262,15.5209263 L161.730587,15.5209263 C166.686511,15.5209263 168.542154,13.2539062 168.926861,10.510812 C168.99475,10.1254185 169.040009,9.60400392 169.040009,9.19594028 C169.040009,6.58886716 167.365405,5.00195312 163.744639,5.00195312 Z M185.473719,1.71521627 L182.405164,19.2841797 C182.314644,19.6695731 182.224126,20.5763811 182.224126,21.3018276 C182.224126,24.9063895 184.622883,27.332101 188.628356,27.332101 C192.113344,27.332101 194.919438,25.4051339 195.688851,21.0751255 L199.173915,1.3929942 C199.252417,0.949644456 199.637115,0.626604355 200.086583,0.626604355 L203.455594,0.626604355 C203.967516,0.62660435 204.382511,1.04233994 204.382511,1.55517578 C204.382511,1.60908795 204.377824,1.66289771 204.368504,1.71599518 L200.803183,22.027274 C199.581175,28.8736747 194.71577,32.1608538 188.424688,32.1608538 C181.975198,32.1608538 176.906124,28.6243025 176.906124,22.0726144 C176.906124,21.007115 177.064533,19.9189453 177.200312,19.1708287 L180.302236,1.39527108 C180.379787,0.950867185 180.764966,0.626604355 181.215305,0.626604355 L184.560674,0.626604355 C185.072595,0.62660435 185.48759,1.04233994 185.48759,1.55517578 C185.48759,1.60882385 185.482949,1.66237101 185.473719,1.71521627 Z M211.79221,12.6871512 L211.000167,16.609096 C210.864388,17.3572126 210.70598,19.0574777 210.70598,19.9416155 C210.70598,24.4983259 213.285776,27.4001116 217.789104,27.4001116 C220.87845,27.4001116 223.220899,25.9036518 224.154349,23.4792623 C224.177523,23.4190744 224.211092,23.3149951 224.255057,23.1670246 L224.255048,23.1670218 C224.372036,22.7732838 224.733377,22.5033482 225.143455,22.5033482 L228.588315,22.5033526 C228.974203,22.5033526 229.287028,22.816736 229.287028,23.203314 C229.287028,23.265528 229.278749,23.3274643 229.262408,23.3874861 C229.262408,23.3874861 229.262408,23.3874861 229.262408,23.3874861 C228.379846,28.4429409 223.831258,32.183524 217.381768,32.183524 C210.004456,32.183524 205.478498,27.5814732 205.478498,19.9416155 C205.478498,19.0574777 205.546387,17.629255 205.682166,16.8131278 L206.632617,11.8030134 C207.990405,4.52587891 212.720031,0.0145089286 219.780526,0.0145089286 C226.592093,0.0145089286 231.253829,4.4125279 231.253829,9.6493443 C231.253829,9.76309379 231.241171,9.94561272 231.215853,10.196901 L231.215855,10.1969012 C231.168067,10.6712196 230.769501,11.0322266 230.293623,11.0322266 L227.136146,11.0322164 C226.639771,11.0322164 226.231501,10.6404854 226.210102,10.1436867 C226.209408,10.1275788 226.208503,10.1139327 226.207387,10.1027483 C225.935829,6.9969308 223.265513,4.72991071 219.690007,4.72991071 C215.616644,4.72991071 212.85581,7.33698383 211.79221,12.6871512 Z M241.856991,1.72560317 L239.649632,13.5691778 C239.602654,13.8212399 239.768543,14.063728 240.020155,14.1107902 C240.164653,14.1378174 240.313382,14.0945715 240.42098,13.9942424 L254.49023,0.875473876 C254.661766,0.715526101 254.887411,0.626604355 255.121755,0.626604355 L258.851677,0.626604355 C259.363598,0.626604355 259.778593,1.04233994 259.778593,1.55517578 C259.778593,1.80637007 259.677005,2.04684787 259.497012,2.22173358 L247.357773,14.0164726 C247.062332,14.3035296 246.991222,14.75137 247.18317,15.1160937 L255.126753,30.2097939 C255.3655,30.6634417 255.191945,31.2250849 254.739106,31.4642591 C254.605843,31.5346438 254.457465,31.5714286 254.306815,31.5714286 L250.548136,31.5714286 C250.200691,31.5714286 249.882423,31.3767755 249.723655,31.0671756 L243.336587,18.6122861 C243.102661,18.1561247 242.543893,17.9763067 242.088544,18.2106513 C242.01716,18.2473895 241.95084,18.2932594 241.891249,18.3471102 L238.630992,21.2933151 C238.47852,21.4310998 238.376035,21.6157038 238.339623,21.8181508 L236.722805,30.8075158 C236.643271,31.2497164 236.259098,31.5714286 235.810578,31.5714286 L232.530722,31.5714286 C232.0188,31.5714286 231.603806,31.155693 231.603806,30.6428571 C231.603806,30.5887316 231.60853,30.5347097 231.617924,30.4814086 L236.744396,1.39372725 C236.822593,0.950037897 237.207446,0.626604355 237.657195,0.626604355 L240.94582,0.626604355 C241.457742,0.62660435 241.872737,1.04233994 241.872737,1.55517578 C241.872737,1.61234938 241.867465,1.6694008 241.856991,1.72560317 Z" id="TRUCK" fill="#9B9B9B"></path>
                <path d="M0.195283114,30.4791508 L5.21963088,2.37644852 C5.41747582,1.26984185 6.37841316,0.464285714 7.50062488,0.464285714 L20.0961592,0.464285714 C25.9799047,0.464285714 28.8991477,3.43770927 28.8991477,7.60902624 C28.8991477,12.211077 25.2557514,15.0493862 22.2459893,15.3214286 C25.1426025,15.5027902 27.8355476,18.3773716 27.8355476,22.2313058 C27.8355476,28.7149832 21.951802,31.5714286 14.8913074,31.5714286 L1.10768072,31.5714286 C0.595759022,31.5714286 0.180764494,31.155693 0.180764494,30.6428571 C0.180764494,30.5879658 0.185623059,30.5331825 0.195283114,30.4791508 Z M13.1858055,7.09705778 L12.3717136,11.729357 C12.2829517,12.2344251 12.6197046,12.7159479 13.1238724,12.8048684 C13.1769351,12.8142271 13.2307113,12.8189332 13.2845901,12.8189332 L15.7156884,12.8189332 C18.156296,12.8189332 19.8670023,11.5164747 19.8670023,9.02580854 C19.8670023,6.94644507 18.2703431,6.32949107 16.514018,6.32949107 L14.098682,6.32949107 C13.6487636,6.32949107 13.2638167,6.65316294 13.1858055,7.09705778 Z M11.0864172,19.1377437 L10.1154656,24.6154984 C10.0259637,25.1204355 10.3620108,25.6024529 10.8660477,25.6921146 C10.919544,25.701631 10.973772,25.7064168 11.0281052,25.7064168 L13.8453162,25.7064168 C16.7193027,25.7064168 18.7949597,24.2211571 18.7949597,21.5019895 C18.7949597,19.1484242 17.061444,18.3715192 14.7576929,18.3715192 L11.9990568,18.3715192 C11.549652,18.3715192 11.1649889,18.6944706 11.0864172,19.1377437 Z M28.2735415,30.2441561 L41.7777549,1.78896156 C42.1617496,0.97983314 42.9762457,0.464285714 43.870566,0.464285714 L52.9478057,0.464285714 C53.4131552,0.464285714 53.806372,0.809935253 53.8668584,1.272161 L57.6944815,30.522161 C57.7610211,31.0306462 57.4034887,31.4968924 56.8959098,31.5635511 C56.855963,31.5687971 56.8157172,31.5714286 56.7754288,31.5714286 L49.0368889,31.5714286 C48.5485547,31.5714286 48.1439775,31.1918808 48.1119665,30.703727 L47.8184316,26.2274951 C47.7864201,25.7393413 47.3818429,25.3597936 46.8935087,25.3597936 L39.7933971,25.3597936 C39.4592937,25.3597936 39.1510431,25.5399163 38.9865724,25.8312525 L36.0121743,31.0999696 C35.8477035,31.3913059 35.539453,31.5714286 35.2053495,31.5714286 L29.1106659,31.5714286 C28.5987442,31.5714286 28.1837497,31.155693 28.1837497,30.6428571 C28.1837497,30.5049254 28.2144232,30.3687261 28.2735415,30.2441561 Z M43.0639968,18.1062361 L46.9500066,18.1062361 C47.2059675,18.1062361 47.4134647,17.8983682 47.4134647,17.6419503 C47.4134647,17.6318584 47.4131361,17.6217691 47.4124798,17.6116986 L46.928624,10.1883047 C46.9119465,9.93243169 46.6913701,9.73854974 46.4359532,9.75525729 C46.266095,9.76636821 46.1159863,9.86986441 46.0449629,10.0248353 L42.642809,17.4482292 C42.5360104,17.6812602 42.6380054,17.9569011 42.870621,18.0638903 C42.9312835,18.0917914 42.9972463,18.1062361 43.0639968,18.1062361 Z M69.043583,31.5714286 L61.9564289,31.5714286 C61.444507,31.5714286 61.0295127,31.155693 61.0295127,30.6428571 C61.0295127,30.589228 61.03415,30.5356997 61.0433738,30.4828725 L65.9489884,2.38575264 C66.1429489,1.27483536 67.1058545,0.464285714 68.2316267,0.464285714 L79.5681541,0.464285714 C86.0402738,0.464285714 90.1588958,3.86844308 90.1588958,9.87604633 C90.1588958,10.3294503 90.1362661,10.8055246 90.0910066,11.1229073 C89.72893,15.4982561 87.3075426,18.8534459 83.2568098,20.4403599 L86.7170807,30.3358647 C86.8863254,30.819863 86.631867,31.3496663 86.1487314,31.5192135 C86.0502451,31.5537754 85.9466405,31.5714286 85.8422864,31.5714286 L78.5141331,31.5714286 C78.1162464,31.5714286 77.7627456,31.3170405 77.635721,30.9393015 L74.8474286,22.6476126 C74.720404,22.2698736 74.3669032,22.0154855 73.9690165,22.0154855 L72.3509693,22.0154855 C71.9040942,22.0154855 71.5208375,22.3348983 71.4395261,22.7750981 L69.9550258,30.8118159 C69.8737144,31.2520157 69.4904577,31.5714286 69.043583,31.5714286 Z M77.3504343,7.26897321 L74.8867683,7.26897321 C74.4393311,7.26897321 74.0557611,7.58917087 73.9750554,8.03005515 L72.8667065,14.0848124 C72.7743694,14.5892368 73.1077033,15.0731412 73.6112287,15.1656431 C73.6663844,15.1757757 73.7223442,15.1808733 73.7784194,15.1808733 L76.1736854,15.1808733 C78.8440008,15.1808733 80.7675327,13.7979911 81.1069796,11.3949498 C81.1296093,11.190918 81.1748693,10.8735352 81.1748693,10.5788225 C81.1748693,7.97174945 79.0476688,7.26897321 77.3504343,7.26897321 Z M101.622585,19.0357143 L100.863232,23.0566073 C100.831006,23.2272482 100.863585,23.403794 100.954579,23.5516151 C101.156105,23.8789982 101.584398,23.9807336 101.911198,23.7788473 L113.636452,16.5353618 C113.70384,16.4937317 113.763634,16.4408759 113.813256,16.3790747 C114.053894,16.0793683 114.006443,15.6409838 113.707271,15.3999156 L104.717909,8.15643015 C104.628912,8.08471746 104.523648,8.0360761 104.411424,8.01480671 C104.034175,7.94330777 103.670496,8.19171349 103.599124,8.5696364 L102.850123,12.5357143 L93.1399256,12.5357143 L93.1577956,12.437779 C94.538213,4.61655971 99.8335839,0.464285714 107.84453,0.464285714 C115.561288,0.464285714 120.629096,4.73144931 120.947179,12.1657366 C121.122786,16.2700631 120.385168,18.8125262 119.65068,21.1238787 C117.507682,27.867658 112.902917,31.6285575 105.219474,31.6285575 C97.5706051,31.6285575 92.1847148,27.5814732 92.1847148,20.1229771 C92.1847148,19.7753681 92.1870242,19.4092522 92.1960686,19.0357143 L101.622585,19.0357143 Z" id="BARO" fill="#333333"></path>
            </g>
        </g>
    </g>
</svg>