<svg xmlns="http://www.w3.org/2000/svg" width="60" height="60" viewBox="0 0 60 60">
    <g fill="none" fill-rule="evenodd">
        <circle cx="30" cy="30" r="30" fill="#424242"/>
        <path fill="#A9A9A9" d="M49.827 22.898l-3.825-2.6-14.023 20.63-.339 4.61 4.164-2.012 14.023-20.628zm.843-1.24l1.26-1.854-3.825-2.6-1.26 1.853 3.825 2.6zm-23.873 24.08H13.94a3.944 3.944 0 0 1-3.94-3.94V18.94A3.945 3.945 0 0 1 13.94 15h22.857a3.945 3.945 0 0 1 3.94 3.94v2.016a.75.75 0 0 1-1.5 0V18.94a2.443 2.443 0 0 0-2.44-2.441H13.94a2.443 2.443 0 0 0-2.44 2.44v22.858a2.443 2.443 0 0 0 2.44 2.44h12.857a.75.75 0 0 1 0 1.5zM30.4 24H16.348a.75.75 0 0 1 0-1.5H30.4a.75.75 0 0 1 0 1.5zm0 7.118H16.348a.75.75 0 0 1 0-1.5H30.4a.75.75 0 0 1 0 1.5zm-6.912 7.118h-7.14a.75.75 0 0 1 0-1.5h7.14a.75.75 0 0 1 0 1.5zm7.918 8.94c-.253 0-.504-.078-.725-.227a1.282 1.282 0 0 1-.563-1.164l.37-5.026c.017-.228.094-.447.221-.633L46.981 16.19a1.296 1.296 0 0 1 1.796-.343l4.168 2.834c.285.194.478.487.543.827.065.34-.007.683-.2.968l-16.275 23.94a1.292 1.292 0 0 1-.504.436l-4.539 2.194a1.3 1.3 0 0 1-.564.131z"/>
    </g>
</svg>
