<svg xmlns="http://www.w3.org/2000/svg" width="55" height="55" viewBox="0 0 55 55">
    <g fill="none" fill-rule="evenodd">
        <circle cx="27.5" cy="27.5" r="27.5" fill="#F3F3F3"/>
        <path fill="#D6D6D6" d="M28.506 32.907h-1.793a.648.648 0 0 1 0-1.295h1.849c.195 0 .371.088.49.225l.022-.043.136-.208a8.026 8.026 0 0 1 6.747-3.672c1.598 0 3.143.47 4.468 1.359l.432.29V21.75H14.294v17.257h14.212l-.132-.37a7.979 7.979 0 0 1-.41-1.787l-.027-.247h-1.224a.648.648 0 0 1 0-1.294h1.224l.028-.247c.067-.608.205-1.21.41-1.787l.13-.37zm7.451 9.799a6.756 6.756 0 0 0 6.749-6.749 6.756 6.756 0 0 0-6.749-6.748 6.756 6.756 0 0 0-6.748 6.748 6.756 6.756 0 0 0 6.748 6.749zM14.294 16.205v4.252h26.563v-4.252h-4.314v1.202a.648.648 0 0 1-1.294 0v-1.202h-4.253v1.202a.648.648 0 0 1-1.294 0v-1.202h-4.253v1.202a.648.648 0 0 1-1.294 0v-1.202h-4.252v1.202a.648.648 0 0 1-1.295 0v-1.202h-4.314zm27.919 14.703A8.056 8.056 0 0 1 44 35.958C44 40.391 40.392 44 35.957 44a8.04 8.04 0 0 1-6.684-3.575l-.082-.123H13.647a.648.648 0 0 1-.647-.647V15.558c0-.357.29-.647.647-.647h4.961v-1.264a.648.648 0 0 1 1.295 0v1.264h4.252v-1.264a.648.648 0 0 1 1.294 0v1.264h4.253v-1.264a.648.648 0 0 1 1.294 0v1.264h4.253v-1.264a.648.648 0 0 1 1.294 0v1.264h4.961c.357 0 .647.29.647.647v15.274l.062.076zm-21.109-6.691a.648.648 0 0 1 0 1.294h-1.849a.648.648 0 0 1 0-1.294h1.85zm0 3.697a.648.648 0 0 1 0 1.295h-1.849a.648.648 0 0 1 0-1.295h1.85zm0 3.698a.648.648 0 0 1 0 1.295h-1.849a.648.648 0 0 1 0-1.295h1.85zm7.458-7.395a.648.648 0 0 1 0 1.294h-1.85a.648.648 0 0 1 0-1.294h1.85zm0 3.697a.648.648 0 0 1 0 1.295h-1.85a.648.648 0 0 1 0-1.295h1.85zm-7.458 7.396a.648.648 0 0 1 0 1.294h-1.849a.648.648 0 0 1 0-1.294h1.85zm15.5-10.446c0 .357-.29.647-.647.647h-1.849a.648.648 0 0 1 0-1.294h1.85c.356 0 .646.29.646.647zm.117 11.093l2.411 2.411a.554.554 0 0 1-.783.784l-2.411-2.411-2.411 2.41a.554.554 0 1 1-.784-.783l2.411-2.41-2.41-2.412a.554.554 0 1 1 .783-.783l2.41 2.41 2.412-2.41a.554.554 0 1 1 .783.783l-2.41 2.411z"/>
    </g>
</svg>
