<svg xmlns="http://www.w3.org/2000/svg" width="25" height="25" viewBox="0 0 25 25">
    <path fill="#FFF" fill-rule="evenodd" d="M23.765 0h-5.106a.77.77 0 1 0 0 1.541h3.247l-9.639 9.638L2.63 1.541h2.247a.77.77 0 1 0 0-1.541H.77A.77.77 0 0 0 0 .771v4.106a.77.77 0 1 0 1.54 0V2.63l9.639 9.638-9.639 9.638v-3.247a.77.77 0 1 0-1.54 0v5.107c0 .425.345.77.77.77h5.107a.77.77 0 1 0 0-1.541H2.63l9.637-9.638 9.639 9.638h-2.247a.77.77 0 1 0 0 1.541h4.106a.77.77 0 0 0 .771-.77v-4.107a.77.77 0 1 0-1.541 0v2.247l-9.638-9.638 9.638-9.638v3.247a.77.77 0 1 0 1.541 0V.771A.77.77 0 0 0 23.765 0"/>
</svg>
