<svg xmlns="http://www.w3.org/2000/svg" width="17" height="17" viewBox="0 0 17 17">
    <g fill="none" fill-rule="evenodd">
        <path d="M0 0h17v17H0z"/>
        <path stroke="#FFF" d="M2.571 12l-1.257-1.258a.444.444 0 0 1 0-.628l8.8-8.8a.444.444 0 0 1 .628 0L12 2.571a.444.444 0 0 1 0 .629 1.333 1.333 0 1 0 1.886 1.886.444.444 0 0 1 .629 0l1.257 1.257a.444.444 0 0 1 0 .628l-8.8 8.8a.444.444 0 0 1-.628 0l-1.257-1.257a.444.444 0 0 1 0-.629A1.333 1.333 0 1 0 3.2 12a.444.444 0 0 1-.629 0z"/>
        <path fill="#FFF" fill-rule="nonzero" d="M8.227 4.458h.89v.889h-.89v-.89zm1.258 1.257h.888v.889h-.888v-.889zm1.257 1.257h.889v.889h-.89v-.889zm1.257 1.257h.889v.889h-.89v-.889z"/>
    </g>
</svg>
