<svg xmlns="http://www.w3.org/2000/svg" width="39" height="39" viewBox="0 0 39 39">
    <path fill="#424242" fill-rule="evenodd" d="M17.609 15.044c.523-.65 1.255-.953 2.197-.907 2.092.102 2.469 1.486 2.659 2.09.19.606.48 3.221-.834 4.796-.85 1.02-2.102 1.278-3.756.775v2.946h-1.941v-10.37h1.405l.27.67zm.266 1.113v4.383c1.33.249 2.98-.156 2.766-2.842-.144-1.805-1.066-2.319-2.766-1.54zM5.472 22.904l-2.898 1.883a.252.252 0 0 1-.38-.28c.336-1.21.566-2.037.687-2.48C1.444 21.17.516 19.812.516 18.283c0-2.587 2.657-4.684 5.934-4.684 3.278 0 5.935 2.097 5.935 4.684s-2.657 4.684-5.935 4.684c-.333 0-.66-.022-.978-.064zM28.51 21.18c-.293.182-.648.41-1.021.59-.372.18-.77.268-1.198.264-.395.005-.671-.008-.827-.04a1.936 1.936 0 0 1-.966-.476c-.39-.369-.646-.845-.646-1.649 0-1.66.944-2.515 2.832-2.565h1.594v-.02c.05-1.641-1.112-1.97-3.485-.987l-.587-1.302c.439-.26.761-.43.966-.506.562-.208.906-.32 2.1-.311 1.84.013 2.778.986 2.813 2.92v4.725h-1.457a16.447 16.447 0 0 1-.118-.643zm-.161-1.291a20.6 20.6 0 0 1-.075-1.34h-1.392c-.972 0-1.238.632-1.238.983 0 .352.043 1 .988 1 .595 0 1.168-.215 1.717-.643zm6.41-.007c.56-1.576 1.156-3.52 1.784-5.834l1.941.59c-1.091 3.017-1.87 5.153-2.334 6.408-.292.786-.718 1.84-1.38 2.67-.505.635-.987 1.103-1.446 1.404l-1.246-1.17a7.66 7.66 0 0 0 1.71-1.968l-2.741-7.306 1.98-.566 1.731 5.772z"/>
</svg>
