<svg xmlns="http://www.w3.org/2000/svg" width="17" height="17" viewBox="0 0 17 17">
    <g fill="none" fill-rule="evenodd">
        <path d="M0 0h17v17H0z"/>
        <path fill="#272727" fill-rule="nonzero" d="M2.886 11.607A1.833 1.833 0 0 1 5.478 14.2l1.179 1.179 8.72-8.721-1.178-1.18a1.833 1.833 0 0 1-2.592-2.59l-1.179-1.18-8.72 8.721 1.178 1.18zm-.668.746L.96 11.096a.944.944 0 0 1 0-1.336l8.8-8.8a.944.944 0 0 1 1.335 0l1.257 1.258a.944.944 0 0 1 0 1.335.833.833 0 1 0 1.179 1.179.944.944 0 0 1 1.335 0l1.257 1.257a.944.944 0 0 1 0 1.336l-8.8 8.8a.944.944 0 0 1-1.335 0l-1.257-1.258a.944.944 0 0 1 0-1.335.833.833 0 1 0-1.179-1.179.944.944 0 0 1-1.335 0z"/>
        <path fill="#272727" fill-rule="nonzero" d="M8.227 4.458h1v1h-1zM9.485 5.715h1v1h-1zM10.742 6.972h1v1h-1zM11.999 8.229h1v1h-1z"/>
    </g>
</svg>
