<svg xmlns="http://www.w3.org/2000/svg" width="17" height="17" viewBox="0 0 17 17">
    <path fill="#272727" fill-rule="nonzero" d="M8.498 14.73l5.556-5.877c.61-.647.946-1.509.946-2.437a3.503 3.503 0 0 0-.94-2.43c-.597-.635-1.374-.976-2.207-.976-.831 0-1.612.344-2.21.979L8.505 5.197 7.36 3.982C6.761 3.346 5.977 3 5.147 3c-.829 0-1.61.343-2.204.975A3.507 3.507 0 0 0 2 6.41c0 .922.337 1.78.949 2.43l5.549 5.89zM7.806 3.022l-.03.03.729.687.728-.686-.029-.03a3.98 3.98 0 0 1 2.65-1.013c1.11 0 2.149.456 2.934 1.29A4.502 4.502 0 0 1 16 6.42a4.523 4.523 0 0 1-1.218 3.118l-5.985 6.33a.416.416 0 0 1-.302.132.42.42 0 0 1-.302-.135l-5.972-6.34A4.517 4.517 0 0 1 1 6.409a4.505 4.505 0 0 1 1.215-3.12C2.997 2.46 4.04 2 5.147 2a3.99 3.99 0 0 1 2.659 1.022z"/>
</svg>
