<?xml version="1.0" encoding="UTF-8"?>
<svg width="60px" height="18px" viewBox="0 0 60 18" version="1.1" xmlns="http://www.w3.org/2000/svg" xmlns:xlink="http://www.w3.org/1999/xlink">
    <!-- Generator: sketchtool 51.2 (57519) - http://www.bohemiancoding.com/sketch -->
    <title>A6097713-CD3E-4A1A-852D-68CD5F44CE28</title>
    <desc>Created with sketchtool.</desc>
    <defs></defs>
    <g id="02_Web" stroke="none" stroke-width="1" fill="none" fill-rule="evenodd">
        <g id="인트로_m" transform="translate(-20.000000, -18.000000)" fill-rule="nonzero">
            <g id="Top">
                <g id="img_logo_2" transform="translate(20.000000, 18.000000)">
                    <rect id="Bounds" x="0" y="0" width="60" height="18"></rect>
                    <g id="Shape" transform="translate(1.000000, 1.000000)" fill="#FFFFFF">
                        <path d="M0.0963110565,15.0051204 L2.57425312,1.16994389 C2.67182763,0.625152912 3.14574926,0.228571429 3.69920928,0.228571429 L9.91116071,0.228571429 C12.8129464,0.228571429 14.2526786,1.69241072 14.2526786,3.74598215 C14.2526786,6.01160715 12.4558036,7.40892857 10.9714286,7.54285714 C12.4,7.63214286 13.728125,9.04732142 13.728125,10.9446429 C13.728125,14.1366071 10.8263393,15.5428571 7.34419643,15.5428571 L0.546293522,15.5428571 C0.293820494,15.5428571 0.0891506647,15.3381873 0.0891506647,15.0857143 C0.0891506647,15.0586908 0.091546845,15.0317206 0.0963110565,15.0051204 Z M6.50306539,3.49393614 L6.10156599,5.77445269 C6.05778978,6.0231016 6.22387191,6.26015897 6.4725208,6.3039352 C6.49869063,6.30854256 6.52521234,6.31085941 6.55178464,6.31085941 L7.75077029,6.31085941 C8.95444578,6.31085941 9.79814357,5.6696491 9.79814357,4.44347497 C9.79814357,3.41978834 9.0106923,3.11605714 8.14449591,3.11605714 L6.95328405,3.11605714 C6.73139022,3.11605714 6.5415395,3.27540329 6.50306539,3.49393614 Z M5.46767477,9.42165845 L4.98881424,12.1183992 C4.9446731,12.3669836 5.11040709,12.6042845 5.35899145,12.6484257 C5.38537513,12.6531106 5.41211966,12.6554667 5.43891607,12.6554667 L6.82832738,12.6554667 C8.24573963,12.6554667 9.26942629,11.924262 9.26942629,10.5855948 C9.26942629,9.42691653 8.4144792,9.04444021 7.27829952,9.04444021 L5.91777657,9.04444021 C5.69613605,9.04444021 5.5064253,9.20343168 5.46767477,9.42165845 Z M13.486995,14.8894307 L20.1470949,0.880719536 C20.336476,0.482379392 20.7381748,0.228571429 21.1792418,0.228571429 L25.6560167,0.228571429 C25.8855209,0.228571429 26.0794503,0.398737355 26.1092814,0.626294645 L27.9970146,15.0262947 C28.0298311,15.2766258 27.8535008,15.5061624 27.6031696,15.538979 C27.5834683,15.5415617 27.5636197,15.5428571 27.5437499,15.5428571 L23.7272041,15.5428571 C23.4863641,15.5428571 23.286832,15.3560029 23.2710446,15.115681 L23.126277,12.9119976 C23.1104894,12.6716757 22.9109573,12.4848214 22.6701173,12.4848214 L19.2067188,12.4848214 C19.0220836,12.4848214 18.8555749,12.5958896 18.7846497,12.7663589 L17.7466003,15.2613197 C17.6756751,15.431789 17.5091664,15.5428571 17.3245312,15.5428571 L13.8998537,15.5428571 C13.6473807,15.5428571 13.4427108,15.3381873 13.4427108,15.0857143 C13.4427108,15.0178094 13.4578386,14.9507575 13.486995,14.8894307 Z M20.7814525,8.91383929 L22.6979813,8.91383929 C22.8242178,8.91383929 22.9265527,8.81150437 22.9265527,8.68526786 C22.9265527,8.68029952 22.9263906,8.6753325 22.926067,8.67037472 L22.6874357,5.01578078 C22.6792104,4.88981253 22.5704251,4.79436295 22.4444568,4.80258821 C22.3606851,4.80805819 22.2866535,4.85901017 22.2516257,4.93530352 L20.5737282,8.58989746 C20.5210566,8.70462041 20.5713591,8.84032055 20.6860821,8.89299216 C20.716,8.90672807 20.748532,8.91383929 20.7814525,8.91383929 Z M33.137099,15.5428571 L29.641808,15.5428571 C29.3893349,15.5428571 29.1846651,15.3381873 29.1846651,15.0857143 C29.1846651,15.0593123 29.1869522,15.0329598 29.1915013,15.0069526 L31.6108857,1.17452437 C31.7065445,0.627611253 32.1814368,0.228571429 32.7366528,0.228571429 L38.3276786,0.228571429 C41.519643,0.228571429 43.5508928,1.90446429 43.5508928,4.86205358 C43.5508928,5.08526786 43.5397321,5.31964286 43.5174107,5.47589287 C43.3388393,7.62991072 42.144643,9.28169643 40.146875,10.0629464 L41.853435,14.9345795 C41.9369042,15.1728556 41.8114087,15.4336819 41.5731326,15.5171513 C41.5245605,15.5341663 41.473464,15.5428571 41.4219979,15.5428571 L37.8078494,15.5428571 C37.6116169,15.5428571 37.437275,15.4176199 37.3746281,15.2316561 L35.9994791,11.1495939 C35.9368322,10.9636301 35.7624903,10.8383929 35.5662578,10.8383929 L34.7682583,10.8383929 C34.5478654,10.8383929 34.3588482,10.9956423 34.3187465,11.212356 L33.5866105,15.168894 C33.5465088,15.3856077 33.3574917,15.5428571 33.137099,15.5428571 Z M37.2339285,3.57857143 L36.0188809,3.57857143 C35.7982107,3.57857143 35.6090391,3.7362072 35.5692361,3.95325792 L35.022613,6.93406149 C34.9770736,7.18239351 35.1414695,7.42062336 35.3898016,7.46616277 C35.4170037,7.47115111 35.4446023,7.47366071 35.4722578,7.47366071 L36.6535714,7.47366071 C37.9705358,7.47366071 38.9191963,6.79285714 39.0866071,5.60982144 C39.0977678,5.50937499 39.1200894,5.35312501 39.1200894,5.2080357 C39.1200894,3.92455358 38.0709822,3.57857143 37.2339285,3.57857143 Z M48.7474903,9.37142857 L48.4211257,11.0964983 C48.3999346,11.2085087 48.4213582,11.3243952 48.4811941,11.4214264 C48.6137143,11.6363241 48.8953522,11.7031042 49.1102498,11.570584 L54.5348569,8.22540967 C54.5791701,8.19808325 54.6184898,8.16338814 54.6511195,8.12282121 C54.8093593,7.92609083 54.7781563,7.63833077 54.5814261,7.48009113 L50.4225607,4.1349168 C50.3640375,4.08784384 50.2948178,4.05591515 50.2210215,4.04195369 C49.972949,3.99502105 49.7338,4.15807712 49.6868674,4.40614962 L49.3528958,6.17142857 L44.5639545,6.17142857 L44.5727678,6.12321429 C45.2535714,2.27276786 47.8651785,0.291517856 51.8160713,0.291517856 C55.621875,0.291517856 58.278125,2.29508928 58.278125,5.98928571 C58.278125,6.49151785 58.2669643,7.07187499 58.1665179,7.65223214 L57.7870535,9.73928571 C57.0616071,13.5450893 54.5504464,15.5709821 50.5214286,15.5709821 C46.7491072,15.5709821 44.0928571,13.5785714 44.0928571,9.90669643 C44.0928571,9.73556585 44.0939961,9.55532418 44.0984567,9.37142857 L48.7474903,9.37142857 Z" id="BARO"></path>
                    </g>
                </g>
            </g>
        </g>
    </g>
</svg>