<?xml version="1.0" encoding="UTF-8"?>
<svg width="70px" height="20px" viewBox="0 0 70 20" version="1.1" xmlns="http://www.w3.org/2000/svg" xmlns:xlink="http://www.w3.org/1999/xlink">
    <!-- Generator: sketchtool 51.2 (57519) - http://www.bohemiancoding.com/sketch -->
    <title>9B46BAD9-C051-4CD0-AA8A-567CCDED47F2</title>
    <desc>Created with sketchtool.</desc>
    <defs></defs>
    <g id="02_Web" stroke="none" stroke-width="1" fill="none" fill-rule="evenodd">
        <g id="차주_01" transform="translate(-30.000000, -20.000000)" fill-rule="nonzero">
            <g id="Header">
                <g id="img_logo_1" transform="translate(30.000000, 20.000000)">
                    <rect id="Bounds" x="0" y="0" width="70" height="20"></rect>
                    <g id="Shape" transform="translate(2.000000, 1.000000)" fill="#31579E">
                        <path d="M0.108349939,16.8807605 L2.89603476,1.31618687 C3.00580609,0.703297026 3.53896791,0.257142857 4.16161044,0.257142857 L11.1500558,0.257142857 C14.4145647,0.257142857 16.0342634,1.90396205 16.0342634,4.21422992 C16.0342634,6.76305805 14.012779,8.33504464 12.3428571,8.48571429 C13.95,8.58616071 15.4441406,10.1782366 15.4441406,12.3127232 C15.4441406,15.903683 12.1796317,17.4857143 8.26222099,17.4857143 L0.614580213,17.4857143 C0.330548055,17.4857143 0.100294498,17.2554607 0.100294498,16.9714286 C0.100294498,16.9410272 0.102990201,16.9106857 0.108349939,16.8807605 Z M7.31594857,3.93067815 L6.86426174,6.49625927 C6.81501351,6.7759893 7.0018559,7.04267884 7.2815859,7.0919271 C7.31102696,7.09711038 7.34086389,7.09971683 7.37075772,7.09971683 L8.71961657,7.09971683 C10.0737515,7.09971683 11.0229115,6.37835523 11.0229115,4.99890934 C11.0229115,3.84726189 10.1370288,3.50556429 9.1625579,3.50556429 L7.82244455,3.50556429 C7.57281399,3.50556429 7.35923193,3.6848287 7.31594857,3.93067815 Z M6.15113411,10.5993658 L5.61241602,13.6331991 C5.56275723,13.9128566 5.74920797,14.1798201 6.02886538,14.2294789 C6.05854702,14.2347495 6.08863461,14.2374001 6.11878058,14.2374001 L7.68186831,14.2374001 C9.27645709,14.2374001 10.4281046,13.4147947 10.4281046,11.9087942 C10.4281046,10.6052811 9.4662891,10.1749952 8.18808696,10.1749952 L6.65749864,10.1749952 C6.40815305,10.1749952 6.19472847,10.3538606 6.15113411,10.5993658 Z M15.1728693,16.7506095 L22.6654818,0.990809478 C22.8785356,0.542676816 23.3304467,0.257142857 23.826647,0.257142857 L28.8630188,0.257142857 C29.121211,0.257142857 29.3393816,0.448579525 29.3729415,0.704581475 L31.4966415,16.9045815 C31.53356,17.1862041 31.3351884,17.4444327 31.0535658,17.4813514 C31.0314019,17.4842569 31.0090721,17.4857143 30.9867187,17.4857143 L26.6931046,17.4857143 C26.4221596,17.4857143 26.197686,17.2755032 26.1799251,17.0051411 L26.0170617,14.5259973 C25.9993005,14.2556352 25.7748269,14.0454241 25.503882,14.0454241 L21.6075587,14.0454241 C21.3998441,14.0454241 21.2125217,14.1703758 21.1327309,14.3621537 L19.9649254,17.1689846 C19.8851345,17.3607626 19.6978122,17.4857143 19.4900976,17.4857143 L15.6373354,17.4857143 C15.3533032,17.4857143 15.1230497,17.2554607 15.1230497,16.9714286 C15.1230497,16.8950356 15.1400685,16.8196021 15.1728693,16.7506095 Z M23.3791341,10.0280692 L25.5352289,10.0280692 C25.677245,10.0280692 25.7923718,9.91294241 25.7923718,9.77092635 C25.7923718,9.76533696 25.7921895,9.75974907 25.7918253,9.75417156 L25.5233651,5.64275337 C25.5141117,5.50103909 25.3917282,5.39365832 25.2500139,5.40291173 C25.1557707,5.40906547 25.0724852,5.46638644 25.0330789,5.55221646 L23.1454442,9.66363465 C23.0861886,9.79269796 23.142779,9.94536062 23.2718424,10.0046162 C23.3055,10.0200691 23.3420985,10.0280692 23.3791341,10.0280692 Z M37.2792363,17.4857143 L33.347034,17.4857143 C33.0630017,17.4857143 32.8327483,17.2554607 32.8327483,16.9714286 C32.8327483,16.9417263 32.8353213,16.9120798 32.8404389,16.8828217 L35.5622464,1.32133992 C35.6698625,0.706062659 36.2041164,0.257142857 36.8287344,0.257142857 L43.1186385,0.257142857 C46.7095983,0.257142857 48.9947544,2.14252232 48.9947544,5.46981027 C48.9947544,5.72092635 48.9821986,5.98459821 48.9570871,6.16037948 C48.7561942,8.58364956 47.4127233,10.4419085 45.1652343,11.3208147 L47.0851143,16.801402 C47.1790173,17.0694626 47.0378348,17.3628921 46.7697741,17.4567952 C46.7151305,17.4759371 46.657647,17.4857143 46.5997477,17.4857143 L42.5338305,17.4857143 C42.313069,17.4857143 42.1169343,17.3448224 42.0464566,17.1356131 L40.499414,12.5432931 C40.4289363,12.3340838 40.2328016,12.193192 40.0120401,12.193192 L39.1142906,12.193192 C38.8663485,12.193192 38.6537043,12.3700975 38.6085898,12.6139005 L37.7849368,17.0650057 C37.7398224,17.3088087 37.5271781,17.4857143 37.2792363,17.4857143 Z M41.8881695,4.02589286 L40.521241,4.02589286 C40.2729871,4.02589286 40.060169,4.2032331 40.0153906,4.44741516 L39.4004397,7.80081917 C39.3492078,8.0801927 39.5341532,8.34820128 39.8135268,8.39943311 C39.8441291,8.405045 39.8751776,8.4078683 39.9062901,8.4078683 L41.2352679,8.4078683 C42.7168527,8.4078683 43.7840959,7.64196429 43.972433,6.31104912 C43.9849887,6.19804687 44.0101005,6.02226563 44.0101005,5.85904017 C44.0101005,4.41512277 42.8298549,4.02589286 41.8881695,4.02589286 Z M54.8409266,10.5428571 L54.4737664,12.4835605 C54.4499265,12.6095723 54.4740279,12.7399446 54.5413433,12.8491047 C54.6904286,13.0908646 55.0072713,13.1659923 55.2490311,13.016907 L61.351714,9.25358588 C61.4015663,9.22284365 61.4458011,9.18381165 61.4825095,9.13817386 C61.6605292,8.91685219 61.6254259,8.59312211 61.4041043,8.41510252 L56.7253808,4.6517814 C56.6595422,4.59882432 56.5816701,4.56290455 56.4986492,4.5471979 C56.2195677,4.49439868 55.950525,4.67783676 55.8977259,4.95691833 L55.5220077,6.94285714 L50.1344488,6.94285714 L50.1443637,6.88861607 C50.9102679,2.55686384 53.8483258,0.327957588 58.2930802,0.327957588 C62.5746093,0.327957588 65.5628907,2.58197544 65.5628907,6.73794643 C65.5628907,7.30295758 65.5503349,7.95585937 65.4373327,8.60876115 L65.0104352,10.9566964 C64.194308,15.2382254 61.3692522,17.5173549 56.8366071,17.5173549 C52.5927456,17.5173549 49.6044643,15.2758929 49.6044643,11.1450335 C49.6044643,10.9525116 49.6057456,10.7497397 49.6107638,10.5428571 L54.8409266,10.5428571 Z" id="BARO"></path>
                    </g>
                </g>
            </g>
        </g>
    </g>
</svg>