<?xml version="1.0" encoding="UTF-8"?>
<svg width="150px" height="145px" viewBox="0 0 150 145" version="1.1" xmlns="http://www.w3.org/2000/svg" xmlns:xlink="http://www.w3.org/1999/xlink">
    <!-- Generator: sketchtool 52.5 (67469) - http://www.bohemiancoding.com/sketch -->
    <title>7721741A-671C-41E3-8699-7A09225EF56F</title>
    <desc>Created with sketchtool.</desc>
    <defs>
        <circle id="path-1" cx="41.61456" cy="41.61456" r="41.61456"></circle>
        <linearGradient x1="50%" y1="0%" x2="50%" y2="100%" id="linearGradient-3">
            <stop stop-color="#FFFFFF" offset="0%"></stop>
            <stop stop-color="#FFDD00" offset="82.0718931%"></stop>
            <stop stop-color="#FFC002" offset="100%"></stop>
        </linearGradient>
        <circle id="path-4" cx="41.61456" cy="41.61456" r="41.61456"></circle>
        <filter x="-2.4%" y="-1.2%" width="104.8%" height="104.8%" filterUnits="objectBoundingBox" id="filter-5">
            <feOffset dx="0" dy="1" in="SourceAlpha" result="shadowOffsetOuter1"></feOffset>
            <feGaussianBlur stdDeviation="0.5" in="shadowOffsetOuter1" result="shadowBlurOuter1"></feGaussianBlur>
            <feColorMatrix values="0 0 0 0 0.784313725   0 0 0 0 0.576470588   0 0 0 0 0  0 0 0 0.33 0" type="matrix" in="shadowBlurOuter1"></feColorMatrix>
        </filter>
        <circle id="path-6" cx="38.20752" cy="38.20752" r="38.20752"></circle>
        <circle id="path-8" cx="41.61456" cy="41.61456" r="30.42"></circle>
        <filter x="-3.3%" y="-3.3%" width="106.6%" height="106.6%" filterUnits="objectBoundingBox" id="filter-9">
            <feGaussianBlur stdDeviation="1.5" in="SourceAlpha" result="shadowBlurInner1"></feGaussianBlur>
            <feOffset dx="0" dy="1" in="shadowBlurInner1" result="shadowOffsetInner1"></feOffset>
            <feComposite in="shadowOffsetInner1" in2="SourceAlpha" operator="arithmetic" k2="-1" k3="1" result="shadowInnerInner1"></feComposite>
            <feColorMatrix values="0 0 0 0 0.858823529   0 0 0 0 0.635294118   0 0 0 0 0  0 0 0 0.5 0" type="matrix" in="shadowInnerInner1"></feColorMatrix>
        </filter>
        <text id="text-10" font-family="Gilroy-ExtraBold, Gilroy" font-size="45" font-weight="600" fill="#FFDD00">
            <tspan x="24.3" y="57.4">C</tspan>
        </text>
        <filter x="-10.6%" y="-4.5%" width="121.2%" height="112.7%" filterUnits="objectBoundingBox" id="filter-11">
            <feOffset dx="0" dy="1" in="SourceAlpha" result="shadowOffsetOuter1"></feOffset>
            <feGaussianBlur stdDeviation="1" in="shadowOffsetOuter1" result="shadowBlurOuter1"></feGaussianBlur>
            <feColorMatrix values="0 0 0 0 0.858710672   0 0 0 0 0.63527065   0 0 0 0 0  0 0 0 1 0" type="matrix" in="shadowBlurOuter1"></feColorMatrix>
        </filter>
        <circle id="path-12" cx="29.130192" cy="29.130192" r="29.130192"></circle>
        <circle id="path-14" cx="29.130192" cy="29.130192" r="29.130192"></circle>
        <filter x="-3.4%" y="-1.7%" width="106.9%" height="106.9%" filterUnits="objectBoundingBox" id="filter-15">
            <feOffset dx="0" dy="1" in="SourceAlpha" result="shadowOffsetOuter1"></feOffset>
            <feGaussianBlur stdDeviation="0.5" in="shadowOffsetOuter1" result="shadowBlurOuter1"></feGaussianBlur>
            <feColorMatrix values="0 0 0 0 0.784313725   0 0 0 0 0.576470588   0 0 0 0 0  0 0 0 0.33 0" type="matrix" in="shadowBlurOuter1"></feColorMatrix>
        </filter>
        <circle id="path-16" cx="26.745264" cy="26.745264" r="26.745264"></circle>
        <circle id="path-18" cx="29.130192" cy="29.130192" r="21.294"></circle>
        <filter x="-3.5%" y="-3.5%" width="107.0%" height="107.0%" filterUnits="objectBoundingBox" id="filter-19">
            <feGaussianBlur stdDeviation="1" in="SourceAlpha" result="shadowBlurInner1"></feGaussianBlur>
            <feOffset dx="0" dy="1" in="shadowBlurInner1" result="shadowOffsetInner1"></feOffset>
            <feComposite in="shadowOffsetInner1" in2="SourceAlpha" operator="arithmetic" k2="-1" k3="1" result="shadowInnerInner1"></feComposite>
            <feColorMatrix values="0 0 0 0 0.858823529   0 0 0 0 0.635294118   0 0 0 0 0  0 0 0 0.5 0" type="matrix" in="shadowInnerInner1"></feColorMatrix>
        </filter>
        <text id="text-20" font-family="Gilroy-ExtraBold, Gilroy" font-size="31.5" font-weight="600" fill="#FFDD00">
            <tspan x="17.01" y="40.08">C</tspan>
        </text>
        <filter x="-8.7%" y="-2.6%" width="117.4%" height="110.3%" filterUnits="objectBoundingBox" id="filter-21">
            <feOffset dx="0" dy="1" in="SourceAlpha" result="shadowOffsetOuter1"></feOffset>
            <feGaussianBlur stdDeviation="0.5" in="shadowOffsetOuter1" result="shadowBlurOuter1"></feGaussianBlur>
            <feColorMatrix values="0 0 0 0 0.858710672   0 0 0 0 0.63527065   0 0 0 0 0  0 0 0 1 0" type="matrix" in="shadowBlurOuter1"></feColorMatrix>
        </filter>
    </defs>
    <g id="02_메인" stroke="none" stroke-width="1" fill="none" fill-rule="evenodd">
        <g id="친구-10" transform="translate(-105.000000, -127.000000)">
            <g id="coin-copy-2" transform="translate(105.000000, 127.000000)">
                <circle id="Oval-Copy-2" fill="#FFFFFF" cx="75" cy="73" r="72"></circle>
                <circle id="Oval-Copy" fill-opacity="0.3" fill="#FFE34C" cx="75" cy="73" r="72"></circle>
                <circle id="Oval" fill-opacity="0.3" fill="#FFE34C" cx="73.5" cy="72.5" r="52.5"></circle>
                <path d="M14.24,30.64 L16.58,30.64 C17.2979702,30.64 17.88,31.2220298 17.88,31.94 C17.88,32.6579702 17.2979702,33.24 16.58,33.24 L14.24,33.24 L14.24,35.58 C14.24,36.2979702 13.6579702,36.88 12.94,36.88 C12.2220298,36.88 11.64,36.2979702 11.64,35.58 L11.64,33.24 L9.3,33.24 C8.58202983,33.24 8,32.6579702 8,31.94 C8,31.2220298 8.58202983,30.64 9.3,30.64 L11.64,30.64 L11.64,28.3 C11.64,27.5820298 12.2220298,27 12.94,27 C13.6579702,27 14.24,27.5820298 14.24,28.3 L14.24,30.64 Z" id="Combined-Shape" fill="#FDD43E"></path>
                <path d="M138.24,58.64 L140.58,58.64 C141.29797,58.64 141.88,59.2220298 141.88,59.94 C141.88,60.6579702 141.29797,61.24 140.58,61.24 L138.24,61.24 L138.24,63.58 C138.24,64.2979702 137.65797,64.88 136.94,64.88 C136.22203,64.88 135.64,64.2979702 135.64,63.58 L135.64,61.24 L133.3,61.24 C132.58203,61.24 132,60.6579702 132,59.94 C132,59.2220298 132.58203,58.64 133.3,58.64 L135.64,58.64 L135.64,56.3 C135.64,55.5820298 136.22203,55 136.94,55 C137.65797,55 138.24,55.5820298 138.24,56.3 L138.24,58.64 Z" id="Combined-Shape" fill="#FDD43E"></path>
                <path d="M121.38,29.08 L122.55,29.08 C122.908985,29.08 123.2,29.3710149 123.2,29.73 L123.2,29.99 C123.2,30.3489851 122.908985,30.64 122.55,30.64 L121.38,30.64 L121.38,31.55 C121.38,31.9089851 121.088985,32.2 120.73,32.2 L120.47,32.2 C120.111015,32.2 119.82,31.9089851 119.82,31.55 L119.82,30.64 L118.65,30.64 C118.291015,30.64 118,30.3489851 118,29.99 L118,29.73 C118,29.3710149 118.291015,29.08 118.65,29.08 L119.82,29.08 L119.82,27.65 C119.82,27.2910149 120.111015,27 120.47,27 L120.73,27 C121.088985,27 121.38,27.2910149 121.38,27.65 L121.38,29.08 Z" id="Combined-Shape" fill="#FDD43E"></path>
                <path d="M147.38,74.08 L148.55,74.08 C148.908985,74.08 149.2,74.3710149 149.2,74.73 L149.2,74.99 C149.2,75.3489851 148.908985,75.64 148.55,75.64 L147.38,75.64 L147.38,76.55 C147.38,76.9089851 147.088985,77.2 146.73,77.2 L146.47,77.2 C146.111015,77.2 145.82,76.9089851 145.82,76.55 L145.82,75.64 L144.65,75.64 C144.291015,75.64 144,75.3489851 144,74.99 L144,74.73 C144,74.3710149 144.291015,74.08 144.65,74.08 L145.82,74.08 L145.82,72.65 C145.82,72.2910149 146.111015,72 146.47,72 L146.73,72 C147.088985,72 147.38,72.2910149 147.38,72.65 L147.38,74.08 Z" id="Combined-Shape-Copy-2" fill="#FDD43E"></path>
                <path d="M3.38,101.08 L4.55,101.08 C4.90898509,101.08 5.2,101.371015 5.2,101.73 L5.2,101.99 C5.2,102.348985 4.90898509,102.64 4.55,102.64 L3.38,102.64 L3.38,103.55 C3.38,103.908985 3.08898509,104.2 2.73,104.2 L2.47,104.2 C2.11101491,104.2 1.82,103.908985 1.82,103.55 L1.82,102.64 L0.65,102.64 C0.291014913,102.64 -2.72582877e-17,102.348985 -7.12212815e-17,101.99 L1.66743732e-16,101.73 C1.22780738e-16,101.371015 0.291014913,101.08 0.65,101.08 L1.82,101.08 L1.82,99.65 C1.82,99.2910149 2.11101491,99 2.47,99 L2.73,99 C3.08898509,99 3.38,99.2910149 3.38,99.65 L3.38,101.08 Z" id="Combined-Shape-Copy-3" fill="#FDD43E"></path>
                <g id="Group-9-Copy-7" transform="translate(16.000000, 26.000000)">
                    <g id="Rectangle-+-Rectangle-Copy-39-+-Rectangle-Copy-38-+-Rectangle-Copy-40-+-Rectangle-Copy-41-+-Rectangle-Copy-42-+-Rectangle-Copy-43-+-Rectangle-Copy-44-Mask" transform="translate(0.000000, 3.407040)">
                        <mask id="mask-2" fill="white">
                            <use xlink:href="#path-1"></use>
                        </mask>
                        <use id="Mask" fill="#DFA500" xlink:href="#path-1"></use>
                    </g>
                    <g id="Oval-Copy-11">
                        <use fill="black" fill-opacity="1" filter="url(#filter-5)" xlink:href="#path-4"></use>
                        <use fill="url(#linearGradient-3)" fill-rule="evenodd" xlink:href="#path-4"></use>
                    </g>
                    <g id="Rectangle-+-Rectangle-Copy-50-Mask" transform="translate(3.407040, 3.407040)">
                        <mask id="mask-7" fill="white">
                            <use xlink:href="#path-6"></use>
                        </mask>
                        <use id="Mask" fill="#FFDD00" xlink:href="#path-6"></use>
                    </g>
                    <g id="Oval">
                        <use fill="#FFC002" fill-rule="evenodd" xlink:href="#path-8"></use>
                        <use fill="black" fill-opacity="1" filter="url(#filter-9)" xlink:href="#path-8"></use>
                    </g>
                    <path d="M11.19456,64.4342012 C18.1612797,73.7614334 29.2881232,79.7999283 41.8253328,79.7999283 C62.9267635,79.7999283 80.0328528,62.6938389 80.0328528,41.5924083 C80.0328528,29.4784184 74.3951607,18.6811819 65.6003574,11.68128" id="Path" fill-opacity="0.03" fill="#A53A00"></path>
                    <g id="C" fill="#FFDD00" fill-opacity="1">
                        <use filter="url(#filter-11)" xlink:href="#text-10"></use>
                        <use xlink:href="#text-10"></use>
                    </g>
                </g>
                <g id="Group-9-Copy-8" transform="translate(73.000000, 52.000000)">
                    <g id="Rectangle-+-Rectangle-Copy-39-+-Rectangle-Copy-38-+-Rectangle-Copy-40-+-Rectangle-Copy-41-+-Rectangle-Copy-42-+-Rectangle-Copy-43-+-Rectangle-Copy-44-Mask" transform="translate(0.000000, 2.384928)">
                        <mask id="mask-13" fill="white">
                            <use xlink:href="#path-12"></use>
                        </mask>
                        <use id="Mask" fill="#DFA500" xlink:href="#path-12"></use>
                    </g>
                    <g id="Oval-Copy-11">
                        <use fill="black" fill-opacity="1" filter="url(#filter-15)" xlink:href="#path-14"></use>
                        <use fill="url(#linearGradient-3)" fill-rule="evenodd" xlink:href="#path-14"></use>
                    </g>
                    <g id="Rectangle-+-Rectangle-Copy-50-Mask" transform="translate(2.384928, 2.384928)">
                        <mask id="mask-17" fill="white">
                            <use xlink:href="#path-16"></use>
                        </mask>
                        <use id="Mask" fill="#FFDD00" xlink:href="#path-16"></use>
                    </g>
                    <g id="Oval">
                        <use fill="#FFC002" fill-rule="evenodd" xlink:href="#path-18"></use>
                        <use fill="black" fill-opacity="1" filter="url(#filter-19)" xlink:href="#path-18"></use>
                    </g>
                    <path d="M7.836192,45.1039408 C12.7128958,51.6330033 20.5016863,55.8599498 29.277733,55.8599498 C44.0487344,55.8599498 56.022997,43.8856873 56.022997,29.1146858 C56.022997,20.6348928 52.0766125,13.0768274 45.9202502,8.176896" id="Path" fill-opacity="0.03" fill="#A53A00"></path>
                    <g id="C" fill="#FFDD00" fill-opacity="1">
                        <use filter="url(#filter-21)" xlink:href="#text-20"></use>
                        <use xlink:href="#text-20"></use>
                    </g>
                </g>
            </g>
        </g>
    </g>
</svg>