<svg xmlns="http://www.w3.org/2000/svg" width="150" height="144" viewBox="0 0 150 144">
    <g fill="none" fill-rule="evenodd">
        <g>
            <circle cx="75" cy="72" r="72" fill="#FFF"/>
            <circle cx="75" cy="72" r="72" fill="#1EBC61" fill-opacity=".2"/>
            <circle cx="73.5" cy="71.5" r="52.5" fill="#1EBC61" fill-opacity=".1"/>
            <path fill="#1EBC61" fill-opacity=".92" d="M14.24 29.64h2.34a1.3 1.3 0 1 1 0 2.6h-2.34v2.34a1.3 1.3 0 1 1-2.6 0v-2.34H9.3a1.3 1.3 0 1 1 0-2.6h2.34V27.3a1.3 1.3 0 1 1 2.6 0v2.34zM121.38 28.08h1.17a.65.65 0 0 1 .65.65v.26a.65.65 0 0 1-.65.65h-1.17v.91a.65.65 0 0 1-.65.65h-.26a.65.65 0 0 1-.65-.65v-.91h-1.17a.65.65 0 0 1-.65-.65v-.26a.65.65 0 0 1 .65-.65h1.17v-1.43a.65.65 0 0 1 .65-.65h.26a.65.65 0 0 1 .65.65v1.43zM147.38 73.08h1.17a.65.65 0 0 1 .65.65v.26a.65.65 0 0 1-.65.65h-1.17v.91a.65.65 0 0 1-.65.65h-.26a.65.65 0 0 1-.65-.65v-.91h-1.17a.65.65 0 0 1-.65-.65v-.26a.65.65 0 0 1 .65-.65h1.17v-1.43a.65.65 0 0 1 .65-.65h.26a.65.65 0 0 1 .65.65v1.43zM3.38 100.08h1.17a.65.65 0 0 1 .65.65v.26a.65.65 0 0 1-.65.65H3.38v.91a.65.65 0 0 1-.65.65h-.26a.65.65 0 0 1-.65-.65v-.91H.65a.65.65 0 0 1-.65-.65v-.26a.65.65 0 0 1 .65-.65h1.17v-1.43a.65.65 0 0 1 .65-.65h.26a.65.65 0 0 1 .65.65v1.43z"/>
        </g>
        <g transform="rotate(15 -96.934 384.722)">
            <rect width="38.087" height="75.158" x=".84" y=".84" fill="#97EBA9" stroke="#1EBC61" stroke-opacity=".92" stroke-width="1.68" rx=".56"/>
            <path fill="#1EBC61" fill-opacity=".92" d="M1.68 2.243v-.56h12.234c.058.459.089.927.089 1.402 0 6.04-4.89 10.937-10.922 10.937-.475 0-.942-.03-1.4-.09V2.243z"/>
            <path fill="#22A76E" d="M1.68 74.596v.56h12.234c.058-.46.089-.927.089-1.403 0-6.04-4.89-10.936-10.922-10.936-.475 0-.942.03-1.4.089v11.69z"/>
            <path fill="#1EBC61" fill-opacity=".92" d="M38.087 2.243v-.56H25.854c-.059.459-.09.927-.09 1.402 0 6.04 4.89 10.937 10.923 10.937.474 0 .942-.03 1.4-.09V2.243z"/>
            <path fill="#22A76E" d="M38.087 74.596v.56H25.854c-.059-.46-.09-.927-.09-1.403 0-6.04 4.89-10.936 10.923-10.936.474 0 .942.03 1.4.089v11.69z"/>
            <path fill="#1EBC61" fill-opacity=".92" d="M19.884 49.356c-6.032 0-10.922-4.897-10.922-10.937 0-6.04 4.89-10.937 10.922-10.937 6.032 0 10.922 4.897 10.922 10.937 0 6.04-4.89 10.937-10.922 10.937zm-2.616-9.372c-.228 0-.881 0-1.084-1.03h2.255c-.342 1.03-.854 1.03-1.171 1.03zm3.25-2.428c.306-1.031.732-1.239 1.377-1.239.874 0 1.202.678 1.324 1.24h-2.7zm-1.756 0h-2.533c.167-.481.536-.755 1.204-.914.458-.11.732-.447.732-.9 0-.557-.364-.946-.885-.946-.102 0-.214.017-.312.045-1.392.334-2.224 1.27-2.42 2.715h-.39c-.447 0-.724.263-.724.687 0 .438.277.711.724.711h.366c.157 1.683 1.256 2.834 2.744 2.834 2.055 0 2.57-1.52 2.93-2.834h3.004c-.174.741-.614 1.13-1.368 1.217-.5.064-.787.39-.787.894 0 .604.343.994.873.994.045 0 .12 0 .173-.014 1.15-.154 2.529-1.058 2.761-3.09h.62c.41 0 .675-.28.675-.712 0-.424-.26-.687-.676-.687h-.617c-.223-2.089-1.665-3.043-2.961-3.043-2.14 0-2.732 1.414-3.133 3.043zM18.483 8.413h2.801v13.461h-2.801z"/>
            <path fill="#22A76E" d="M18.483 54.965h2.801v13.461h-2.801z"/>
        </g>
        <g transform="rotate(-15 191.653 -32.677)">
            <rect width="38.087" height="75.158" x=".84" y=".84" fill="#97EBA9" stroke="#1EBC61" stroke-opacity=".92" stroke-width="1.68" rx=".56"/>
            <path fill="#1EBC61" fill-opacity=".92" d="M1.68 2.243v-.56h12.234c.058.459.089.927.089 1.402 0 6.04-4.89 10.937-10.922 10.937-.475 0-.942-.03-1.4-.09V2.243z"/>
            <path fill="#22A76E" d="M1.68 74.596v.56h12.234c.058-.46.089-.927.089-1.403 0-6.04-4.89-10.936-10.922-10.936-.475 0-.942.03-1.4.089v11.69z"/>
            <path fill="#1EBC61" fill-opacity=".92" d="M38.087 2.243v-.56H25.854c-.059.459-.09.927-.09 1.402 0 6.04 4.89 10.937 10.923 10.937.474 0 .942-.03 1.4-.09V2.243z"/>
            <path fill="#22A76E" d="M38.087 74.596v.56H25.854c-.059-.46-.09-.927-.09-1.403 0-6.04 4.89-10.936 10.923-10.936.474 0 .942.03 1.4.089v11.69z"/>
            <path fill="#1EBC61" fill-opacity=".92" d="M19.884 49.356c-6.032 0-10.922-4.897-10.922-10.937 0-6.04 4.89-10.937 10.922-10.937 6.032 0 10.922 4.897 10.922 10.937 0 6.04-4.89 10.937-10.922 10.937zm-2.616-9.372c-.228 0-.881 0-1.084-1.03h2.255c-.342 1.03-.854 1.03-1.171 1.03zm3.25-2.428c.306-1.031.732-1.239 1.377-1.239.874 0 1.202.678 1.324 1.24h-2.7zm-1.756 0h-2.533c.167-.481.536-.755 1.204-.914.458-.11.732-.447.732-.9 0-.557-.364-.946-.885-.946-.102 0-.214.017-.312.045-1.392.334-2.224 1.27-2.42 2.715h-.39c-.447 0-.724.263-.724.687 0 .438.277.711.724.711h.366c.157 1.683 1.256 2.834 2.744 2.834 2.055 0 2.57-1.52 2.93-2.834h3.004c-.174.741-.614 1.13-1.368 1.217-.5.064-.787.39-.787.894 0 .604.343.994.873.994.045 0 .12 0 .173-.014 1.15-.154 2.529-1.058 2.761-3.09h.62c.41 0 .675-.28.675-.712 0-.424-.26-.687-.676-.687h-.617c-.223-2.089-1.665-3.043-2.961-3.043-2.14 0-2.732 1.414-3.133 3.043zM18.483 8.413h2.801v13.461h-2.801z"/>
            <path fill="#22A76E" d="M18.483 54.965h2.801v13.461h-2.801z"/>
        </g>
        <g transform="translate(54.767 34)">
            <rect width="38.087" height="75.158" x=".84" y=".84" fill="#97EBA9" stroke="#1EBC61" stroke-opacity=".92" stroke-width="1.68" rx=".56"/>
            <path fill="#1EBC61" fill-opacity=".92" d="M1.68 2.243v-.56h12.234c.058.459.089.927.089 1.402 0 6.04-4.89 10.937-10.922 10.937-.475 0-.942-.03-1.4-.09V2.243z"/>
            <path fill="#22A76E" d="M1.68 74.596v.56h12.234c.058-.46.089-.927.089-1.403 0-6.04-4.89-10.936-10.922-10.936-.475 0-.942.03-1.4.089v11.69z"/>
            <path fill="#1EBC61" fill-opacity=".92" d="M38.087 2.243v-.56H25.854c-.059.459-.09.927-.09 1.402 0 6.04 4.89 10.937 10.923 10.937.474 0 .942-.03 1.4-.09V2.243z"/>
            <path fill="#22A76E" d="M38.087 74.596v.56H25.854c-.059-.46-.09-.927-.09-1.403 0-6.04 4.89-10.936 10.923-10.936.474 0 .942.03 1.4.089v11.69z"/>
            <path fill="#1EBC61" fill-opacity=".92" d="M19.884 49.356c-6.032 0-10.922-4.897-10.922-10.937 0-6.04 4.89-10.937 10.922-10.937 6.032 0 10.922 4.897 10.922 10.937 0 6.04-4.89 10.937-10.922 10.937zm-2.616-9.372c-.228 0-.881 0-1.084-1.03h2.255c-.342 1.03-.854 1.03-1.171 1.03zm3.25-2.428c.306-1.031.732-1.239 1.377-1.239.874 0 1.202.678 1.324 1.24h-2.7zm-1.756 0h-2.533c.167-.481.536-.755 1.204-.914.458-.11.732-.447.732-.9 0-.557-.364-.946-.885-.946-.102 0-.214.017-.312.045-1.392.334-2.224 1.27-2.42 2.715h-.39c-.447 0-.724.263-.724.687 0 .438.277.711.724.711h.366c.157 1.683 1.256 2.834 2.744 2.834 2.055 0 2.57-1.52 2.93-2.834h3.004c-.174.741-.614 1.13-1.368 1.217-.5.064-.787.39-.787.894 0 .604.343.994.873.994.045 0 .12 0 .173-.014 1.15-.154 2.529-1.058 2.761-3.09h.62c.41 0 .675-.28.675-.712 0-.424-.26-.687-.676-.687h-.617c-.223-2.089-1.665-3.043-2.961-3.043-2.14 0-2.732 1.414-3.133 3.043zM18.483 8.413h2.801v13.461h-2.801z"/>
            <path fill="#22A76E" d="M18.483 54.965h2.801v13.461h-2.801z"/>
        </g>
        <g stroke-linecap="round" stroke-linejoin="round">
            <path fill="#E8E8E8" stroke="#BDBDBD" stroke-width="2.1" d="M70.037 99.011l-50.506 30.861V68.15l50.506 30.861zM79.963 99.011l50.506-30.861v61.722L79.963 99.011z"/>
            <path fill="#E8E8E8" stroke="#BDBDBD" stroke-width="2.1" d="M81.111 90.695l51.474 38.355H17.508l51.474-38.355a10.15 10.15 0 0 1 12.13 0z"/>
            <path stroke="#FFF" stroke-opacity=".6" stroke-width="2" d="M43.605 117.015l28.232-22.243M29.06 78.67l23.085 14.223M120.652 78.67L97.566 92.892"/>
        </g>
    </g>
</svg>
