<?xml version="1.0" encoding="UTF-8"?>
<svg width="75px" height="55px" viewBox="0 0 75 55" version="1.1" xmlns="http://www.w3.org/2000/svg" xmlns:xlink="http://www.w3.org/1999/xlink">
    <!-- Generator: sketchtool 52.5 (67469) - http://www.bohemiancoding.com/sketch -->
    <title>85791FE1-5EE8-4EE1-A24B-90E200494855</title>
    <desc>Created with sketchtool.</desc>
    <g id="02_메인" stroke="none" stroke-width="1" fill="none" fill-rule="evenodd">
        <g id="이벤트-02" transform="translate(-141.000000, -286.000000)">
            <g id="event" transform="translate(141.000000, 283.000000)">
                <path d="M38.1576342,14.9768636 C45.1232522,7.21829585 50.0236925,4.74346546 52.8589553,7.55237241 C57.2209141,11.8737837 56.7956014,16.2218062 52.8589553,18.3039762 C50.2345245,19.6920894 46.8809863,20.509683 42.7983406,20.7567568 L38.8269751,20.0655127 L38.7890731,19.9250599 C38.5288094,20.2794326 38.1091479,20.5094555 37.6357616,20.5094555 L31.8071744,20.5094555 C31.0554622,20.5094555 30.4392209,19.9294355 30.381579,19.1925239 L30.1459978,20.0655127 L26.1746323,20.7567568 C22.0919867,20.509683 18.7384485,19.6920894 16.1140177,18.3039762 C12.1773716,16.2218062 11.7520589,11.8737837 16.1140177,7.55237241 C18.9701875,4.7227528 23.922104,7.25508157 30.9697674,15.1493587 C31.2051416,14.9790404 31.4944338,14.8786463 31.8071744,14.8786463 L37.6357616,14.8786463 C37.8199241,14.8786463 37.9959556,14.9134593 38.1576342,14.9768636 Z" id="Combined-Shape" fill="#FFE34C"></path>
                <rect id="Rectangle" stroke="#4A4A4A" stroke-width="1.43" fill="#D8D8D8" x="13.715" y="57.2825676" width="51.57" height="1" rx="0.5"></rect>
                <path d="M43.0810811,17.9917834 C51.7016101,12.8410325 57.2879386,11.1034838 59.8400664,12.7791374" id="Path-9" stroke="#4A4A4A" stroke-width="1.43"></path>
                <path d="M17.5129573,17.9917834 C26.7757043,12.8934965 32.7676235,11.2769078 35.4887151,13.1420173" id="Path-9-Copy" stroke="#4A4A4A" stroke-width="1.43" transform="translate(26.500836, 15.192230) scale(-1, 1) translate(-26.500836, -15.192230) "></path>
                <path d="M42.3910994,15.6431104 C49.0705594,7.33084918 53.8485465,4.64049479 56.7250608,7.57204721 C61.0398322,11.9693758 60.6191205,16.3937833 56.7250608,18.5125322 C54.129021,19.9250314 50.8117612,20.7569882 46.7732813,21.0084025 L42.3910994,20.3050149 L42.3910994,15.6431104 Z" id="Path-8" stroke="#4A4A4A" stroke-width="1.43"></path>
                <path d="M17.2972973,15.6135264 C24.3591649,7.32098785 29.3283558,4.64049479 32.2048701,7.57204721 C36.5196415,11.9693758 36.0989298,16.3937833 32.2048701,18.5125322 C29.6088302,19.9250314 26.2915704,20.7569882 22.2530906,21.0084025 L18.324687,20.3050149 L17.2972973,15.6135264 Z" id="Path-8-Copy" stroke="#4A4A4A" stroke-width="1.43" transform="translate(26.291249, 13.715969) scale(-1, 1) translate(-26.291249, -13.715969) "></path>
                <rect id="Rectangle" stroke="#4A4A4A" stroke-width="1.43" fill="#FFFFFF" x="18.0122973" y="25.7690541" width="42.9754054" height="31.5159459"></rect>
                <rect id="Rectangle" stroke="#4A4A4A" stroke-width="1.43" x="35.2014865" y="15.742027" width="7.16459459" height="4.29972973" rx="1.43"></rect>
                <rect id="Rectangle" stroke="#4A4A4A" stroke-width="1.43" fill="#FFFFFF" x="15.1474324" y="18.6068919" width="48.7051351" height="8.59702703" rx="1.43"></rect>
                <rect id="Rectangle-Copy-25" fill="#FFE34C" x="33.0540541" y="19.3243243" width="11.4594595" height="7.16216216"></rect>
                <rect id="Rectangle-Copy-30" fill="#4A4A4A" x="43.0810811" y="19.3243243" width="1.43243243" height="7.16216216"></rect>
                <rect id="Rectangle-Copy-31" fill="#4A4A4A" x="33.0540541" y="19.3243243" width="1.43243243" height="7.16216216"></rect>
                <rect id="Rectangle-Copy-27" fill="#FFE34C" x="34.4864865" y="27.9189189" width="8.59459459" height="28.6486486"></rect>
                <rect id="Rectangle-Copy-32" fill="#4A4A4A" x="34.4864865" y="27.9189189" width="1.43243243" height="28.6486486"></rect>
                <rect id="Rectangle-Copy-33" fill="#4A4A4A" x="41.6486486" y="27.9189189" width="1.43243243" height="28.6486486"></rect>
                <g id="Group-6" stroke="#7D7D7D" stroke-width="1.43">
                    <ellipse id="Oval" cx="5.01886792" cy="19.5" rx="2.1509434" ry="2.16666667"></ellipse>
                    <path d="M9.32273585,6.44201403 L6.50720105,6.44201403 L6.50720105,3.60388889 L6.50323879,3.60388889 L6.50323879,6.44201403 L3.58292453,6.44201403 L3.58292453,6.45645848 L6.50323879,6.45645848 L6.50323879,9.39611111 L6.50720105,9.39611111 L6.50720105,6.45645848 L9.32273585,6.45645848 L9.32273585,6.44201403 Z" id="Combined-Shape" transform="translate(6.452830, 6.500000) rotate(-315.000000) translate(-6.452830, -6.500000) "></path>
                    <ellipse id="Oval-Copy-6" cx="71.6981132" cy="21.6666667" rx="1.43396226" ry="1.44444444"></ellipse>
                    <path d="M72.4170755,32.442014 L69.6015407,32.442014 L69.6015407,29.6038889 L69.5975784,29.6038889 L69.5975784,32.442014 L66.6772642,32.442014 L66.6772642,32.4564585 L69.5975784,32.4564585 L69.5975784,35.3961111 L69.6015407,35.3961111 L69.6015407,32.4564585 L72.4170755,32.4564585 L72.4170755,32.442014 Z" id="Combined-Shape-Copy" transform="translate(69.547170, 32.500000) rotate(-315.000000) translate(-69.547170, -32.500000) "></path>
                </g>
            </g>
        </g>
    </g>
</svg>