<svg xmlns="http://www.w3.org/2000/svg" width="62" height="63" viewBox="0 0 62 63">
    <g fill="none" fill-rule="evenodd" transform="translate(2 4)">
        <circle cx="32.5" cy="26.5" r="26.5" fill="#FFE34C"/>
        <path stroke="#4A4A4A" stroke-linecap="round" stroke-linejoin="round" stroke-width="2" d="M49.206 38.738l3.97 12.96-13.436-2.62A25.878 25.878 0 0 1 26 53C11.64 53 0 41.36 0 27S11.64 1 26 1s26 11.64 26 26a25.89 25.89 0 0 1-2.794 11.738z"/>
        <g fill="#FFF" stroke="#FFE34C">
            <path d="M26.102 34c-.6 0-1.101.2-1.502.6-.4.4-.6.901-.6 1.502 0 .65.2 1.2.65 1.551.45.35.951.55 1.502.55.55 0 1.05-.2 1.45-.55.401-.35.651-.9.651-1.551 0-.6-.2-1.101-.6-1.501-.45-.4-.95-.601-1.551-.601zM29.809 17.75c-1.051-.5-2.252-.75-3.603-.75-1.451 0-2.752.3-3.853.9-1.101.601-1.952 1.352-2.502 2.253-.55.9-.851 1.801-.851 2.702 0 .45.2.85.55 1.2.35.351.801.551 1.351.551.901 0 1.502-.55 1.802-1.601.35-1 .75-1.801 1.25-2.302.501-.5 1.252-.8 2.303-.8.9 0 1.601.25 2.151.75.55.5.851 1.151.851 1.902 0 .4-.1.75-.25 1.05-.2.35-.4.651-.7.901-.3.25-.701.65-1.302 1.201-.7.6-1.25 1.101-1.651 1.552-.4.45-.75.95-.95 1.5-.25.601-.351 1.252-.351 2.053 0 .65.15 1.1.5 1.4.35.3.751.501 1.251.501.951 0 1.502-.5 1.652-1.451.1-.45.2-.8.25-.95.05-.201.1-.351.2-.551.1-.2.25-.4.45-.6.2-.201.45-.501.751-.751 1.15-1.051 1.951-1.752 2.402-2.202.45-.45.85-.951 1.15-1.552.301-.6.501-1.3.501-2.101 0-1.001-.3-1.952-.85-2.803-.651-.85-1.452-1.501-2.502-2.001z"/>
        </g>
    </g>
</svg>
