<?xml version="1.0" encoding="UTF-8"?>
<svg width="62px" height="63px" viewBox="0 0 62 63" version="1.1" xmlns="http://www.w3.org/2000/svg" xmlns:xlink="http://www.w3.org/1999/xlink">
    <!-- Generator: sketchtool 52.5 (67469) - http://www.bohemiancoding.com/sketch -->
    <title>B5D9E35A-F897-40F8-AFF6-EF1C1A75016B</title>
    <desc>Created with sketchtool.</desc>
    <g id="02_메인" stroke="none" stroke-width="1" fill="none" fill-rule="evenodd">
        <g id="공지사항-02" transform="translate(-140.000000, -284.000000)">
            <g id="Group" transform="translate(140.000000, 284.000000)">
                <circle id="Oval" fill="#FFE34C" cx="34.5" cy="30.5" r="26.5"></circle>
                <path d="M51.2056541,42.7383319 L55.1767397,55.6978418 L41.7398127,53.0771458 C37.7532544,55.5634539 33.0443889,57 28,57 C13.6405965,57 2,45.3594035 2,31 C2,16.6405965 13.6405965,5 28,5 C42.3594035,5 54,16.6405965 54,31 C54,35.2236882 52.9928686,39.2121483 51.2056541,42.7383319 Z" id="Combined-Shape" stroke="#4A4A4A" stroke-width="2" stroke-linecap="round" stroke-linejoin="round"></path>
                <path d="M37.9097434,24.3566955 L25.7244702,36.0250201 L19.1829025,29.4712818 C18.6838675,28.9708164 17.8741882,28.9708164 17.3746521,29.4712818 C16.875116,29.9717472 16.875116,30.782933 17.3746521,31.2833984 L24.801055,38.7236182 C25.0415538,38.9665724 25.3702355,39.1011007 25.7119443,39.0965829 C26.0431312,39.0995948 26.3617921,38.9700862 26.5967794,38.7366694 L39.6929419,26.2074638 C39.93795,25.9725412 40.0802452,25.6492717 40.0872597,25.3094371 C40.0942743,24.9696025 39.9665092,24.6408112 39.7315219,24.3953472 C39.2379983,23.8838384 38.4248117,23.8662693 37.9097434,24.3566955 Z" id="Path" fill="#FFFFFF"></path>
            </g>
        </g>
    </g>
</svg>