<?xml version="1.0" encoding="UTF-8"?>
<svg width="301px" height="62px" viewBox="0 0 301 62" version="1.1" xmlns="http://www.w3.org/2000/svg" xmlns:xlink="http://www.w3.org/1999/xlink">
    <!-- Generator: sketchtool 52.5 (67469) - http://www.bohemiancoding.com/sketch -->
    <title>C7303970-60DB-4BEA-85DB-2EEECFDEC841</title>
    <desc>Created with sketchtool.</desc>
    <defs>
        <linearGradient x1="50%" y1="0%" x2="50%" y2="100%" id="linearGradient-1">
            <stop stop-color="#F02D3E" offset="0%"></stop>
            <stop stop-color="#710011" offset="100%"></stop>
        </linearGradient>
        <linearGradient x1="50%" y1="0%" x2="50%" y2="96.6695267%" id="linearGradient-2">
            <stop stop-color="#F86C79" offset="0%"></stop>
            <stop stop-color="#C50E2A" offset="100%"></stop>
        </linearGradient>
        <path d="M40.8776037,14 L322.193505,14 C324.736611,14 326.874588,15.9089081 327.161567,18.4357705 L331.989781,60.9483807 C332.301397,63.6921658 330.329734,66.1690573 327.585948,66.4806727 C327.398624,66.5019473 327.210247,66.5126102 327.021719,66.5126102 L36.0493895,66.5126102 C33.2879658,66.5126102 31.0493895,64.2740339 31.0493895,61.5126102 C31.0493895,61.324082 31.0600524,61.1357046 31.081327,60.9483807 L35.9095412,18.4357705 C36.1965203,15.9089081 38.3344972,14 40.8776037,14 Z" id="path-3"></path>
        <filter x="-0.6%" y="-1.9%" width="101.3%" height="107.6%" filterUnits="objectBoundingBox" id="filter-4">
            <feOffset dx="0" dy="1" in="SourceAlpha" result="shadowOffsetOuter1"></feOffset>
            <feGaussianBlur stdDeviation="0.5" in="shadowOffsetOuter1" result="shadowBlurOuter1"></feGaussianBlur>
            <feColorMatrix values="0 0 0 0 0   0 0 0 0 0   0 0 0 0 0  0 0 0 0.1 0" type="matrix" in="shadowBlurOuter1"></feColorMatrix>
        </filter>
    </defs>
    <g id="02_메인" stroke="none" stroke-width="1" fill="none" fill-rule="evenodd">
        <g id="잭팟머신_start_on" transform="translate(-31.000000, -14.000000)">
            <path d="M31,62 L332.01616,62 L332.01616,71.1230501 C332.01616,73.8844739 329.777583,76.1230501 327.01616,76.1230501 L36,76.1230501 C33.2385763,76.1230501 31,73.8844739 31,71.1230501 L31,62 Z" id="Rectangle-Copy" fill="url(#linearGradient-1)"></path>
            <g id="Rectangle">
                <use fill="black" fill-opacity="1" filter="url(#filter-4)" xlink:href="#path-3"></use>
                <use fill="url(#linearGradient-2)" fill-rule="evenodd" xlink:href="#path-3"></use>
            </g>
        </g>
    </g>
</svg>