<?xml version="1.0" encoding="UTF-8"?>
<svg width="19px" height="19px" viewBox="0 0 19 19" version="1.1" xmlns="http://www.w3.org/2000/svg" xmlns:xlink="http://www.w3.org/1999/xlink">
    <!-- Generator: sketchtool 52.5 (67469) - http://www.bohemiancoding.com/sketch -->
    <title>CC7F38B9-8FAF-44F4-A7F7-28504452C0BB</title>
    <desc>Created with sketchtool.</desc>
    <g id="02_메인" stroke="none" stroke-width="1" fill="none" fill-rule="evenodd">
        <g id="쇼핑-02" transform="translate(-256.000000, -303.000000)">
            <g id="02" transform="translate(0.000000, 267.000000)">
                <g id="heart" transform="translate(256.000000, 36.000000)">
                    <path d="M14.9356433,5.64478045 C14.3371255,5.0481759 13.5102178,4.75 12.4545487,4.75 C12.1624077,4.75 11.8642505,4.80170943 11.5603743,4.90507775 C11.2563743,5.0085219 10.9735669,5.14808177 10.712274,5.32365627 C10.4506344,5.49918023 10.2257848,5.66401353 10.0371558,5.81790343 C9.84874957,5.97184388 9.66962749,6.13543878 9.50001238,6.30856176 C9.33032299,6.13543878 9.15125043,5.97184388 8.96281945,5.81790343 C8.77426468,5.66401353 8.54931607,5.49928132 8.28772604,5.32365627 C8.02618552,5.14800595 7.74342764,5.00854717 7.43950191,4.90507775 C7.13560094,4.80173471 6.83749328,4.75 6.54535223,4.75 C5.48975747,4.75 4.66280023,5.04825172 4.06435671,5.64478045 C3.46591319,6.24125862 3.16666667,7.06860957 3.16666667,8.12690909 C3.16666667,8.44922112 3.22212395,8.78126342 3.3328157,9.12263161 C3.44350745,9.46417672 3.56964802,9.75525079 3.71098982,9.99572746 C3.85230687,10.2361789 4.01256356,10.4706657 4.19163613,10.6991881 C4.37070869,10.9276851 4.50157798,11.0851639 4.5839469,11.1717506 C4.6663901,11.2583374 4.7312058,11.3209397 4.77831973,11.3594564 L9.18898119,15.7033268 C9.27382588,15.7899136 9.37748644,15.8333333 9.49998762,15.8333333 C9.6224888,15.8333333 9.72622363,15.7899136 9.81101881,15.7033268 L14.2146738,11.3737359 C15.2938132,10.2723199 15.8333333,9.18996003 15.8333333,8.126808 C15.8333581,7.06843265 15.5341363,6.24115753 14.9356433,5.64478045 Z" id="Shape" fill="#F65037" fill-rule="nonzero"></path>
                    <circle id="Oval" stroke="#D8D8D8" stroke-width="1.2" cx="9.5" cy="9.5" r="8.9"></circle>
                </g>
            </g>
        </g>
    </g>
</svg>