<?xml version="1.0" encoding="UTF-8"?>
<svg width="301px" height="62px" viewBox="0 0 301 62" version="1.1" xmlns="http://www.w3.org/2000/svg" xmlns:xlink="http://www.w3.org/1999/xlink">
    <!-- Generator: sketchtool 52.5 (67469) - http://www.bohemiancoding.com/sketch -->
    <title>7A2AC5C1-45B8-4E3E-A292-6827DD9BFBA8</title>
    <desc>Created with sketchtool.</desc>
    <defs>
        <linearGradient x1="50%" y1="0%" x2="50%" y2="98.2726698%" id="linearGradient-1">
            <stop stop-color="#515151" offset="0%"></stop>
            <stop stop-color="#2A2A2A" offset="100%"></stop>
        </linearGradient>
        <linearGradient x1="50%" y1="3.5765896%" x2="50%" y2="100%" id="linearGradient-2">
            <stop stop-color="#7C7C7C" offset="0%"></stop>
            <stop stop-color="#3D3D3D" offset="100%"></stop>
        </linearGradient>
        <path d="M9.87760366,6.50828744e-15 L291.193505,-3.55271368e-15 C293.736611,-3.33833948e-14 295.874588,1.90890807 296.161567,4.43577048 L300.989781,46.9483807 C301.301397,49.6921658 299.329734,52.1690573 296.585948,52.4806727 C296.398624,52.5019473 296.210247,52.5126102 296.021719,52.5126102 L5.04938953,52.5126102 C2.28796578,52.5126102 0.0493895333,50.2740339 0.0493895333,47.5126102 C0.0493895333,47.324082 0.0600523924,47.1357046 0.0813270286,46.9483807 L4.90954116,4.43577048 C5.19652031,1.90890807 7.33449716,1.11253021e-14 9.87760366,1.0658141e-14 Z" id="path-3"></path>
        <filter x="-0.6%" y="-1.9%" width="101.3%" height="107.6%" filterUnits="objectBoundingBox" id="filter-4">
            <feOffset dx="0" dy="1" in="SourceAlpha" result="shadowOffsetOuter1"></feOffset>
            <feGaussianBlur stdDeviation="0.5" in="shadowOffsetOuter1" result="shadowBlurOuter1"></feGaussianBlur>
            <feColorMatrix values="0 0 0 0 0   0 0 0 0 0   0 0 0 0 0  0 0 0 0.1 0" type="matrix" in="shadowBlurOuter1"></feColorMatrix>
        </filter>
    </defs>
    <g id="02_메인" stroke="none" stroke-width="1" fill="none" fill-rule="evenodd">
        <g id="잭팟머신_start_off" transform="translate(-30.000000, -14.000000)">
            <g id="btn" transform="translate(30.000000, 14.000000)">
                <path d="M0,48 L301.01616,48 L301.01616,57.1230501 C301.01616,59.8844739 298.777583,62.1230501 296.01616,62.1230501 L5,62.1230501 C2.23857625,62.1230501 1.2263553e-15,59.8844739 8.8817842e-16,57.1230501 L0,48 Z" id="Rectangle-Copy" fill="url(#linearGradient-1)"></path>
                <g id="Rectangle">
                    <use fill="black" fill-opacity="1" filter="url(#filter-4)" xlink:href="#path-3"></use>
                    <use fill="url(#linearGradient-2)" fill-rule="evenodd" xlink:href="#path-3"></use>
                </g>
            </g>
        </g>
    </g>
</svg>