<svg xmlns="http://www.w3.org/2000/svg" width="21" height="21" viewBox="0 0 21 21">
    <g fill="none" fill-rule="evenodd">
        <path fill="#000" fill-opacity=".5" d="M0 0h21v21H0z"/>
        <path fill="#FFF" d="M4.183 5.084a.647.647 0 0 1 0-.901.648.648 0 0 1 .902 0l5.412 5.42 5.42-5.42a.636.636 0 0 1 .894 0 .632.632 0 0 1 0 .901l-5.412 5.412 5.412 5.42a.632.632 0 0 1 0 .901.636.636 0 0 1-.893 0l-5.421-5.42-5.412 5.42a.648.648 0 0 1-.902 0 .647.647 0 0 1 0-.901l5.412-5.42-5.412-5.412z"/>
    </g>
</svg>
