<?xml version="1.0" encoding="UTF-8"?>
<svg width="58px" height="38px" viewBox="0 0 58 38" version="1.1" xmlns="http://www.w3.org/2000/svg" xmlns:xlink="http://www.w3.org/1999/xlink">
    <!-- Generator: sketchtool 52.5 (67469) - http://www.bohemiancoding.com/sketch -->
    <title>C15C58F6-CF52-4E75-8F03-043494874DEF</title>
    <desc>Created with sketchtool.</desc>
    <g id="02_메인" stroke="none" stroke-width="1" fill="none" fill-rule="evenodd">
        <g id="무료-충전소-01" transform="translate(-25.000000, -184.000000)">
            <g id="02-copy" transform="translate(0.000000, 170.000000)">
                <g id="코인아이콘" transform="translate(25.000000, 14.000000)">
                    <circle id="Oval" fill="#FFE34C" cx="13.170859" cy="22.9298214" r="12.5"></circle>
                    <path d="M56.4764208,26.8345407 C56.4764208,26.953683 56.4439903,27.0592814 56.41526,27.1525471 C56.3979565,27.2088148 56.3784764,27.2726804 56.3784764,27.3080267 C56.3784764,27.676685 55.729214,28.5014315 53.296058,29.2536134 C51.0376784,29.9446827 48.0398186,30.3251232 44.853688,30.3251232 C38.9800726,30.3251232 34.7175333,29.0166502 33.6888996,27.7855868 L33.6145707,27.6965054 L33.5901935,26.6329238 L33.5370859,23.5611011 L34.0206046,23.8090756 C34.7906651,24.204051 35.6040387,24.5180933 36.4380895,24.7425036 C38.7778718,25.4031817 41.7613664,25.7664445 44.8428053,25.7664445 C48.1274244,25.7664445 51.2520677,25.37235 53.6412576,24.6568357 C54.4790085,24.4146972 55.2670254,24.0973515 55.9863724,23.7125065 L56.4654293,23.4562735 L56.4654293,26.5042017 L56.4764208,26.5042017 L56.4764208,26.8345407 Z M56.4764208,33.4082875 C56.4764208,33.7807998 55.8391294,34.6119328 53.4500484,35.364335 C51.203422,36.0699391 48.2278718,36.4584178 45.0713422,36.4584178 C41.899468,36.4584178 38.9321886,36.0818314 36.7161427,35.3980296 C34.4969407,34.709603 33.7097944,33.9255984 33.7097944,33.463344 L33.7097944,33.4413214 L33.6460218,29.7157578 L34.1297582,29.9647233 C36.4451632,31.1555955 40.4540266,31.8667053 44.853688,31.8667053 C48.1847763,31.8667053 51.3395647,31.4612692 53.7371342,30.7247233 C54.4884764,30.4986613 55.248416,30.1809852 55.9972551,29.7799536 L56.4764208,29.5232802 L56.4764208,33.4082875 Z M33.5183676,21.3945175 C33.5110762,21.350142 33.5022612,21.2970675 33.4936638,21.2755955 L33.4478476,21.1594263 L33.4893108,21.0417154 C33.6619105,20.5523732 34.6334099,19.8043755 36.8421644,19.1721066 C38.9852963,18.560539 41.7841112,18.2237033 44.7230955,18.2237033 L44.8645707,18.2237033 C48.0587545,18.2237033 51.1477025,18.6101999 53.3391536,19.2840916 C55.5013301,19.9476326 56.3580169,20.6774616 56.4387666,21.1391655 L56.4437727,21.2188873 L56.4430109,21.2300087 C56.418416,21.6021907 55.7159371,22.4311214 53.2393591,23.176146 C50.9929504,23.85235 48.018815,24.2248624 44.8645707,24.2248624 C41.9136155,24.2248624 39.0766022,23.8842828 36.8763362,23.2658881 C34.3480653,22.5425558 33.7003265,21.7409331 33.5618984,21.5124486 L33.5289238,21.4577224 L33.5183676,21.3945175 Z M32.5806046,19.6788467 L32.4833132,19.787308 L32.2406288,19.787308 C31.2828416,19.787308 30.2683555,19.7499797 29.2251391,19.6764242 L28.9962757,19.6602376 L28.9338089,19.4369284 C28.5248368,17.977931 27.8861306,16.6346624 27.0354293,15.4443408 L26.5943531,14.8273776 L27.3409069,14.9230658 C28.9807134,15.1331614 30.625526,15.2397508 32.2297461,15.2397508 C35.5710641,15.2397508 38.7377146,14.8340945 41.1461669,14.0976586 C42.0116687,13.8246885 42.7767231,13.5081136 43.4823579,13.1307563 L43.9613059,12.8746334 L43.9613059,16.6620806 L43.6439661,16.6709997 C38.3471342,16.8206433 34.1078839,17.9730861 32.5806046,19.6788467 Z M29.3364692,21.6040626 L29.2980532,21.2152535 L29.6834099,21.2415706 C30.2538815,21.2806607 30.8962878,21.3056563 31.6474123,21.3178789 L31.9685611,21.3231643 L31.9685611,21.6266358 C31.9741112,21.6552651 31.9793349,21.687308 31.9793349,21.725297 L32.0505079,25.8812924 L31.713688,25.8765575 C30.9380774,25.8654361 30.1735671,25.8319618 29.4411608,25.776685 L29.0748489,25.7489365 L29.1450423,25.384022 C29.3071947,24.5422081 29.3893591,23.69643 29.3893591,22.8704723 C29.3992624,22.4749464 29.3819589,22.0635642 29.3364692,21.6040626 Z M31.8119589,32.0208635 C30.1376542,31.998951 28.4225393,31.8457838 26.7143894,31.5651058 L26.1554534,31.4733816 L26.5139299,31.0299565 C27.3793229,29.959548 28.0649335,28.7709881 28.5516082,27.4972008 L28.6396493,27.2668444 L28.8828779,27.2869951 C29.8949698,27.3714518 30.8647279,27.4193509 31.7653809,27.429151 L32.088162,27.4327847 L32.088162,27.9576934 L32.1474728,32.0251579 L31.8119589,32.0208635 Z M24.2215961,31.2415937 C22.1486578,33.1531556 19.4998065,34.1887685 16.712636,34.1887685 C16.5342684,34.1887685 16.3556832,34.1845842 16.1761185,34.1761055 C13.1930593,34.03439 10.4449577,32.7261374 8.43796856,30.4922747 C4.29078597,25.8764474 4.62270859,18.7120545 9.17810157,14.521814 C11.2489722,12.6201623 13.9202418,11.5728774 16.7001209,11.5728774 C17.8178839,11.5728774 18.9333615,11.7406897 20.0157557,12.0714691 C23.8951149,13.3080382 26.8238694,16.5713474 27.6628174,20.5889307 C27.812237,21.3563083 27.8875453,22.1224746 27.8875453,22.8704723 C27.8875453,26.0596755 26.5512576,29.1107969 24.2215961,31.2415937 Z M43.9613059,6.76336134 L43.9613059,10.130397 C43.9613059,10.2321414 43.94052,10.3643871 43.8975333,10.534732 C43.8319105,10.7958099 43.6989238,11.031672 43.5130472,11.2168821 C43.0055865,11.7223008 42.0604232,12.1892901 40.7040024,12.6047465 C38.4414873,13.2927325 35.3529746,13.6871573 32.2297461,13.6871573 C29.4865417,13.6871573 26.8259371,13.3901826 24.737763,12.8509591 L24.715127,12.8442422 C24.6849819,12.8386265 24.6592987,12.8326804 24.6281741,12.8222196 L24.5740871,12.8039409 L24.5291415,12.7681542 C23.5330472,11.9723674 22.4159371,11.3333816 21.2091536,10.8685946 L21.004341,10.7898638 L20.9091173,6.90981165 L21.3967715,7.16009852 C22.139081,7.54097943 22.9084885,7.84015648 23.6838815,8.0493712 C26.0066868,8.73174152 29.0392624,9.10634599 32.2297461,9.10634599 C35.574873,9.10634599 38.7373881,8.70079977 41.1348489,7.96447407 C41.9339661,7.74380759 42.7208948,7.42679223 43.4823579,7.01948421 L43.9613059,6.76336134 Z M20.8364208,4.52432338 C20.862104,4.15819762 21.5308464,3.34369168 23.8736759,2.61331208 L23.8740024,2.61320197 C26.1220435,1.91508548 29.0934583,1.53068096 32.2406288,1.53068096 C35.3893229,1.53068096 38.4782709,1.92510577 40.7152116,2.61298174 C43.1659976,3.36714575 43.8198307,4.19090119 43.8198307,4.55878876 C43.8198307,4.93229209 43.1633857,5.7626543 40.7028053,6.50492611 C38.4414873,7.19247175 35.3570012,7.58689655 32.2406288,7.58689655 C29.2055502,7.58689655 26.3246796,7.23024051 24.1286578,6.58266589 C21.9400363,5.94401043 21.0085852,5.17343958 20.8639541,4.69004347 C20.8599274,4.67892205 20.8560097,4.66713996 20.8527449,4.6548073 L20.8310883,4.59997102 L20.8364208,4.52432338 Z M57.9327449,20.9650768 L57.9268682,20.9227934 C57.7496977,19.6283048 56.3511608,18.5709997 53.77,17.780058 C51.5498186,17.1051753 48.7951874,16.7139438 45.8044015,16.6490872 L45.4848851,16.6421501 L45.4848851,4.88428282 C45.4848851,4.63388583 45.4420073,4.40077659 45.3577751,4.19145175 C45.3515719,4.17625616 45.3450423,4.16095045 45.3384039,4.14641553 C45.2960701,4.05292959 45.2611366,3.96638076 45.231971,3.88214431 C44.8468319,2.77407708 43.472237,1.85221095 41.1463845,1.14209215 C38.7377146,0.405656331 35.5710641,0 32.2297461,0 C28.8980048,0 25.7668319,0.405436105 23.4132285,1.14154158 C21.5473881,1.72558099 19.3241596,2.78971313 19.311971,4.54425384 L19.3445103,4.91412344 L19.4739057,10.3451174 L19.0760339,10.2675978 C15.7534341,9.62024341 12.379468,10.323315 9.57564692,12.2475398 C6.7614873,14.1789221 4.86049577,17.1053955 4.22276904,20.487847 C4.07487304,21.2678876 4,22.073144 4,22.8814836 C4,29.9670356 9.69720677,35.731672 16.7001209,35.731672 C19.5975333,35.731672 22.4427086,34.7097131 24.711318,32.8540887 L24.8354897,32.7524544 L24.9910036,32.7893422 C27.0043047,33.2661316 29.3916445,33.5297421 31.8951028,33.5514344 L32.1646675,33.5537467 L32.213422,33.821982 C32.5059492,35.4297421 34.7041475,36.4011591 36.4964208,36.9328948 C38.8160701,37.6211011 41.8613785,38 45.0713422,38 C48.3778356,38 51.5125998,37.586856 53.8983071,36.836656 C57.2885973,35.7810026 58,34.3896146 58,33.4082875 L58,21.3068676 C58,21.1917995 57.9818259,21.0844393 57.9489601,21.0046074 L57.9327449,20.9650768 Z" id="Fill-1" fill="#4A4A4A"></path>
                    <path d="M18.965027,19.2467101 C19.3295115,19.2467101 19.6249791,19.5504931 19.6249791,19.9252196 C19.6249791,20.2913055 19.3427796,20.589745 18.9896679,20.6031606 C18.9435081,21.3523861 19.00695,22.6036722 19.3762288,23.1922519 C19.4375523,23.2900264 19.5231821,23.4012165 19.6115994,23.4933064 C19.7206437,23.6067703 19.8730604,23.7081829 19.8998197,23.7719637 C19.4639771,23.9631925 19.0767473,24.2105847 18.5229406,23.7882216 C18.2493264,23.5794844 18.0404921,23.3029872 17.8533997,23.0255805 C17.7966477,22.941449 17.6951852,22.8219595 17.6598406,22.7354404 C17.703213,22.6709775 17.7744597,22.602649 17.8341107,22.5353438 C17.9024585,22.4582611 17.9453849,22.4044851 18.0113913,22.3213768 C18.423931,21.8018077 18.6366677,21.3135037 18.7613216,20.5707586 C18.4966272,20.4825342 18.305075,20.2268425 18.305075,19.9252196 C18.305075,19.5504931 18.6005426,19.2467101 18.965027,19.2467101 M21.8922751,21.2871273 C21.8424358,21.3971805 21.7129876,21.6169457 21.6710646,21.6828866 C21.5825358,21.8220447 21.5076097,21.9690476 21.4311226,22.1010431 C20.9916005,22.8590228 20.3877316,23.796521 19.6774943,24.1488503 C18.6747998,24.6463633 17.961998,23.6949947 17.4991731,22.8967683 C17.419787,22.7597703 17.1500753,22.2868147 17.1054764,22.1059318 C17.3604705,22.0121365 17.54288,21.761561 17.54288,21.4672143 C17.54288,21.0924878 17.2474123,20.7887048 16.8829279,20.7887048 C16.5184435,20.7887048 16.2229759,21.0924878 16.2229759,21.4672143 C16.2229759,21.7312054 16.3697062,21.9599522 16.5838924,22.0721655 C16.5118652,22.3687861 15.9938491,23.4322542 15.8167915,23.6681636 C15.5175329,24.0667652 15.1017598,24.3350766 14.5908795,24.4961771 C15.1458012,24.6546628 15.7433148,24.3685018 16.0174865,24.1265668 C16.2982365,23.8788335 16.5105272,23.5806213 16.6865813,23.207714 C16.7227064,23.1316545 16.8086708,22.870733 16.8498132,22.8270756 C16.9653244,22.9944291 17.0880828,23.2215843 17.2030364,23.3824574 C17.2322487,23.4232726 17.2572241,23.4439644 17.2858789,23.4844385 C17.4643859,23.7367194 17.5423225,23.8521161 17.744244,24.0965523 C17.8070169,24.1723844 17.8517273,24.2201347 17.9161727,24.2949436 L18.0494119,24.4317142 C18.084868,24.4730978 18.0664709,24.4351249 18.0877669,24.487764 C18.0986936,24.6652361 17.1602215,24.7266293 16.9837214,24.848279 C17.1495178,24.9794787 17.8643265,25.0707728 18.0920038,25.0763437 C18.7209596,25.0919194 19.4041031,24.9429838 19.9683905,24.7061649 C20.0894765,24.6551175 20.7184323,24.3422391 20.79347,24.3508797 C20.7748499,24.5781485 20.6771784,24.918995 20.6227677,25.1416025 C20.5556464,25.4166217 20.5121625,25.6606031 20.4665601,25.9436944 L19.4796982,25.7426882 C18.5120138,25.5673763 17.6247189,25.4801751 16.6491182,25.501549 C15.7117611,25.5218998 15.0304016,25.6169457 14.1465631,25.783276 L13.3700964,25.951198 C13.3545983,25.9231163 13.3634066,25.9508569 13.3490235,25.8981042 L13.2170108,25.1019242 C13.1816661,24.9199045 13.0709494,24.4223915 13.0711724,24.2699315 C13.2237006,24.2791405 13.4404512,24.3671375 13.6265401,24.3889663 C14.369669,24.4763948 15.0572724,24.0813177 15.5408359,23.4972856 C15.6690577,23.3422107 15.9631873,22.9459966 16.0407894,22.7204332 C15.7938231,22.5136287 15.3408098,21.9397152 15.1985394,21.6686752 C15.0494676,21.3843333 14.7766339,20.671148 14.7518815,20.3388284 C15.0432238,20.2683398 15.2600859,19.9993463 15.2600859,19.6785095 C15.2600859,19.3037831 14.9646182,19 14.6001338,19 C14.2356494,19 13.9401817,19.3037831 13.9401817,19.6785095 C13.9401817,20.0424353 14.2190363,20.3393969 14.5691376,20.3562232 C14.6684816,21.4790382 14.6557709,22.0878549 14.2144649,23.0862917 C14.1024102,23.3398232 13.9207812,23.5260495 13.7160723,23.6097263 C13.5202832,23.6897649 13.529872,23.6572492 13.4036571,23.5202513 C13.1123149,23.2040758 12.9829781,23.0105733 12.74482,22.6393713 C12.6772527,22.5340932 12.1478639,21.6689026 12.0196421,21.4193503 C12.2003791,21.2983827 12.3200156,21.088736 12.3200156,20.8503254 C12.3200156,20.4757127 12.0244365,20.1719296 11.6600636,20.1719296 C11.2955791,20.1719296 11,20.4757127 11,20.8503254 C11,21.2250519 11.2955791,21.5288349 11.6600636,21.5288349 C11.6946277,21.5288349 11.7288573,21.5259927 11.7620835,21.5207629 L12.1091744,22.7528352 C12.5013101,24.2876673 12.4482374,24.7681267 12.5946333,26.2499787 C12.6189397,26.4968024 12.6402356,26.7339624 12.6162637,27 L14.0267036,26.5952591 C14.1135599,26.5655857 14.1757754,26.5608106 14.2653076,26.5395504 L14.7550034,26.4254043 C16.5884638,26.0677316 18.2691729,26.1498167 20.1059781,26.6609726 L21.235222,26.9848791 C21.212588,26.3681039 21.3831788,24.7678993 21.4769479,24.113606 C21.5833163,23.3730211 21.874993,22.1130944 22.1168305,21.4274223 C22.1865163,21.4531166 22.2616654,21.4672143 22.3400479,21.4672143 C22.7045324,21.4672143 23,21.1633175 23,20.7887048 C23,20.414092 22.7045324,20.110309 22.3400479,20.110309 C21.9755635,20.110309 21.6799844,20.414092 21.6799844,20.7887048 C21.6799844,20.9857317 21.7617119,21.1630901 21.8922751,21.2871273" id="Fill-4" fill="#FEFEFE"></path>
                </g>
            </g>
        </g>
    </g>
</svg>