<?xml version="1.0" encoding="UTF-8"?>
<svg width="13px" height="13px" viewBox="0 0 13 13" version="1.1" xmlns="http://www.w3.org/2000/svg" xmlns:xlink="http://www.w3.org/1999/xlink">
    <!-- Generator: sketchtool 52.5 (67469) - http://www.bohemiancoding.com/sketch -->
    <title>09109B13-63AE-4FE1-8B63-AE050C907BA1</title>
    <desc>Created with sketchtool.</desc>
    <g id="02_메인" stroke="none" stroke-width="1" fill="none" fill-rule="evenodd">
        <g id="설정_문의신고-03_수정" transform="translate(-321.000000, -570.000000)" fill="#9B9B9B">
            <g id="Group" transform="translate(321.000000, 570.000000)">
                <path d="M0.182854457,1.08449335 C-0.0609514858,0.840748672 -0.0609514858,0.435075719 0.182854457,0.182808505 C0.435185084,-0.0609361684 0.832435327,-0.0609361684 1.08476595,0.182808505 L6.49680324,5.60257643 L11.9179335,0.182808505 C12.1617395,-0.0609361684 12.5675144,-0.0609361684 12.810752,0.182808505 C13.0630827,0.435075719 13.0630827,0.841316842 12.810752,1.08449335 L7.39871474,6.49573873 L12.810752,11.9155067 C13.0630827,12.1592513 13.0630827,12.5649243 12.810752,12.8171915 C12.5669461,13.0609362 12.1611712,13.0609362 11.9179335,12.8171915 L6.49680324,7.39742357 L1.08476595,12.8171915 C0.832435327,13.0609362 0.435185084,13.0609362 0.182854457,12.8171915 C-0.0609514858,12.5649243 -0.0609514858,12.1586832 0.182854457,11.9155067 L5.59489175,6.49573873 L0.182854457,1.08449335 Z" id="Path"></path>
            </g>
        </g>
    </g>
</svg>