<?xml version="1.0" encoding="UTF-8"?>
<svg width="20px" height="20px" viewBox="0 0 20 20" version="1.1" xmlns="http://www.w3.org/2000/svg" xmlns:xlink="http://www.w3.org/1999/xlink">
    <!-- Generator: sketchtool 52.5 (67469) - http://www.bohemiancoding.com/sketch -->
    <title>97CF35DE-690E-4A8C-8F2A-BE93B87C4057</title>
    <desc>Created with sketchtool.</desc>
    <g id="02_메인" stroke="none" stroke-width="1" fill="none" fill-rule="evenodd">
        <g id="쇼핑" transform="translate(-258.000000, -127.000000)">
            <g id="프로필" transform="translate(0.000000, 125.000000)">
                <g id="코인" transform="translate(258.000000, 2.000000)">
                    <path d="M9.94612865,19.8929302 C15.4242573,19.8929302 19.8923275,15.4509535 19.8923275,10.0045581 C19.8923275,4.55827907 15.4242573,0.116302326 9.94612865,0.116302326 C4.468,0.116302326 -7.01754386e-05,4.55827907 -7.01754386e-05,10.0045581 C-7.01754386e-05,15.4509535 4.468,19.8929302 9.94612865,19.8929302" id="Fill-1" fill="#FFC506"></path>
                    <path d="M9.92633572,13.1882555 C10.4124535,13.1882555 10.815771,13.0466937 11.1362882,12.7635702 C11.4568054,12.4804467 11.6277478,12.1305487 11.6491157,11.7138763 L13.4840767,11.7138763 C13.4627088,12.2534136 13.2944373,12.7568928 12.9792621,13.2243136 C12.6640869,13.6917345 12.2367305,14.0616648 11.6971933,14.3341045 C11.157656,14.6065441 10.5753831,14.7427639 9.95037451,14.7427639 C8.73775114,14.7427639 7.77619953,14.3501303 7.06571969,13.5648632 C6.35523986,12.779596 6,11.6951795 6,10.3116136 L6,10.1112903 C6,8.7918278 6.35256892,7.73545657 7.05770676,6.94217649 C7.76284461,6.14889642 8.72439621,5.75225638 9.94236158,5.75225638 C10.9733586,5.75225638 11.8133807,6.05274126 12.4624281,6.65371101 C13.1114754,7.25468076 13.4520249,8.04395437 13.4840767,9.02153184 L11.6491157,9.02153184 C11.6277478,8.52473017 11.4581409,8.11607074 11.1402946,7.79555354 C10.8224484,7.47503634 10.4177954,7.31477774 9.92633572,7.31477774 C9.29598518,7.31477774 8.80986751,7.54314624 8.46798245,7.99988326 C8.1260974,8.45662027 7.95248399,9.14973872 7.947142,10.0792386 L7.947142,10.3917429 C7.947142,11.3319266 8.11674906,12.033058 8.45596306,12.495137 C8.79517705,12.957216 9.28530132,13.1882555 9.92633572,13.1882555 Z" id="c-copy-3" fill="#FFFFFF"></path>
                </g>
            </g>
        </g>
    </g>
</svg>