<?xml version="1.0" encoding="UTF-8"?>
<svg width="60px" height="55px" viewBox="0 0 60 55" version="1.1" xmlns="http://www.w3.org/2000/svg" xmlns:xlink="http://www.w3.org/1999/xlink">
    <!-- Generator: sketchtool 52.5 (67469) - http://www.bohemiancoding.com/sketch -->
    <title>CF063412-5451-4010-A92C-6F01519943EF</title>
    <desc>Created with sketchtool.</desc>
    <defs>
        <polygon id="path-1" points="0.00666118421 0.0847777778 25.6175822 0.0847777778 25.6175822 39.4563333 0.00666118421 39.4563333"></polygon>
    </defs>
    <g id="02_메인" stroke="none" stroke-width="1" fill="none" fill-rule="evenodd">
        <g id="친구-03" transform="translate(-150.000000, -210.000000)">
            <g id="users" transform="translate(150.000000, 210.000000)">
                <g id="Group-3">
                    <mask id="mask-2" fill="white">
                        <use xlink:href="#path-1"></use>
                    </mask>
                    <g id="Clip-2"></g>
                    <path d="M10.9029153,2.93544444 C9.12349095,4.84888889 8.18315378,7.46088889 8.18315378,10.4892222 C8.18315378,13.6677778 9.22851563,16.8836667 11.0509046,19.3118889 C11.8730058,20.4074444 11.8137212,21.9297778 10.9097985,22.9317778 C9.8881949,24.0644444 8.55384868,24.8125556 7.05141859,25.0954444 C2.96567023,25.8642222 0,29.4316667 0,33.5778889 L0,39.4563333 L9.77895705,39.4563333 C10.2598437,39.4563333 10.6496793,39.0664977 10.6496793,38.5856111 L10.6496793,38.5856111 C10.6496793,38.1047245 10.2598437,37.7148889 9.77895705,37.7148889 L1.74001234,37.7148889 L1.74001234,33.5778889 C1.74001234,30.2686667 4.1090625,27.4211111 7.37293174,26.807 C9.25282895,26.4532222 10.9225658,25.5167778 12.2015132,24.0988889 C13.6619778,22.4795556 13.7633388,20.0265556 12.4422039,18.266 C10.8648355,16.1643333 9.92316612,13.2572222 9.92316612,10.4892222 C9.92316612,7.909 10.7024137,5.70733333 12.1765337,4.12188889 C13.5530674,2.64166667 15.4587212,1.82633333 17.5528865,1.82633333 C20.3716776,1.82633333 22.7512747,3.26111111 24.0814021,5.76255556 L25.6175822,4.94444444 C23.9995806,1.90133333 20.9846176,0.0847777778 17.5426727,0.0847777778 C14.9702344,0.0847777778 12.6121752,1.09722222 10.9029153,2.93544444 Z" id="Fill-1" fill="#7D7D7D" mask="url(#mask-2)"></path>
                </g>
                <path d="M37.2684375,30.0815556 C36.3639597,29.0788889 36.3043421,27.5563333 37.1265543,26.4613333 C38.9493873,24.0341111 39.9947492,20.8183333 39.9947492,17.6385556 C39.9947492,14.6103333 39.054301,11.9983333 37.2749877,10.0847778 C35.5655058,8.24633333 33.2076686,7.23377778 30.6251275,7.23377778 C28.0525781,7.23377778 25.6945189,8.24622222 23.985259,10.0845556 C22.2063898,11.998 21.2660526,14.61 21.2660526,17.6383333 C21.2660526,20.8174444 22.3109704,24.0331111 24.1330263,26.4611111 C24.9556826,27.5566667 24.8966201,29.0792222 23.9924753,30.0814444 C22.9828618,31.2008889 21.6670559,31.945 20.1842763,32.2354444 L20.1334293,32.245 C16.0475699,33.0131111 13.0820107,36.5806667 13.0820107,40.7276667 L13.0820107,46.606 L34.5006433,46.606 C34.9815299,46.606 35.3713655,46.2161644 35.3713655,45.7352778 L35.3713655,45.7352778 C35.3713655,45.2543912 34.9815299,44.8645556 34.5006433,44.8645556 L14.822023,44.8645556 L14.822023,40.7276667 C14.822023,37.4371111 17.1629852,34.6036667 20.3972122,33.9676667 L20.4563857,33.9565556 C22.336727,33.6018889 24.0062418,32.6654444 25.28419,31.2484444 C26.7453207,29.6288889 26.8463487,27.1754444 25.5244367,25.415 C23.9476234,23.3138889 23.006287,20.4067778 23.006287,17.6383333 C23.006287,15.0581111 23.7855345,12.8563333 25.2594326,11.271 C26.6358553,9.79066667 28.541509,8.97533333 30.6358964,8.97533333 C32.7194038,8.97533333 34.6249465,9.79055556 36.0014803,11.2711111 C37.4758224,12.8566667 38.2550699,15.0584444 38.2550699,17.6384444 C38.2550699,20.4074444 37.3134005,23.3144444 35.7359211,25.4148889 C34.4142311,27.175 34.5158141,29.6283333 35.9770559,31.2483333 C37.2554482,32.6656667 38.924852,33.6021111 40.8054153,33.9565556 C41.7155551,34.1277778 42.5659663,34.4708889 43.3327796,34.9764444 L44.2899918,33.5222222 C43.329338,32.889 42.2648808,32.4592222 41.1267064,32.2453333 C39.6237212,31.962 38.289597,31.2138889 37.2684375,30.0815556 Z" id="Fill-5" fill="#4A4A4A"></path>
                <ellipse id="Oval" fill="#FFE34C" cx="50.2173913" cy="45.1785714" rx="9.7826087" ry="9.82142857"></ellipse>
                <path d="M46.9678988,53.2584444 C42.4827015,53.2584444 38.8337048,49.61 38.8337048,45.1255556 C38.8337048,40.6411111 42.4827015,36.9925556 46.9678988,36.9925556 C51.4530962,36.9925556 55.1019819,40.641 55.1019819,45.1255556 C55.1020929,49.61 51.4530962,53.2584444 46.9678988,53.2584444 Z M46.9678988,35.251 C41.5231579,35.251 37.0935814,39.6806667 37.0935814,45.1255556 C37.0935814,50.5703333 41.5231579,55 46.9678988,55 C52.4126398,55 56.8421053,50.5702222 56.8421053,45.1255556 C56.8421053,39.6806667 52.4125288,35.251 46.9678988,35.251 Z" id="Fill-6" fill="#4A4A4A"></path>
                <polygon id="Fill-7" fill="#FFFFFF" points="47.8379605 40.8627778 46.0979482 40.8627778 46.0979482 44.2547778 42.704852 44.2547778 42.704852 45.9963333 46.0979482 45.9963333 46.0979482 49.3882222 47.8379605 49.3882222 47.8379605 45.9963333 51.2308347 45.9963333 51.2308347 44.2547778 47.8379605 44.2547778"></polygon>
            </g>
        </g>
    </g>
</svg>