<?xml version="1.0" encoding="UTF-8"?>
<svg width="20px" height="20px" viewBox="0 0 20 20" version="1.1" xmlns="http://www.w3.org/2000/svg" xmlns:xlink="http://www.w3.org/1999/xlink">
    <!-- Generator: sketchtool 52.5 (67469) - http://www.bohemiancoding.com/sketch -->
    <title>C17C62B6-8166-4481-BD94-51F10D946262</title>
    <desc>Created with sketchtool.</desc>
    <g id="02_메인" stroke="none" stroke-width="1" fill="none" fill-rule="evenodd">
        <g id="쇼핑-02" transform="translate(-25.000000, -91.000000)">
            <g id="코인" transform="translate(25.000000, 91.000000)">
                <path d="M9.94612865,19.8929302 C15.4242573,19.8929302 19.8923275,15.4509535 19.8923275,10.0045581 C19.8923275,4.55827907 15.4242573,0.116302326 9.94612865,0.116302326 C4.468,0.116302326 -7.01754386e-05,4.55827907 -7.01754386e-05,10.0045581 C-7.01754386e-05,15.4509535 4.468,19.8929302 9.94612865,19.8929302" id="Fill-1" fill="#FFC506"></path>
                <path d="M12.0072982,6.16575581 C12.3896374,6.16575581 12.6995789,6.47645349 12.6995789,6.8597093 C12.6995789,7.23412791 12.4035556,7.53936047 12.0331462,7.5530814 C11.9847251,8.31936047 12.0512749,9.59912791 12.4386433,10.2011047 C12.5029708,10.3011047 12.5927953,10.4148256 12.6855439,10.5090116 C12.7999298,10.6250581 12.9598129,10.7287791 12.987883,10.7940116 C12.5306901,10.989593 12.1244912,11.2426163 11.5435556,10.8106395 C11.256538,10.5971512 11.0374737,10.3143605 10.8412164,10.0306395 C10.7816842,9.94459302 10.6752515,9.82238372 10.6381754,9.73389535 C10.6836725,9.66796512 10.7584094,9.5980814 10.8209825,9.52924419 C10.8926784,9.45040698 10.9377076,9.39540698 11.0069474,9.31040698 C11.4396959,8.77901163 11.6628538,8.27959302 11.793614,7.51994186 C11.5159532,7.4297093 11.3150175,7.16819767 11.3150175,6.8597093 C11.3150175,6.47645349 11.6249591,6.16575581 12.0072982,6.16575581 M15.0779415,8.25261628 C15.0256608,8.36517442 14.8898713,8.58994186 14.8458947,8.65738372 C14.7530292,8.7997093 14.6744327,8.95005814 14.5941988,9.08505814 C14.1331462,9.8602907 13.4996959,10.8191279 12.7546667,11.1794767 C11.7028538,11.688314 10.9551345,10.7152907 10.4696374,9.89889535 C10.3863626,9.75877907 10.1034386,9.27505814 10.056655,9.09005814 C10.3241404,8.99412791 10.5154854,8.73784884 10.5154854,8.43680233 C10.5154854,8.05354651 10.2055439,7.74284884 9.82320468,7.74284884 C9.4408655,7.74284884 9.13092398,8.05354651 9.13092398,8.43680233 C9.13092398,8.70680233 9.28484211,8.94075581 9.50952047,9.05552326 C9.43396491,9.35889535 8.8905731,10.4465698 8.70484211,10.6878488 C8.39092398,11.0955233 7.95478363,11.3699419 7.41887719,11.5347093 C8.00098246,11.6968023 8.62776608,11.4041279 8.91536842,11.156686 C9.20987135,10.903314 9.4325614,10.598314 9.61723977,10.2169186 C9.6551345,10.1391279 9.74530994,9.87226744 9.78846784,9.82761628 C9.90963743,9.99877907 10.0384094,10.2311047 10.1589942,10.3956395 C10.1896374,10.4373837 10.2158363,10.4585465 10.2458947,10.4999419 C10.4331462,10.7579651 10.5149006,10.8759884 10.7267135,11.1259884 C10.7925614,11.2035465 10.839462,11.2523837 10.9070643,11.3288953 L11.0468304,11.4687791 C11.0840234,11.5111047 11.0647251,11.4722674 11.0870643,11.5261047 C11.0985263,11.7076163 10.1140819,11.770407 9.92893567,11.8948256 C10.1028538,12.0290116 10.8526784,12.1223837 11.0915088,12.1280814 C11.7512749,12.1440116 12.467883,11.991686 13.0598129,11.7494767 C13.1868304,11.6972674 13.8465965,11.3772674 13.9253099,11.3861047 C13.9057778,11.6185465 13.8033216,11.9671512 13.7462456,12.1948256 C13.6758363,12.4761047 13.6302222,12.7256395 13.582386,13.0151744 L12.5471813,12.809593 C11.5320936,12.6302907 10.6013333,12.5411047 9.57794152,12.5629651 C8.59466667,12.5837791 7.87992982,12.6809884 6.95279532,12.8511047 L6.1382924,13.0228488 C6.12203509,12.9941279 6.13127485,13.0225 6.11618713,12.9685465 L5.9777076,12.1542442 C5.94063158,11.9680814 5.82449123,11.4592442 5.82472515,11.303314 C5.98472515,11.3127326 6.21209357,11.4027326 6.40729825,11.4250581 C7.18683041,11.5144767 7.90811696,11.110407 8.41536842,10.5130814 C8.54987135,10.3544767 8.85840936,9.94924419 8.93981287,9.71854651 C8.68074854,9.50703488 8.20554386,8.92005814 8.05630409,8.64284884 C7.89992982,8.35203488 7.61373099,7.62261628 7.58776608,7.28273256 C7.89338012,7.21063953 8.1208655,6.93552326 8.1208655,6.60738372 C8.1208655,6.22412791 7.81092398,5.91343023 7.4285848,5.91343023 C7.04624561,5.91343023 6.73630409,6.22412791 6.73630409,6.60738372 C6.73630409,6.97959302 7.02881871,7.28331395 7.39607018,7.30052326 C7.5002807,8.44889535 7.48694737,9.07156977 7.02402339,10.0927326 C6.90647953,10.3520349 6.71595322,10.5425 6.50121637,10.6280814 C6.29583626,10.7099419 6.30589474,10.676686 6.17349708,10.5365698 C5.86788304,10.2131977 5.73221053,10.0152907 5.48238596,9.63563953 C5.41150877,9.52796512 4.85618713,8.6430814 4.72168421,8.38784884 C4.91127485,8.26412791 5.03677193,8.0497093 5.03677193,7.80587209 C5.03677193,7.42273256 4.72671345,7.11203488 4.34449123,7.11203488 C3.96215205,7.11203488 3.65209357,7.42273256 3.65209357,7.80587209 C3.65209357,8.18912791 3.96215205,8.49982558 4.34449123,8.49982558 C4.38074854,8.49982558 4.41665497,8.4969186 4.45150877,8.49156977 L4.81560234,9.75168605 C5.22694737,11.3214535 5.17127485,11.8128488 5.32484211,13.3284302 C5.35033918,13.5808721 5.37267836,13.8234302 5.34753216,14.0955233 L6.82706433,13.6815698 C6.91817544,13.6512209 6.9834386,13.6463372 7.07735673,13.624593 L7.59104094,13.5078488 C9.51431579,13.1420349 11.2773567,13.2259884 13.2041404,13.7487791 L14.3887018,14.0800581 C14.3649591,13.4492442 14.5439064,11.8126163 14.642269,11.1434302 C14.753848,10.3859884 15.0598129,9.09738372 15.3134971,8.39610465 C15.3865965,8.42238372 15.4654269,8.43680233 15.5476491,8.43680233 C15.9299883,8.43680233 16.2399298,8.12598837 16.2399298,7.74284884 C16.2399298,7.3597093 15.9299883,7.04901163 15.5476491,7.04901163 C15.1653099,7.04901163 14.8552515,7.3597093 14.8552515,7.74284884 C14.8552515,7.94436047 14.9409825,8.12575581 15.0779415,8.25261628" id="Fill-4" fill="#FEFEFE"></path>
            </g>
        </g>
    </g>
</svg>