<?xml version="1.0" encoding="utf-8"?>
<!-- Generator: Adobe Illustrator 23.0.1, SVG Export Plug-In . SVG Version: 6.00 Build 0)  -->
<svg version="1.1" id="Layer_1" xmlns="http://www.w3.org/2000/svg" xmlns:xlink="http://www.w3.org/1999/xlink" x="0px" y="0px"
	 viewBox="0 0 202.1 20" style="enable-background:new 0 0 202.1 20;" xml:space="preserve">
<style type="text/css">
	.st0{fill-rule:evenodd;clip-rule:evenodd;fill:url(#SVGID_1_);}
	.st1{fill-rule:evenodd;clip-rule:evenodd;fill:url(#SVGID_2_);}
	.st2{fill-rule:evenodd;clip-rule:evenodd;fill:url(#SVGID_3_);}
	.st3{fill:url(#SVGID_4_);}
	.st4{enable-background:new    ;}
	.st5{fill:#FFFFFF;}
</style>
<g>
	
		<linearGradient id="SVGID_1_" gradientUnits="userSpaceOnUse" x1="-319.306" y1="513.9611" x2="-306.868" y2="513.863" gradientTransform="matrix(3.438 0 0 -14.449 1098.6769 7432.623)">
		<stop  offset="0" style="stop-color:#FC0000"/>
		<stop  offset="0.9997" style="stop-color:#8B0000"/>
	</linearGradient>
	<path class="st0" d="M32.5,0.2c-1,0-1.7,0.8-1.7,1.7v2.8c0.3,0.8,0.5,1.7,0.6,2.6c0,0.1,0,0.3,0,0.4V13c0,0.4-0.1,0.7-0.2,1
		c0.3,0.4,0.8,0.7,1.4,0.7c1,0,1.7-0.8,1.7-1.7V1.9C34.3,1,33.5,0.2,32.5,0.2L32.5,0.2z"/>
	
		<linearGradient id="SVGID_2_" gradientUnits="userSpaceOnUse" x1="-393.8226" y1="514.0038" x2="-389.137" y2="513.9058" gradientTransform="matrix(9.1274 0 0 -14.4564 3595.4719 7436.6763)">
		<stop  offset="0" style="stop-color:#FC0000"/>
		<stop  offset="0.9997" style="stop-color:#8B0000"/>
	</linearGradient>
	<path class="st1" d="M39.8,7.5l4.5-4.4c0.7-0.6,0.7-1.7,0-2.4c0,0,0,0,0,0c-0.7-0.7-1.8-0.7-2.4,0l-5.7,5.6c-0.7,0.7-0.7,1.7,0,2.4
		c0,0,0,0,0,0l5.6,5.5c0.7,0.7,1.8,0.7,2.4,0c0.7-0.6,0.7-1.7,0-2.4c0,0,0,0,0,0L39.8,7.5z"/>
	
		<linearGradient id="SVGID_3_" gradientUnits="userSpaceOnUse" x1="-410.3872" y1="513.9873" x2="-407.5988" y2="513.8893" gradientTransform="matrix(15.334 0 0 -14.47 6293.771 7444.1943)">
		<stop  offset="0" style="stop-color:#FC0000"/>
		<stop  offset="0.9997" style="stop-color:#8B0000"/>
	</linearGradient>
	<path class="st2" d="M23.1,0.2c-1.6,0-3.1,0.5-4.3,1.3c-0.2-0.8-0.9-1.3-1.7-1.3c-1,0-1.7,0.8-1.7,1.7v2.5c0.4,0.9,0.6,1.9,0.6,3
		c0,1-0.2,2.1-0.6,3V13c0,0.9,0.8,1.7,1.7,1.7c1,0,1.7-0.8,1.7-1.7V7.2c0.3-2.1,2.1-3.7,4.2-3.7c2.2,0,4,1.6,4.2,3.7V13
		c0,0.9,0.8,1.7,1.7,1.7c1,0,1.7-0.8,1.7-1.7V7.8c0-0.1,0-0.2,0-0.3C30.6,3.4,27.3,0.2,23.1,0.2z"/>
	
		<linearGradient id="SVGID_4_" gradientUnits="userSpaceOnUse" x1="-409.653" y1="523.7289" x2="-406.8908" y2="523.6572" gradientTransform="matrix(15.4791 0 0 -19.755 6341.8286 10356.2246)">
		<stop  offset="0" style="stop-color:#FC0000"/>
		<stop  offset="0.9997" style="stop-color:#8B0000"/>
	</linearGradient>
	<path class="st3" d="M15.1,5.4c-0.1-0.3-0.2-0.6-0.3-0.8C13.7,2,11.1,0.2,8.1,0.2c-1.8,0-3.4,0.6-4.6,1.6c0-0.9-0.8-1.6-1.7-1.6
		C0.8,0.2,0,1,0,1.9v16.4C0,19.2,0.8,20,1.7,20s1.7-0.8,1.7-1.7v-5.2c1.3,1,3,1.6,4.6,1.6c3,0,5.6-1.8,6.8-4.4
		c0.1-0.3,0.2-0.6,0.3-0.8c0.2-0.7,0.3-1.4,0.3-2.1C15.5,6.7,15.4,6,15.1,5.4z M8.1,12c-2.5,0-4.5-1.9-4.6-4.3V7.1
		c0.1-2.4,2.2-4.3,4.6-4.3c2.6,0,4.6,2.1,4.6,4.6C12.7,10,10.6,12,8.1,12z"/>
	<g class="st4">
		<path class="st5" d="M52.5,1.1h9.4v1.6h-7.7v3.9h7.1v1.5h-7.1v4.4H62V14h-9.5V1.1z"/>
		<path class="st5" d="M64.4,1.1h2.1l6.4,10.4V1.1h1.7V14h-2L66,3.6V14h-1.7V1.1z"/>
		<path class="st5" d="M86.8,1.1v1.5h-4.4V14h-1.8V2.6h-4.4V1.1H86.8z"/>
		<path class="st5" d="M88.5,1.1h9.4v1.6h-7.7v3.9h7.1v1.5h-7.1v4.4H98V14h-9.5V1.1z"/>
		<path class="st5" d="M100.6,1.1h5.9c1,0,1.8,0.1,2.4,0.4c1.2,0.6,1.8,1.6,1.8,3c0,0.8-0.2,1.4-0.5,1.9c-0.3,0.5-0.8,0.9-1.3,1.2
			c0.5,0.2,0.9,0.5,1.1,0.8c0.3,0.3,0.4,0.9,0.4,1.6l0.1,1.7c0,0.5,0.1,0.9,0.1,1.1c0.1,0.4,0.3,0.7,0.6,0.8V14H109
			c-0.1-0.1-0.1-0.3-0.1-0.4s-0.1-0.5-0.1-1l-0.1-2.2c0-0.8-0.3-1.4-0.9-1.7c-0.3-0.2-0.8-0.2-1.5-0.2h-3.9V14h-1.7V1.1z M106.3,7
			c0.8,0,1.4-0.2,1.9-0.5c0.5-0.3,0.7-0.9,0.7-1.8c0-0.9-0.3-1.5-1-1.9c-0.3-0.2-0.8-0.3-1.4-0.3h-4.2V7H106.3z"/>
		<path class="st5" d="M122.4,1.1v1.5h-4.4V14h-1.8V2.6H112V1.1H122.4z"/>
		<path class="st5" d="M126.5,1.1h2l4.7,12.9h-1.9l-1.3-3.9h-5.1l-1.4,3.9h-1.8L126.5,1.1z M129.4,8.7l-2-5.7l-2.1,5.7H129.4z"/>
		<path class="st5" d="M135.1,1.1h1.8V14h-1.8V1.1z"/>
		<path class="st5" d="M139.7,1.1h2.1l6.4,10.4V1.1h1.7V14h-2l-6.5-10.4V14h-1.7V1.1z"/>
		<path class="st5" d="M152.7,1.1h2.5l3.7,10.9l3.7-10.9h2.5V14h-1.7V6.4c0-0.3,0-0.7,0-1.3s0-1.3,0-2L159.8,14H158l-3.7-10.9v0.4
			c0,0.3,0,0.8,0,1.4c0,0.6,0,1.1,0,1.4V14h-1.7V1.1z"/>
		<path class="st5" d="M167.9,1.1h9.4v1.6h-7.7v3.9h7.1v1.5h-7.1v4.4h7.8V14h-9.5V1.1z"/>
		<path class="st5" d="M179.7,1.1h2.1l6.4,10.4V1.1h1.7V14h-2l-6.5-10.4V14h-1.7V1.1z"/>
		<path class="st5" d="M202.1,1.1v1.5h-4.4V14H196V2.6h-4.4V1.1H202.1z"/>
	</g>
</g>
</svg>
