<?xml version="1.0" encoding="utf-8"?>
<!-- Generator: Adobe Illustrator 23.0.1, SVG Export Plug-In . SVG Version: 6.00 Build 0)  -->
<svg version="1.1" id="Layer_1" xmlns="http://www.w3.org/2000/svg" xmlns:xlink="http://www.w3.org/1999/xlink" x="0px" y="0px"
	 viewBox="0 0 202.1 20" style="enable-background:new 0 0 202.1 20;" xml:space="preserve">
<style type="text/css">
	.st0{fill-rule:evenodd;clip-rule:evenodd;fill:url(#SVGID_1_);}
	.st1{fill-rule:evenodd;clip-rule:evenodd;fill:url(#SVGID_2_);}
	.st2{fill-rule:evenodd;clip-rule:evenodd;fill:url(#SVGID_3_);}
	.st3{fill:url(#SVGID_4_);}
	.st4{fill:#58585A;}
	.st5{clip-path:url(#SVGID_6_);}
	.st6{clip-path:url(#SVGID_8_);fill:#58585A;}
</style>
<linearGradient id="SVGID_1_" gradientUnits="userSpaceOnUse" x1="-629.9064" y1="73.6505" x2="-617.4684" y2="73.7487" gradientTransform="matrix(3.438 0 0 14.449 2166.5208 -1057.7761)">
	<stop  offset="0" style="stop-color:#FC0000"/>
	<stop  offset="0.9997" style="stop-color:#8B0000"/>
</linearGradient>
<path class="st0" d="M32.5,0.2c-1,0-1.7,0.8-1.7,1.7v2.8c0.3,0.8,0.5,1.7,0.6,2.6c0,0.1,0,0.3,0,0.4V13c0,0.4-0.1,0.7-0.2,1
	c0.3,0.4,0.8,0.7,1.4,0.7c1,0,1.7-0.8,1.7-1.7V1.9C34.3,1,33.5,0.2,32.5,0.2L32.5,0.2z"/>
<linearGradient id="SVGID_2_" gradientUnits="userSpaceOnUse" x1="-783.8353" y1="73.5905" x2="-779.1497" y2="73.6885" gradientTransform="matrix(9.1274 0 0 14.4564 7155.2734 -1057.8)">
	<stop  offset="0" style="stop-color:#FC0000"/>
	<stop  offset="0.9997" style="stop-color:#8B0000"/>
</linearGradient>
<path class="st1" d="M39.8,7.5l4.5-4.4c0.7-0.6,0.7-1.7,0-2.4l0,0c-0.7-0.7-1.8-0.7-2.4,0l-5.7,5.6c-0.7,0.7-0.7,1.7,0,2.4l0,0
	l5.6,5.5c0.7,0.7,1.8,0.7,2.4,0c0.7-0.6,0.7-1.7,0-2.4l0,0L39.8,7.5z"/>
<linearGradient id="SVGID_3_" gradientUnits="userSpaceOnUse" x1="-819.8232" y1="73.572" x2="-817.0349" y2="73.67" gradientTransform="matrix(15.334 0 0 14.47 12572.0625 -1057.7758)">
	<stop  offset="0" style="stop-color:#FC0000"/>
	<stop  offset="0.9997" style="stop-color:#8B0000"/>
</linearGradient>
<path class="st2" d="M23.1,0.2c-1.6,0-3.1,0.5-4.3,1.3c-0.2-0.8-0.9-1.3-1.7-1.3c-1,0-1.7,0.8-1.7,1.7v2.5c0.4,0.9,0.6,1.9,0.6,3
	c0,1-0.2,2.1-0.6,3V13c0,0.9,0.8,1.7,1.7,1.7c1,0,1.7-0.8,1.7-1.7V7.2c0.3-2.1,2.1-3.7,4.2-3.7c2.2,0,4,1.6,4.2,3.7V13
	c0,0.9,0.8,1.7,1.7,1.7c1,0,1.7-0.8,1.7-1.7V7.8c0-0.1,0-0.2,0-0.3C30.6,3.4,27.3,0.2,23.1,0.2z"/>
<linearGradient id="SVGID_4_" gradientUnits="userSpaceOnUse" x1="-819.3568" y1="54.0492" x2="-816.5946" y2="54.1208" gradientTransform="matrix(15.4791 0 0 19.755 12683.6748 -1057.7799)">
	<stop  offset="0" style="stop-color:#FC0000"/>
	<stop  offset="0.9997" style="stop-color:#8B0000"/>
</linearGradient>
<path class="st3" d="M15.1,5.4c-0.1-0.3-0.2-0.6-0.3-0.8C13.7,2,11.1,0.2,8.1,0.2c-1.8,0-3.4,0.6-4.6,1.6c0-0.9-0.8-1.6-1.7-1.6
	C0.8,0.2,0,1,0,1.9v16.4C0,19.2,0.8,20,1.7,20s1.7-0.8,1.7-1.7v-5.2c1.3,1,3,1.6,4.6,1.6c3,0,5.6-1.8,6.8-4.4
	c0.1-0.3,0.2-0.6,0.3-0.8c0.2-0.7,0.3-1.4,0.3-2.1C15.5,6.7,15.4,6,15.1,5.4z M8.1,12c-2.5,0-4.5-1.9-4.6-4.3V7.1
	c0.1-2.4,2.2-4.3,4.6-4.3c2.6,0,4.6,2.1,4.6,4.6C12.7,10,10.6,12,8.1,12z"/>
<g>
	<g>
		<path class="st4" d="M52.5,1.1h9.4v1.6h-7.7v3.9h7.1v1.5h-7.1v4.4H62V14h-9.5V1.1z"/>
		<path class="st4" d="M64.4,1.1h2.1l6.4,10.4V1.1h1.7V14h-2L66,3.6V14h-1.7L64.4,1.1L64.4,1.1z"/>
		<path class="st4" d="M86.8,1.1v1.5h-4.4V14h-1.8V2.6h-4.4V1.1H86.8z"/>
		<path class="st4" d="M88.5,1.1h9.4v1.6h-7.7v3.9h7.1v1.5h-7.1v4.4H98V14h-9.5V1.1z"/>
		<path class="st4" d="M100.6,1.1h5.9c1,0,1.8,0.1,2.4,0.4c1.2,0.6,1.8,1.6,1.8,3c0,0.8-0.2,1.4-0.5,1.9s-0.8,0.9-1.3,1.2
			c0.5,0.2,0.9,0.5,1.1,0.8c0.3,0.3,0.4,0.9,0.4,1.6l0.1,1.7c0,0.5,0.1,0.9,0.1,1.1c0.1,0.4,0.3,0.7,0.6,0.8V14H109
			c-0.1-0.1-0.1-0.3-0.1-0.4s-0.1-0.5-0.1-1l-0.1-2.2c0-0.8-0.3-1.4-0.9-1.7c-0.3-0.2-0.8-0.2-1.5-0.2h-3.9V14h-1.7V1.1H100.6z
			 M106.3,7c0.8,0,1.4-0.2,1.9-0.5s0.7-0.9,0.7-1.8s-0.3-1.5-1-1.9c-0.3-0.2-0.8-0.3-1.4-0.3h-4.2V7H106.3z"/>
		<path class="st4" d="M122.4,1.1v1.5H118V14h-1.8V2.6H112V1.1H122.4z"/>
		<path class="st4" d="M126.5,1.1h2l4.7,12.9h-1.9l-1.3-3.9h-5.1l-1.4,3.9h-1.8L126.5,1.1z M129.4,8.7l-2-5.7l-2.1,5.7H129.4z"/>
		<path class="st4" d="M135.1,1.1h1.8V14h-1.8V1.1z"/>
		<path class="st4" d="M139.7,1.1h2.1l6.4,10.4V1.1h1.7V14h-2l-6.5-10.4V14h-1.7V1.1z"/>
		<path class="st4" d="M152.7,1.1h2.5l3.7,10.9l3.7-10.9h2.5V14h-1.7V6.4c0-0.3,0-0.7,0-1.3s0-1.3,0-2L159.8,14H158l-3.7-10.9v0.4
			c0,0.3,0,0.8,0,1.4s0,1.1,0,1.4V14h-1.7L152.7,1.1L152.7,1.1z"/>
		<path class="st4" d="M167.9,1.1h9.4v1.6h-7.7v3.9h7.1v1.5h-7.1v4.4h7.8V14h-9.5V1.1z"/>
		<path class="st4" d="M179.7,1.1h2.1l6.4,10.4V1.1h1.7V14h-2l-6.5-10.4V14h-1.7V1.1z"/>
		<path class="st4" d="M202.1,1.1v1.5h-4.4V14H196V2.6h-4.4V1.1H202.1z"/>
	</g>
</g>
<g>
	<g>
		<defs>
			<path id="SVGID_5_" d="M54.9-3343.1v1.4H51v10.2h-1.6v-10.2h-3.9v-1.4H54.9z M34.8-3343.1h1.9l5.9,9.4v-9.4H44v11.6h-1.8l-6-9.4
				v9.4h-1.5L34.8-3343.1L34.8-3343.1z M24.1-3343.1h8.5v1.4h-6.9v3.5h6.4v1.3h-6.4v3.9h7.1v1.4h-8.6L24.1-3343.1L24.1-3343.1z
				 M10.4-3343.1h2.3l3.3,9.8l3.3-9.8h2.2v11.6H20v-6.9c0-0.2,0-0.6,0-1.2c0-0.5,0-1.1,0-1.8l-3.3,9.8h-1.6l-3.3-9.8v0.4
				c0,0.3,0,0.7,0,1.3s0,1,0,1.3v6.9h-1.5L10.4-3343.1L10.4-3343.1z M-1.2-3343.1h1.9l5.9,9.4v-9.4H8v11.6H6.2l-6-9.4v9.4h-1.5
				v-11.6H-1.2z M-5.4-3343.1h1.6v11.6h-1.6V-3343.1z M-13.2-3343.1h1.8l4.2,11.6h-1.7l-1.2-3.5h-4.6l-1.3,3.5h-1.6L-13.2-3343.1z
				 M-10.6-3336.2l-1.8-5.1l-1.9,5.1H-10.6z M-16.8-3343.1v1.4h-3.9v10.2h-1.6v-10.2h-3.9v-1.4H-16.8z M-36.5-3343.1h5.4
				c0.9,0,1.6,0.1,2.2,0.4c1.1,0.5,1.6,1.4,1.6,2.7c0,0.7-0.1,1.3-0.4,1.7s-0.7,0.8-1.2,1.1c0.5,0.2,0.8,0.4,1,0.7s0.4,0.8,0.4,1.5
				l0.1,1.6c0,0.4,0.1,0.8,0.1,1c0.1,0.4,0.3,0.6,0.5,0.7v0.3h-1.9c-0.1-0.1-0.1-0.2-0.1-0.4s-0.1-0.5-0.1-0.9l-0.1-1.9
				c0-0.8-0.3-1.3-0.8-1.5c-0.3-0.1-0.8-0.2-1.4-0.2h-3.6v5h-1.6v-11.8H-36.5z M-31.3-3337.7c0.7,0,1.3-0.1,1.8-0.4
				c0.4-0.3,0.6-0.8,0.6-1.6s-0.3-1.4-0.9-1.7c-0.3-0.2-0.8-0.2-1.3-0.2h-3.8v4h3.6V-3337.7z M-47.3-3343.1h8.5v1.4h-6.9v3.5h6.4
				v1.3h-6.4v3.9h7.1v1.4h-8.6L-47.3-3343.1L-47.3-3343.1z M-48.9-3343.1v1.4h-3.9v10.2h-1.6v-10.2h-3.9v-1.4H-48.9z M-69.1-3343.1
				h1.9l5.9,9.4v-9.4h1.5v11.6h-1.8l-6-9.4v9.4h-1.5C-69.1-3331.5-69.1-3343.1-69.1-3343.1z M-79.7-3343.1h8.5v1.4h-6.9v3.5h6.4v1.3
				h-6.4v3.9h7.1v1.4h-8.6L-79.7-3343.1L-79.7-3343.1z"/>
		</defs>
		<clipPath id="SVGID_6_">
			<use xlink:href="#SVGID_5_"  style="overflow:visible;"/>
		</clipPath>
		<g class="st5">
			<g>
				<defs>
					<rect id="SVGID_7_" x="-150" y="-3362" width="360" height="6600"/>
				</defs>
				<clipPath id="SVGID_8_">
					<use xlink:href="#SVGID_7_"  style="overflow:visible;"/>
				</clipPath>
				<rect x="-84.7" y="-3348.1" class="st6" width="144.6" height="21.6"/>
			</g>
		</g>
	</g>
</g>
</svg>
