<svg xmlns="http://www.w3.org/2000/svg" xmlns:xlink="http://www.w3.org/1999/xlink" width="80" height="80" viewBox="0 0 80 80">
    <defs>
        <path id="a" d="M0 .023h19.904v30.14H0z"/>
        <path id="c" d="M.004.105h4.221v4.374H.004z"/>
        <path id="e" d="M.059.041h16.767V13.43H.06z"/>
    </defs>
    <g fill="none" fill-rule="evenodd">
        <circle cx="40" cy="40" r="40" fill="#6C718C"/>
        <g transform="translate(25.143 24.857)">
            <mask id="b" fill="#fff">
                <use xlink:href="#a"/>
            </mask>
            <path fill="#FFF" d="M14.238 17.382v1.112a1.92 1.92 0 0 1-1.913 1.922 1.86 1.86 0 0 1-.36-.039 2.845 2.845 0 0 0-1.552-4.883v-3.779a1.92 1.92 0 0 1 1.912-1.922 1.92 1.92 0 0 1 1.913 1.922v5.667zM.92 17.283V2.871A1.92 1.92 0 0 1 2.833.95a1.92 1.92 0 0 1 1.913 1.922v12.593h-.357c-1.184 0-2.662.703-3.468 1.82zm6.658-7.49a1.92 1.92 0 0 1 1.913 1.922v3.749H5.667v-3.749a1.92 1.92 0 0 1 1.912-1.922zm9.492-7.227a2.844 2.844 0 0 0-2.833 2.848V9.62a2.812 2.812 0 0 0-4.286.544 2.812 2.812 0 0 0-4.285-.544V2.87A2.844 2.844 0 0 0 2.833.023 2.844 2.844 0 0 0 0 2.871v18.245l.003-.002a7.524 7.524 0 0 0 .993 3.617c1.64 2.85 5.171 4.676 10.494 5.427a.461.461 0 0 0 .52-.394.462.462 0 0 0-.392-.523c-5.02-.708-8.324-2.378-9.819-4.963-1.62-2.801-.48-5.763-.468-5.794l.004-.015.006-.014c.382-1.182 1.924-2.065 3.048-2.065h5.63a1.92 1.92 0 0 1 1.913 1.922 1.92 1.92 0 0 1-1.912 1.922H4.935a.462.462 0 0 0-.46.463c0 .255.206.463.46.463 1.491 0 2.671.435 3.508 1.294 1.455 1.493 1.424 3.808 1.424 3.832a.462.462 0 0 0 .46.474c.25 0 .454-.2.46-.452.003-.11.046-2.717-1.68-4.496a4.875 4.875 0 0 0-.78-.652h1.693c.343 0 .671-.065.976-.178l-.007.02c.398.216.853.34 1.336.34a2.844 2.844 0 0 0 2.834-2.848V5.414a1.92 1.92 0 0 1 1.912-1.922 1.92 1.92 0 0 1 1.912 1.922v11.835c0 .256.207.463.46.463.255 0 .461-.207.461-.463V5.414a2.844 2.844 0 0 0-2.833-2.848z" mask="url(#b)"/>
        </g>
        <g transform="translate(46.286 24)">
            <mask id="d" fill="#fff">
                <use xlink:href="#c"/>
            </mask>
            <path fill="#FFF" d="M.445 2.749h1.229v1.273a.45.45 0 0 0 .44.457.45.45 0 0 0 .442-.457V2.749h1.228a.45.45 0 0 0 .441-.457.45.45 0 0 0-.44-.457h-1.23V.562a.45.45 0 0 0-.44-.457.45.45 0 0 0-.441.457v1.273H.445a.45.45 0 0 0-.441.457.45.45 0 0 0 .441.457" mask="url(#d)"/>
        </g>
        <path fill="#FFF" d="M51.37 34.228a.8.8 0 0 1-.788.81.8.8 0 0 1-.79-.81.8.8 0 0 1 .79-.81.8.8 0 0 1 .789.81m-2.514 0c0 .977.774 1.772 1.725 1.772.95 0 1.724-.795 1.724-1.772v-3.28l1.495 1.304a.46.46 0 0 0 .66-.055.49.49 0 0 0-.055-.678l-2.265-1.976a.458.458 0 0 0-.5-.07.482.482 0 0 0-.27.436v2.746a1.675 1.675 0 0 0-.79-.198c-.95 0-1.724.795-1.724 1.771"/>
        <g transform="translate(38 42.286)">
            <mask id="f" fill="#fff">
                <use xlink:href="#e"/>
            </mask>
            <path fill="#FFF" d="M15.65 7.397l-3.587 1.57-2.967-6.336 3.748-1.64c.144-.064.294-.007.371.032a.872.872 0 0 1 .384.427l.237.54c-.67.558-.885 1.62-.462 2.586.423.966 1.35 1.528 2.214 1.414l.237.54c.155.354.073.759-.174.867zM4.043 12.48c-.144.063-.295.006-.371-.033a.873.873 0 0 1-.384-.427l-.237-.54c.67-.558.885-1.62.462-2.586a2.458 2.458 0 0 0-1.111-1.212 1.86 1.86 0 0 0-1.104-.204l-.236-.538a.871.871 0 0 1-.053-.572c.023-.083.083-.232.227-.295L8.251 3l2.967 6.337-7.176 3.142zm12.627-6.32l-.395-.902a.461.461 0 0 0-.607-.237c-.505.221-1.155-.144-1.449-.814-.293-.67-.121-1.396.384-1.617a.46.46 0 0 0 .237-.607l-.395-.902a1.783 1.783 0 0 0-.809-.878 1.353 1.353 0 0 0-1.16-.057L.864 5.23c-.36.157-.631.482-.745.89-.107.382-.072.805.097 1.19l.395.903a.46.46 0 0 0 .607.237c.228-.1.499-.081.762.053.294.15.537.421.687.762.293.67.121 1.395-.384 1.616a.46.46 0 0 0-.237.607l.395.902c.17.386.456.698.809.878.21.107.433.162.652.162.176 0 .348-.035.509-.105L16.02 8.24c.721-.316 1.012-1.249.648-2.08z" mask="url(#f)"/>
        </g>
        <path fill="#FFF" d="M46.818 49.964c-.106-.207-.402-.304-.658-.219l-2.707.905c-.257.086-.378.323-.271.53.08.155.268.249.465.249a.61.61 0 0 0 .193-.032l2.707-.904c.257-.086.378-.323.271-.53M45.961 47.964c-.107-.207-.402-.305-.658-.218l-2.707.904c-.257.086-.378.323-.272.53.081.155.268.249.466.249.064 0 .13-.01.193-.032l2.707-.904c.256-.086.378-.323.271-.53"/>
    </g>
</svg>
