<svg xmlns="http://www.w3.org/2000/svg" xmlns:xlink="http://www.w3.org/1999/xlink" width="80" height="80" viewBox="0 0 80 80">
    <defs>
        <path id="a" d="M0 .054h30.57v28.384H0z"/>
        <path id="c" d="M.094.127h21.012v20.111H.094z"/>
    </defs>
    <g fill="none" fill-rule="evenodd">
        <circle cx="40" cy="40" r="40" fill="#9CA3CA"/>
        <g transform="translate(24 27.143)">
            <mask id="b" fill="#fff">
                <use xlink:href="#a"/>
            </mask>
            <path fill="#FFF" d="M30.528 19.324a.6.6 0 0 0-.34-.778.608.608 0 0 0-.784.336 3.092 3.092 0 0 1-2.854 1.932H13.93a.62.62 0 0 0-.419.165l-5.76 5.467v-5.038a.597.597 0 0 0-.18-.422.607.607 0 0 0-.426-.178H4.27c-1.69 0-3.067-1.365-3.067-3.04V4.293c0-1.675 1.377-3.04 3.067-3.04h13.67c.333 0 .606-.27.606-.6 0-.33-.273-.6-.605-.6H4.27C1.916.054 0 1.953 0 4.288v13.48C0 20.101 1.916 22 4.27 22h2.276v5.843a.599.599 0 0 0 .605.594.62.62 0 0 0 .42-.165l6.605-6.272h12.38a4.291 4.291 0 0 0 3.972-2.677" mask="url(#b)"/>
        </g>
        <g transform="translate(35.429 24)">
            <mask id="d" fill="#fff">
                <use xlink:href="#c"/>
            </mask>
            <path fill="#FFF" d="M19.877 10.033l-1.137 7.16v.02c-.153 1.219-.938 1.839-2.335 1.839h-8.9a1.775 1.775 0 0 1-1.783-1.767V9.407c.06 0 .12 0 .18-.02.173-.046 4.283-1.226 4.283-4.917V1.35c.44-.059 1.118-.072 1.624.29.485.357.725 1.029.725 2.011v3.725c0 .33.272.6.605.6h5.016c.372 0 .731.112 1.03.33.526.375.799 1.054.692 1.726zM1.305 18.511h3.213V8.939H1.305v9.572zm19.763-8.293c.18-1.114-.286-2.248-1.184-2.887a2.985 2.985 0 0 0-1.736-.554h-4.41V3.652c0-1.384-.413-2.386-1.224-2.973C11.23-.257 9.474.277 9.4.297a.594.594 0 0 0-.42.567V4.47c0 2.775-3.266 3.724-3.399 3.764-.013.006-.026.013-.04.013a1.128 1.128 0 0 0-.944-.508h-3.38C.6 7.74.095 8.24.095 8.853v9.737c0 .613.506 1.114 1.125 1.114h3.379c.312 0 .592-.125.798-.33a2.984 2.984 0 0 0 2.109.864h8.9c2.016 0 3.3-1.048 3.532-2.874l1.131-7.146z" mask="url(#d)"/>
        </g>
    </g>
</svg>
