<svg xmlns="http://www.w3.org/2000/svg" xmlns:xlink="http://www.w3.org/1999/xlink" width="80" height="80" viewBox="0 0 80 80">
    <defs>
        <path id="a" d="M0 0h33.143v31.714H0z"/>
    </defs>
    <g fill="none" fill-rule="evenodd">
        <circle cx="40" cy="40" r="40" fill="#44485A"/>
        <g transform="translate(23.429 24.286)">
            <mask id="b" fill="#fff">
                <use xlink:href="#a"/>
            </mask>
            <path fill="#FFF" d="M26.315 6.988a14.273 14.273 0 0 1 3.198 11.296.512.512 0 0 1-.255-.14l-1.55-1.555a1.796 1.796 0 0 0-1.28-.533h-1.536a.517.517 0 0 1-.515-.517v-1.606c0-.479-.194-.947-.53-1.285l-3.624-3.637a.52.52 0 0 1-.15-.365V6.999c0-.02.001-.041.004-.062a58.801 58.801 0 0 1 3.201-2.65 14.213 14.213 0 0 1 3.037 2.7zm2.241 14.722a2.243 2.243 0 0 0-.328-.025h-3.09c-.602 0-1.17.235-1.595.663l-.898.9c-.87.874-.867 2.327 0 3.202l1.213 1.217a14.188 14.188 0 0 1-13.696 1.717l4.93-4.948c.33-.33.519-.788.519-1.255v-4.425c0-.979-.794-1.775-1.77-1.775h-3.417a.474.474 0 0 1-.396-.214 188.75 188.75 0 0 1 3.466-3.563 162.745 162.745 0 0 1 5.284-5.099v.54c0 .48.193.949.53 1.285l3.623 3.637c.096.096.15.23.15.366v1.606c0 1.002.813 1.816 1.811 1.816h1.536c.136 0 .269.056.365.152l1.549 1.554c.259.261.58.43.922.5a14.165 14.165 0 0 1-.708 2.149zm-.771 1.559a14.513 14.513 0 0 1-2.913 3.578l-1.31-1.314a.979.979 0 0 1-.001-1.366l.897-.9a.967.967 0 0 1 .68-.283h2.806l-.159.285zM8.751 28.596v-5.091c0-.475-.184-.92-.518-1.255l-1.657-1.662a93.136 93.136 0 0 1 2.56-2.868c.322.344.78.56 1.288.56h3.418c.261 0 .474.213.474.476v4.425a.48.48 0 0 1-.14.336L9.01 28.704c-.095.095-.258.026-.258-.108zm-1.295-.674a14.34 14.34 0 0 1-3.701-3.726c.147-.211.3-.427.462-.648.452-.617.959-1.27 1.524-1.961l1.577 1.582c.09.09.138.208.138.336v4.417zm-4.437-4.93a14.195 14.195 0 0 1-1.723-6.748h3.087c.262 0 .475.213.475.476v3.245c0 .19.03.375.087.55a48.854 48.854 0 0 0-1.772 2.264l-.154.214zM4.612 7.03v2.5c0 .475.185.921.518 1.255l3.386 3.398a.47.47 0 0 1 .138.336v1.816c-.919.981-1.75 1.898-2.501 2.759V16.72c0-.979-.794-1.775-1.77-1.775H1.348A14.236 14.236 0 0 1 4.612 7.03zm1.295-1.353a14.28 14.28 0 0 1 2.117-1.608l.003.005c.028-.017 2.562-1.629 5.521-2.01.035.001.071.001.107-.003.209-.027.419-.048.629-.066l.029-.001c.39-.033.78-.05 1.168-.05.657 0 1.315.045 1.963.135v.281c0 .48.194.948.53 1.285l1.334 1.338c.426.428-.156.837-.339 1.202-1.848 1.644-3.951 3.652-6.39 6.1-.94.944-1.816 1.837-2.63 2.686v-.452c0-.475-.185-.922-.519-1.255L6.045 9.866a.47.47 0 0 1-.138-.336V5.677zM18.739 2.32a14.1 14.1 0 0 1 3.339 1.254c-.459.359-.935.744-1.43 1.16a1.81 1.81 0 0 0-.424-.671L18.89 2.725a.52.52 0 0 1-.151-.365c-.003-.011 0-.027 0-.039zm14.335 1.796a.647.647 0 0 0-.868-.29l-.688.345c.06-.203.097-.347.1-.359.324-1.244.086-2.31-.685-3.085-.797-.8-1.97-.941-3.488-.42-1.173.402-2.56 1.192-4.234 2.41A15.376 15.376 0 0 0 14.248.696V.692c-2.68.135-5.114 1.278-6.25 1.895-.027.011-.055.02-.08.035C3.394 5.17.012 10.266.012 15.57a15.478 15.478 0 0 0 2.192 8.61c-.746 1.148-1.262 2.146-1.56 3.024-.52 1.523-.379 2.701.418 3.5 1.295 1.3 3.158.827 4.581.034a.65.65 0 0 0 .251-.884.646.646 0 0 0-.88-.252c-.886.494-2.19 1.033-3.037.184-.687-.69-.324-2.233 1.015-4.422.464.633.978 1.235 1.542 1.801a15.352 15.352 0 0 0 10.947 4.55c6.267 0 12.068-3.944 14.387-9.789a15.613 15.613 0 0 0 1.094-5.746c0-5.016-2.49-9.82-6.575-12.706 2.832-1.99 4.82-2.64 5.63-1.827.435.437.552 1.056.348 1.842 0 .005-.085.332-.206.682l-.64-.945a.646.646 0 0 0-.899-.173.651.651 0 0 0-.172.902l1.304 1.928c.18.265.54.36.825.216l2.208-1.11a.65.65 0 0 0 .29-.871z" mask="url(#b)"/>
        </g>
    </g>
</svg>
