<?xml version="1.0" encoding="UTF-8"?>
<svg width="60px" height="60px" viewBox="0 0 60 60" version="1.1" xmlns="http://www.w3.org/2000/svg" xmlns:xlink="http://www.w3.org/1999/xlink">
    <!-- Generator: sketchtool 51.2 (57519) - http://www.bohemiancoding.com/sketch -->
    <title>7372A433-C2B3-405E-A3BB-E4FD059087F4</title>
    <desc>Created with sketchtool.</desc>
    <defs></defs>
    <g id="03_알림센터" stroke="none" stroke-width="1" fill="none" fill-rule="evenodd">
        <g id="03_알림센터_04" transform="translate(-150.000000, -222.000000)">
            <g id="Contents" transform="translate(20.000000, 222.000000)">
                <g id="img_nodata_noti" transform="translate(130.000000, 0.000000)">
                    <rect id="Bounds" fill-rule="nonzero" x="0" y="0" width="60" height="60"></rect>
                    <g id="Shape" transform="translate(9.000000, 6.000000)" stroke="#666666" stroke-width="2">
                        <path d="M14,40 C14,43.8659932 17.1340068,47 21,47 C24.8659932,47 28,43.8659932 28,40" id="Oval" fill-rule="nonzero"></path>
                        <path d="M37.8235294,25 L37.8235294,28.3647039 L41.0897898,33.4675039 C42.131088,35.3418408 41.4557768,37.70543 39.5814399,38.7467282 C39.0046854,39.0671475 38.3557862,39.2352941 37.6960027,39.2352941 L4.30399732,39.2352941 C2.15983299,39.2352941 0.421644375,37.4971055 0.421644375,35.3529412 C0.421644375,34.6931576 0.589791025,34.0442585 0.910210244,33.4675039 L4.17647059,28.3647039 L4.17647059,25" id="Rectangle-4"></path>
                        <path d="M37.8235294,17.1176471 L37.8235294,27.4705882 M4.17647059,27.4705882 L4.17647059,17.1176471" id="Rectangle"></path>
                        <path d="M37.8235294,17.1176471 C37.8235294,7.82626833 30.2913787,0.294117647 21,0.294117647 C11.7086213,0.294117647 4.17647059,7.82626833 4.17647059,17.1176471" id="Oval-2"></path>
                    </g>
                </g>
            </g>
        </g>
    </g>
</svg>