<?xml version="1.0" encoding="UTF-8"?>
<svg width="40px" height="40px" viewBox="0 0 40 40" version="1.1" xmlns="http://www.w3.org/2000/svg" xmlns:xlink="http://www.w3.org/1999/xlink">
    <!-- Generator: sketchtool 51.2 (57519) - http://www.bohemiancoding.com/sketch -->
    <title>C9C9E87E-89C5-4723-84B3-22AF5B475187</title>
    <desc>Created with sketchtool.</desc>
    <defs></defs>
    <g id="04_홈" stroke="none" stroke-width="1" fill="none" fill-rule="evenodd">
        <g id="04_홈_01" transform="translate(-160.000000, -490.000000)" fill-rule="nonzero">
            <g id="Contents" transform="translate(0.000000, 363.000000)">
                <g id="고객문의" transform="translate(140.000000, 127.000000)">
                    <g id="img_home_05" transform="translate(20.000000, 0.000000)">
                        <rect id="Bounds" x="0" y="0" width="40" height="40"></rect>
                        <g id="Shape" transform="translate(7.000000, 9.000000)">
                            <path d="M10.2912605,22.9440696 C11.7186799,23.6211818 13.3151011,24 15,24 C21.0751322,24 26,19.0751322 26,13 C26,6.92486775 21.0751322,2 15,2 C8.92486775,2 4,6.92486775 4,13 C4,15.2794492 4.69333469,17.3969614 5.88061844,19.1531509" id="Oval-6" fill="#A0C2F9"></path>
                            <path d="M8.29126053,20.9440696 C9.71867993,21.6211818 11.3151011,22 13,22 C19.0751322,22 24,17.0751322 24,11 C24,4.92486775 19.0751322,0 13,0 C6.92486775,0 2,4.92486775 2,11 C2,13.2794492 2.69333469,15.3969614 3.88061844,17.1531509" id="Oval-6" stroke="#222222" stroke-width="1.5" stroke-linecap="round"></path>
                            <path d="M1.59877422,23.0036277 L3.68372056,18.7611459 C3.93070981,18.2671674 4.53138285,18.066943 5.02536135,18.3139323 C5.21888875,18.410696 5.37581124,18.5676185 5.47257494,18.7611459 C6.46811578,20.7692616 7.11227891,22.0643699 7.40506433,22.6464706" id="Triangle" stroke="#222222" stroke-width="1.5" transform="translate(4.501919, 20.605884) rotate(-135.000000) translate(-4.501919, -20.605884) "></path>
                            <circle id="Oval-9" fill="#222222" cx="8.5" cy="11" r="1.5"></circle>
                            <circle id="Oval-9-Copy" fill="#222222" cx="13" cy="11" r="1.5"></circle>
                            <circle id="Oval-9-Copy-2" fill="#222222" cx="17.5" cy="11" r="1.5"></circle>
                        </g>
                    </g>
                </g>
            </g>
        </g>
    </g>
</svg>