<?xml version="1.0" encoding="UTF-8"?>
<svg width="40px" height="40px" viewBox="0 0 40 40" version="1.1" xmlns="http://www.w3.org/2000/svg" xmlns:xlink="http://www.w3.org/1999/xlink">
    <!-- Generator: sketchtool 51.2 (57519) - http://www.bohemiancoding.com/sketch -->
    <title>1CBEAD13-F949-43EB-A7AB-A07E4B582450</title>
    <desc>Created with sketchtool.</desc>
    <defs></defs>
    <g id="04_홈" stroke="none" stroke-width="1" fill="none" fill-rule="evenodd">
        <g id="04_홈_01" transform="translate(-60.000000, -383.000000)">
            <g id="Contents" transform="translate(0.000000, 363.000000)">
                <g id="화물-등록" transform="translate(40.000000, 20.000000)">
                    <g id="img_home_01" transform="translate(20.000000, 0.000000)">
                        <rect id="Bounds" x="0" y="0" width="40" height="40"></rect>
                        <g id="Shape" transform="translate(3.000000, 6.000000)" fill-rule="nonzero">
                            <path d="M29.8292943,22 C29.9398458,22.3127789 30,22.6493646 30,23 C30,24.6568542 28.6568542,26 27,26 C25.3431458,26 24,24.6568542 24,23 C24,22.6493646 24.0601542,22.3127789 24.1707057,22 L22,22 L14.8292943,22 C14.9398458,22.3127789 15,22.6493646 15,23 C15,24.6568542 13.6568542,26 12,26 C10.3431458,26 9,24.6568542 9,23 C9,22.6493646 9.06015422,22.3127789 9.17070571,22 L6,22 L6,7 L22,7 L22,10 L32,10 L34,16 L34,22 L29.8292943,22 Z" id="Combined-Shape" fill="#A0C2F9"></path>
                            <rect id="Rectangle-2" stroke="#222222" stroke-width="1.5" x="4" y="4" width="18" height="18"></rect>
                            <polygon id="Rectangle-2" stroke="#222222" stroke-width="1.5" points="22 8 29 8 32 16 32 22 22 22"></polygon>
                            <circle id="Oval-7" stroke="#222222" stroke-width="1.5" fill="#FFFFFF" cx="10" cy="22" r="3"></circle>
                            <circle id="Oval-7" stroke="#222222" stroke-width="1.5" fill="#FFFFFF" cx="25" cy="22" r="3"></circle>
                            <circle id="Oval-7" stroke="#222222" stroke-width="1.5" fill="#FFFFFF" cx="6.5" cy="6.5" r="6.5"></circle>
                            <rect id="Rectangle-3" fill="#222222" transform="translate(6.500000, 6.500000) rotate(-270.000000) translate(-6.500000, -6.500000) " x="5.75" y="3.5" width="1.5" height="6"></rect>
                            <rect id="Rectangle-3" fill="#222222" x="5.75" y="3.5" width="1.5" height="6"></rect>
                        </g>
                    </g>
                </g>
            </g>
        </g>
    </g>
</svg>