<?xml version="1.0" encoding="UTF-8"?>
<svg width="40px" height="40px" viewBox="0 0 40 40" version="1.1" xmlns="http://www.w3.org/2000/svg" xmlns:xlink="http://www.w3.org/1999/xlink">
    <!-- Generator: sketchtool 51.2 (57519) - http://www.bohemiancoding.com/sketch -->
    <title>6AD6D6E2-C4D3-462E-A5A0-8027CFBADF27</title>
    <desc>Created with sketchtool.</desc>
    <defs></defs>
    <g id="04_홈" stroke="none" stroke-width="1" fill="none" fill-rule="evenodd">
        <g id="04_홈_01" transform="translate(-260.000000, -383.000000)">
            <g id="Contents" transform="translate(0.000000, 363.000000)">
                <g id="인수-보류" transform="translate(240.000000, 20.000000)">
                    <g id="img_home_03" transform="translate(20.000000, 0.000000)">
                        <rect id="Bounds" x="0" y="0" width="40" height="40"></rect>
                        <g id="Shape" transform="translate(9.000000, 9.000000)">
                            <circle id="Oval-8" fill="#A0C2F9" fill-rule="nonzero" cx="13" cy="13" r="11"></circle>
                            <circle id="Oval-8" stroke="#222222" stroke-width="1.5" fill-rule="nonzero" cx="11" cy="11" r="11"></circle>
                            <path d="M16.5,11.7345029 L15.0590643,11.7345029 C14.7374269,13.0467836 14.4672515,14.3590643 14.145614,15.671345 L11.971345,15.671345 C11.7654971,14.3847953 11.4953216,13.0210526 11.3280702,11.7345029 L10.6847953,11.7345029 C10.4403509,13.0210526 10.1444444,14.3847953 9.9,15.671345 L7.73859649,15.671345 C7.46842105,14.3590643 7.17251462,13.0467836 6.90233918,11.7345029 L5.5,11.7345029 L5.5,10.1906433 L6.56783626,10.1906433 C6.34912281,9.13567251 6.10467836,8.05497076 5.88596491,7 L7.88011696,7 C8.07309942,8.05497076 8.22748538,9.13567251 8.40760234,10.1906433 L9.51403509,10.1906433 C9.71988304,9.13567251 9.9,8.05497076 10.105848,7 L12.1128655,7 C12.2929825,8.05497076 12.4730994,9.13567251 12.6403509,10.1906433 L13.6953216,10.1906433 C13.8883041,9.13567251 14.0555556,8.05497076 14.248538,7 L16.1397661,7 C15.8953216,8.05497076 15.6380117,9.13567251 15.4064327,10.1906433 L16.5,10.1906433 L16.5,11.7345029 Z M8.90935673,13.7672515 C8.97368421,13.1497076 9.05087719,12.5450292 9.19239766,11.7345029 L8.67777778,11.7345029 C8.80643275,12.5192982 8.88362573,13.1625731 8.90935673,13.7672515 Z M13.1421053,13.754386 C13.1935673,13.1111111 13.2836257,12.4421053 13.3994152,11.7345029 L12.9105263,11.7345029 C13.0263158,12.4421053 13.1035088,13.0982456 13.1421053,13.754386 Z M10.9421053,10.1906433 L11.0836257,10.1906433 L11.0192982,9.35438596 C10.9935673,9.6245614 10.9807018,9.89473684 10.9421053,10.1906433 Z" id="₩" fill="#222222"></path>
                            <circle id="Oval-8" fill="#A0C2F9" fill-rule="nonzero" cx="24" cy="19" r="6"></circle>
                            <circle id="Oval-8" stroke="#222222" stroke-width="1.5" fill="#FFFFFF" fill-rule="nonzero" cx="22" cy="18" r="6"></circle>
                            <circle id="Oval-9" fill="#222222" fill-rule="nonzero" cx="19" cy="18" r="1"></circle>
                            <circle id="Oval-9-Copy" fill="#222222" fill-rule="nonzero" cx="22" cy="18" r="1"></circle>
                            <circle id="Oval-9-Copy-2" fill="#222222" fill-rule="nonzero" cx="25" cy="18" r="1"></circle>
                        </g>
                    </g>
                </g>
            </g>
        </g>
    </g>
</svg>