<?xml version="1.0" encoding="UTF-8"?>
<svg width="40px" height="40px" viewBox="0 0 40 40" version="1.1" xmlns="http://www.w3.org/2000/svg" xmlns:xlink="http://www.w3.org/1999/xlink">
    <!-- Generator: sketchtool 51.2 (57519) - http://www.bohemiancoding.com/sketch -->
    <title>9EE5482A-C318-4EA5-8B94-6358F5B89F97</title>
    <desc>Created with sketchtool.</desc>
    <defs></defs>
    <g id="04_홈" stroke="none" stroke-width="1" fill="none" fill-rule="evenodd">
        <g id="04_홈_01" transform="translate(-60.000000, -490.000000)" fill-rule="nonzero">
            <g id="Contents" transform="translate(0.000000, 363.000000)">
                <g id="공지사항" transform="translate(40.000000, 127.000000)">
                    <g id="img_home_04" transform="translate(20.000000, 0.000000)">
                        <rect id="Bounds" x="0" y="0" width="40" height="40"></rect>
                        <g id="Shape" transform="translate(9.000000, 9.000000)">
                            <path d="M10,10 L19,2 L22,2 L22,24 L19,24 L10,16 L4,16 L2,14 L2,10 L10,10 Z" id="Combined-Shape" fill="#A0C2F9"></path>
                            <path d="M8,8 L17,0 L19,0 L19,22 L17,22 L8,14 L2,14 L0,12 L0,8 L8,8 Z" id="Combined-Shape" stroke="#222222" stroke-width="1.5"></path>
                            <rect id="Rectangle-11" fill="#222222" x="4" y="16" width="1.5" height="7"></rect>
                            <rect id="Rectangle-11" fill="#222222" x="21.5" y="3" width="1.5" height="16"></rect>
                        </g>
                    </g>
                </g>
            </g>
        </g>
    </g>
</svg>