<?xml version="1.0" encoding="UTF-8"?>
<svg width="30px" height="30px" viewBox="0 0 30 30" version="1.1" xmlns="http://www.w3.org/2000/svg" xmlns:xlink="http://www.w3.org/1999/xlink">
    <!-- Generator: sketchtool 51.1 (57501) - http://www.bohemiancoding.com/sketch -->
    <title>F77681BE-7EDC-4979-8D11-FFFA359E9E28</title>
    <desc>Created with sketchtool.</desc>
    <defs></defs>
    <g id="04_홈" stroke="none" stroke-width="1" fill="none" fill-rule="evenodd">
        <g id="04_홈_01" transform="translate(-320.000000, -31.000000)">
            <g id="Toolbar" transform="translate(0.000000, 21.000000)">
                <g id="btn_navi_noti_off" transform="translate(320.000000, 10.000000)">
                    <rect id="Bounds" x="0" y="0" width="30" height="30"></rect>
                    <g id="Shape" transform="translate(6.500000, 5.000000)" stroke="#222222" stroke-width="1.5">
                        <path d="M5.5,16 C5.5,17.6568542 6.84314575,19 8.5,19 C10.1568542,19 11.5,17.6568542 11.5,16" id="Oval-3"></path>
                        <path d="M15,10 L15,11.2999992 L16.2619642,13.2715356 C16.664284,13.9957112 16.4033683,14.9089161 15.6791927,15.3112359 C15.4563557,15.4350342 15.2056447,15.5 14.9507283,15.5 L2.04927169,15.5 C1.22084457,15.5 0.54927169,14.8284271 0.54927169,14 C0.54927169,13.7450836 0.614237441,13.4943726 0.738035776,13.2715356 L2,11.2999992 L2,10" id="Rectangle-4"></path>
                        <path d="M15,7 L15,11 M2,11 L2,7" id="Rectangle"></path>
                        <path d="M15,7 C15,3.41014913 12.0898509,0.5 8.5,0.5 C4.91014913,0.5 2,3.41014913 2,7" id="Oval-2"></path>
                    </g>
                </g>
            </g>
        </g>
    </g>
</svg>