<?xml version="1.0" encoding="UTF-8"?>
<svg width="20px" height="20px" viewBox="0 0 20 20" version="1.1" xmlns="http://www.w3.org/2000/svg" xmlns:xlink="http://www.w3.org/1999/xlink">
    <!-- Generator: sketchtool 51.1 (57501) - http://www.bohemiancoding.com/sketch -->
    <title>14D51512-F5CB-4FDF-BBAF-73F871B4DEE5</title>
    <desc>Created with sketchtool.</desc>
    <defs></defs>
    <g id="01_멤버쉽" stroke="none" stroke-width="1" fill="none" fill-rule="evenodd">
        <g id="01_로그인_02" transform="translate(-296.000000, -263.000000)">
            <g id="입력" transform="translate(30.000000, 189.000000)">
                <g id="btn_text_delete" transform="translate(266.000000, 74.000000)">
                    <polygon id="Bounds" points="0 0 20 0 20 20 0 20"></polygon>
                    <g id="Shape">
                        <circle id="Oval" fill="#A2A7AE" cx="10" cy="10" r="10"></circle>
                        <path d="M10,9.09090909 L13.6363636,5.45454545 C13.8874022,5.20350693 14.294416,5.20350693 14.5454545,5.45454545 C14.7964931,5.70558398 14.7964931,6.11259784 14.5454545,6.36363636 L10.9090909,10 L14.5454545,13.6363636 C14.7964931,13.8874022 14.7964931,14.294416 14.5454545,14.5454545 C14.294416,14.7964931 13.8874022,14.7964931 13.6363636,14.5454545 L10,10.9090909 L6.36363636,14.5454545 C6.11259784,14.7964931 5.70558398,14.7964931 5.45454545,14.5454545 C5.20350693,14.294416 5.20350693,13.8874022 5.45454545,13.6363636 L9.09090909,10 L5.45454545,6.36363636 C5.20350693,6.11259784 5.20350693,5.70558398 5.45454545,5.45454545 C5.70558398,5.20350693 6.11259784,5.20350693 6.36363636,5.45454545 L10,9.09090909 Z" id="close" fill="#FFFFFF"></path>
                    </g>
                </g>
            </g>
        </g>
    </g>
</svg>