<?xml version="1.0" encoding="UTF-8"?>
<svg width="14px" height="14px" viewBox="0 0 14 14" version="1.1" xmlns="http://www.w3.org/2000/svg" xmlns:xlink="http://www.w3.org/1999/xlink">
    <!-- Generator: sketchtool 51.1 (57501) - http://www.bohemiancoding.com/sketch -->
    <title>2EC58B68-EF30-44F4-AABA-52ED7C7465C6</title>
    <desc>Created with sketchtool.</desc>
    <defs></defs>
    <g id="05_화물관리" stroke="none" stroke-width="1" fill="none" fill-rule="evenodd">
        <g id="05_화물등록_01" transform="translate(-336.000000, -39.000000)" fill-rule="nonzero">
            <g id="Toolbar" transform="translate(0.000000, 21.000000)">
                <g id="icon_copy" transform="translate(336.000000, 18.000000)">
                    <rect id="Bounds" x="0" y="0" width="14" height="14"></rect>
                    <g id="Shape" transform="translate(2.000000, 1.000000)" stroke="#31579E" stroke-width="1.5">
                        <path d="M1,9 C0.44771525,9 6.76353751e-17,8.55228475 0,8 L0,1 C-6.76353751e-17,0.44771525 0.44771525,1.01453063e-16 1,0 L6,0 C6.55228475,-1.01453063e-16 7,0.44771525 7,1" id="Rectangle-5"></path>
                        <path d="M4,3 L8,3 L9,3 C9.55228475,3 10,3.44771525 10,4 L10,5 L10,11 C10,11.5522847 9.55228475,12 9,12 L4,12 C3.44771525,12 3,11.5522847 3,11 L3,4 C3,3.44771525 3.44771525,3 4,3 Z" id="Rectangle-5"></path>
                    </g>
                </g>
            </g>
        </g>
    </g>
</svg>