<?xml version="1.0" encoding="UTF-8"?>
<svg width="30px" height="30px" viewBox="0 0 30 30" version="1.1" xmlns="http://www.w3.org/2000/svg" xmlns:xlink="http://www.w3.org/1999/xlink">
    <!-- Generator: sketchtool 51.2 (57519) - http://www.bohemiancoding.com/sketch -->
    <title>4FC5C010-C30A-477B-8DCA-6DE70C3A4523</title>
    <desc>Created with sketchtool.</desc>
    <defs></defs>
    <g id="05_화물관리" stroke="none" stroke-width="1" fill="none" fill-rule="evenodd">
        <g id="05_화물등록_03" transform="translate(-140.000000, -371.000000)">
            <g id="상차일" transform="translate(20.000000, 284.000000)">
                <g id="날짜" transform="translate(0.000000, 82.000000)">
                    <g id="icon_calendar" transform="translate(120.000000, 5.000000)">
                        <rect id="Bounds" x="0" y="0" width="30" height="30"></rect>
                        <g id="Shape" transform="translate(8.000000, 8.000000)">
                            <rect id="Rectangle-2" stroke="#222222" x="0.5" y="2.5" width="13" height="10.2777778"></rect>
                            <path d="M3.25,5.5 L4.75,5.5 L4.75,6.5 L3.25,6.5 L3.25,5.5 Z M3.25,9 L4.75,9 L4.75,10 L3.25,10 L3.25,9 Z M6.25,5.5 L7.75,5.5 L7.75,6.5 L6.25,6.5 L6.25,5.5 Z M6.25,9 L7.75,9 L7.75,10 L6.25,10 L6.25,9 Z M9.25,5.5 L10.75,5.5 L10.75,6.5 L9.25,6.5 L9.25,5.5 Z M9.25,9 L10.75,9 L10.75,10 L9.25,10 L9.25,9 Z" id="Combined-Shape" fill="#222222"></path>
                            <path d="M3,0 L4,0 L4,3 L3,3 L3,0 Z M10,0 L11,0 L11,3 L10,3 L10,0 Z" id="Combined-Shape" fill="#222222"></path>
                        </g>
                    </g>
                </g>
            </g>
        </g>
    </g>
</svg>