<?xml version="1.0" encoding="UTF-8"?>
<svg width="70px" height="20px" viewBox="0 0 70 20" version="1.1" xmlns="http://www.w3.org/2000/svg" xmlns:xlink="http://www.w3.org/1999/xlink">
    <!-- Generator: sketchtool 51.2 (57519) - http://www.bohemiancoding.com/sketch -->
    <title>4D768FE3-D244-4410-8CF7-CAFD67394206</title>
    <desc>Created with sketchtool.</desc>
    <defs></defs>
    <g id="03_알림센터" stroke="none" stroke-width="1" fill="none" fill-rule="evenodd">
        <g id="03_알림센터_03" transform="translate(-20.000000, -92.000000)" fill-rule="nonzero">
            <g id="Contents" transform="translate(20.000000, 92.000000)">
                <g id="img_logo">
                    <rect id="Bounds" x="0" y="0" width="70" height="20"></rect>
                    <g id="Shape" transform="translate(3.000000, 2.000000)" fill="#333333">
                        <path d="M0.00769245389,15.9028868 L2.66976119,1.01312828 C2.7745861,0.426810784 3.28372308,0 3.87830866,0 L10.5518471,0 C13.6692538,0 15.215967,1.57541998 15.215967,3.78552426 C15.215967,6.22384583 13.2855729,7.72767764 11.6908996,7.87181487 C13.2256228,7.96790637 14.6524359,9.49095647 14.6524359,11.5329007 C14.6524359,14.9681714 11.5350292,16.4816124 7.79414127,16.4816124 L0.491111445,16.4816124 C0.219878084,16.4816124 0,16.2613417 0,15.989624 C0,15.9605407 0.0025742316,15.9315146 0.00769245389,15.9028868 Z M6.89050891,3.51426612 L6.45917558,5.96861434 C6.41214652,6.23621644 6.59056959,6.49134343 6.85769466,6.53845649 C6.88580907,6.54341505 6.91430152,6.54590849 6.9428483,6.54590849 L8.23092612,6.54590849 C9.52404227,6.54590849 10.4304321,5.85582213 10.4304321,4.53618326 C10.4304321,3.43446643 9.58446826,3.10758342 8.65390803,3.10758342 L7.37418164,3.10758342 C7.1357997,3.10758342 6.93184188,3.27907568 6.89050891,3.51426612 Z M5.77818225,9.89382722 L5.26373938,12.7961262 C5.21631827,13.0636589 5.39436734,13.319048 5.66142308,13.3665538 C5.68976724,13.3715958 5.71849905,13.3741315 5.7472866,13.3741315 L7.23993991,13.3741315 C8.7626748,13.3741315 9.86242781,12.5871909 9.86242781,11.1464843 C9.86242781,9.8994861 8.94395278,9.48785564 7.72334781,9.48785564 L6.26172945,9.48785564 C6.02361964,9.48785564 5.8198122,9.65896619 5.77818225,9.89382722 Z M14.8844998,15.7783787 L22.0394871,0.701857895 C22.2429404,0.273154397 22.6744879,0 23.1483289,0 L27.9577563,0 C28.2043142,0 28.4126537,0.183136772 28.4447014,0.428039545 L30.4727051,15.9256751 C30.5079601,16.1950877 30.3185273,16.4421206 30.0495949,16.4774386 C30.0284298,16.4802182 30.0071062,16.4816124 29.98576,16.4816124 L25.8856209,16.4816124 C25.6268849,16.4816124 25.4125263,16.2805152 25.3955658,16.0218749 L25.2400411,13.6502164 C25.2230803,13.3915761 25.0087217,13.1904789 24.7499858,13.1904789 L20.9881074,13.1904789 C20.8110882,13.1904789 20.6477667,13.2859139 20.5606245,13.4402737 L18.9846882,16.2318175 C18.897546,16.3861773 18.7342245,16.4816124 18.5572053,16.4816124 L15.3280365,16.4816124 C15.0568032,16.4816124 14.8369251,16.2613417 14.8369251,15.989624 C14.8369251,15.9165431 14.853177,15.8443801 14.8844998,15.7783787 Z M22.7209814,9.34729971 L24.7799203,9.34729971 C24.915537,9.34729971 25.025476,9.23716434 25.025476,9.1013055 C25.025476,9.09595844 25.0253019,9.09061282 25.0249542,9.08527713 L24.7685911,5.1521129 C24.7597547,5.01654275 24.6428859,4.91381756 24.5075575,4.92266979 C24.4175609,4.92855672 24.3380283,4.9833925 24.3003977,5.06550129 L22.4978219,8.99866552 C22.4412364,9.12213319 22.4952767,9.26817703 22.6185244,9.32486352 C22.6506654,9.33964644 22.6856147,9.34729971 22.7209814,9.34729971 Z M36.4858415,16.4816124 L32.7308284,16.4816124 C32.4595949,16.4816124 32.239717,16.2613417 32.239717,15.989624 C32.239717,15.9612094 32.242174,15.9328483 32.2470611,15.9048587 L34.846221,1.01805792 C34.9489878,0.429456511 35.4591676,0 36.0556397,0 L42.0621138,0 C45.491261,0 47.6734457,1.80363727 47.6734457,4.98666789 C47.6734457,5.22689661 47.6614557,5.47913677 47.6374757,5.64729687 C47.4456353,7.96550408 46.1627026,9.74319665 44.0164879,10.5839972 L45.849856,15.826969 C45.9395276,16.0834076 45.8047069,16.3641153 45.5487254,16.4539471 C45.4965441,16.4722591 45.4416508,16.4816124 45.3863605,16.4816124 L41.503658,16.4816124 C41.2928442,16.4816124 41.1055476,16.346829 41.0382457,16.1466902 L39.5609144,11.753474 C39.4936125,11.5533351 39.3063159,11.4185518 39.0955021,11.4185518 L38.2382062,11.4185518 C38.0014367,11.4185518 37.7983744,11.5877875 37.7552929,11.8210201 L36.9687546,16.079144 C36.925673,16.3123767 36.7226107,16.4816124 36.4858415,16.4816124 Z M40.8870912,3.60535271 L39.5817579,3.60535271 C39.3446906,3.60535271 39.1414623,3.77500422 39.0987017,4.00859956 L38.5114611,7.21661396 C38.4625378,7.48387501 38.6391493,7.74026386 38.9059341,7.78927449 C38.9351574,7.79464307 38.9648068,7.79734396 38.9945173,7.79734396 L40.26361,7.79734396 C41.678433,7.79734396 42.697585,7.06464636 42.8774355,5.79143412 C42.8894254,5.68333118 42.9134057,5.51517108 42.9134057,5.35902239 C42.9134057,3.97770724 41.7863432,3.60535271 40.8870912,3.60535271 Z M53.7472944,9.83976859 L53.3449634,11.9701732 C53.3278892,12.0605845 53.3451505,12.1541244 53.3933622,12.232445 C53.5001377,12.4059036 53.7270616,12.4598064 53.9002111,12.3528403 L60.1126461,8.51499762 C60.1483507,8.49294058 60.1800315,8.46493578 60.2063224,8.43219144 C60.3338209,8.27339689 60.3086799,8.04112603 60.1501683,7.91339995 L55.3873014,4.0755573 C55.3401476,4.0375615 55.2843753,4.01178967 55.2249154,4.00052043 C55.025036,3.96263788 54.8323467,4.0942516 54.7945317,4.29448789 L54.3976854,6.39584959 L49.2528957,6.39584959 L49.2623638,6.34396018 C49.9937555,2.20001467 52.7994214,0 57.0438903,0 C61.1324891,0 63.8175845,2.26088705 63.9861153,6.19982295 C64.0791578,8.37443343 63.6883429,9.721516 63.2991866,10.9461485 C62.1637542,14.51923 59.7239945,16.5118812 55.6530475,16.5118812 C51.6004189,16.5118812 48.7467928,14.3675996 48.7467928,10.4158371 C48.7467928,10.2316621 48.7480164,10.0376816 48.7528084,9.83976859 L53.7472944,9.83976859 Z" id="BARO"></path>
                    </g>
                </g>
            </g>
        </g>
    </g>
</svg>