<?xml version="1.0" encoding="UTF-8"?>
<svg width="300px" height="40px" viewBox="0 0 300 40" version="1.1" xmlns="http://www.w3.org/2000/svg" xmlns:xlink="http://www.w3.org/1999/xlink">
    <!-- Generator: sketchtool 51.2 (57519) - http://www.bohemiancoding.com/sketch -->
    <title>675DC377-7CC5-4DEE-9125-56F158CEBBFD</title>
    <desc>Created with sketchtool.</desc>
    <defs></defs>
    <g id="01_멤버쉽" stroke="none" stroke-width="1" fill="none" fill-rule="evenodd">
        <g id="01_로그인_01" transform="translate(-30.000000, -91.000000)" fill-rule="nonzero">
            <g id="img_logo" transform="translate(30.000000, 91.000000)">
                <path d="M155.821438,35.5714286 L152.544813,35.5714286 C152.032892,35.5714286 151.617897,35.155693 151.617897,34.6428571 C151.617897,34.5883013 151.622697,34.5338516 151.63224,34.48014 L155.928826,10.2972736 C156.018532,9.79237295 155.68268,9.31021911 155.17868,9.22035289 C155.125063,9.21079283 155.070711,9.20598492 155.016252,9.20598492 L148.121511,9.20598492 C147.609589,9.20598492 147.194594,8.79024933 147.194594,8.2774135 C147.194594,8.22576931 147.198895,8.17421512 147.207452,8.12328729 L147.664833,5.40104957 C147.739949,4.95397967 148.126342,4.62660436 148.578892,4.62660436 L170.018324,4.62660435 C170.530246,4.62660435 170.94524,5.04233994 170.94524,5.55517578 C170.94524,5.60383017 170.941423,5.65240931 170.933824,5.70046445 L170.503347,8.42270218 C170.43201,8.87382336 170.04378,9.20598492 169.587848,9.20598492 L162.058813,9.20598492 C161.609549,9.20598492 161.224965,9.52873769 161.146238,9.97183916 L156.734012,34.8055743 C156.655285,35.2486758 156.270701,35.5714286 155.821438,35.5714286 Z M172.897586,35.5714286 L169.596925,35.5714286 C169.085003,35.5714286 168.670009,35.155693 168.670009,34.6428571 C168.670009,34.5887705 168.674726,34.5347873 168.684106,34.4815232 L173.810819,5.37117168 C173.888967,4.92742923 174.273845,4.60393415 174.723637,4.60393415 L185.011907,4.60393415 C191.099321,4.60393415 194.35801,7.89111328 194.35801,12.8785575 C194.35801,13.3999721 194.33538,14.0800781 194.244861,14.6241629 C193.724376,18.9995117 190.827763,21.9239677 187.139107,23.0574777 L190.896311,34.3492171 C191.058195,34.8357359 190.795729,35.3616044 190.310077,35.5237773 C190.215563,35.5553384 190.116588,35.5714286 190.016961,35.5714286 L186.5477,35.5714286 C186.144971,35.5714286 185.788322,35.3109139 185.665179,34.9267884 L182.300878,24.4324131 C182.176987,24.0459578 181.816898,23.7848974 181.411736,23.7877966 L176.52748,23.8227464 C176.080596,23.8259441 175.699615,24.14812 175.621467,24.5889153 L173.81022,34.805236 C173.731634,35.2484943 173.346979,35.5714286 172.897586,35.5714286 Z M183.744639,9.00195313 L179.155557,9.00195313 C178.707326,9.00195313 178.323314,9.32326052 178.243467,9.76510986 L176.678172,18.4269402 C176.586979,18.9315734 176.921409,19.4147182 177.425142,19.5060742 C177.479629,19.5159557 177.53489,19.5209263 177.590262,19.5209263 L181.730587,19.5209263 C186.686511,19.5209263 188.542154,17.2539063 188.926861,14.510812 C188.99475,14.1254186 189.040009,13.6040039 189.040009,13.1959403 C189.040009,10.5888672 187.365405,9.00195313 183.744639,9.00195313 Z M205.473719,5.71521627 L202.405164,23.2841797 C202.314644,23.6695731 202.224126,24.5763812 202.224126,25.3018276 C202.224126,28.9063895 204.622883,31.332101 208.628356,31.332101 C212.113344,31.332101 214.919438,29.4051339 215.688851,25.0751255 L219.173915,5.3929942 C219.252417,4.94964446 219.637115,4.62660436 220.086583,4.62660436 L223.455594,4.62660436 C223.967516,4.62660435 224.382511,5.04233994 224.382511,5.55517578 C224.382511,5.60908795 224.377824,5.66289771 224.368504,5.71599518 L220.803183,26.027274 C219.581175,32.8736747 214.71577,36.1608538 208.424688,36.1608538 C201.975198,36.1608538 196.906124,32.6243025 196.906124,26.0726144 C196.906124,25.007115 197.064533,23.9189453 197.200312,23.1708287 L200.302236,5.39527108 C200.379787,4.95086719 200.764966,4.62660436 201.215305,4.62660436 L204.560674,4.62660436 C205.072595,4.62660435 205.48759,5.04233994 205.48759,5.55517578 C205.48759,5.60882385 205.482949,5.66237101 205.473719,5.71521627 Z M231.79221,16.6871512 L231.000167,20.609096 C230.864388,21.3572126 230.70598,23.0574777 230.70598,23.9416155 C230.70598,28.4983259 233.285776,31.4001116 237.789104,31.4001116 C240.87845,31.4001116 243.220899,29.9036518 244.154349,27.4792623 C244.177523,27.4190744 244.211092,27.3149951 244.255057,27.1670246 L244.255048,27.1670218 C244.372036,26.7732838 244.733377,26.5033482 245.143455,26.5033482 L248.588315,26.5033526 C248.974203,26.5033526 249.287028,26.816736 249.287028,27.203314 C249.287028,27.265528 249.278749,27.3274643 249.262408,27.3874861 C249.262408,27.3874861 249.262408,27.3874861 249.262408,27.3874861 C248.379846,32.4429409 243.831258,36.183524 237.381768,36.183524 C230.004456,36.183524 225.478498,31.5814732 225.478498,23.9416155 C225.478498,23.0574777 225.546387,21.629255 225.682166,20.8131278 L226.632617,15.8030134 C227.990405,8.52587891 232.720031,4.01450893 239.780526,4.01450893 C246.592093,4.01450893 251.253829,8.4125279 251.253829,13.6493443 C251.253829,13.7630938 251.241171,13.9456127 251.215853,14.196901 L251.215855,14.1969012 C251.168067,14.6712197 250.769501,15.0322266 250.293623,15.0322266 L247.136146,15.0322164 C246.639771,15.0322164 246.231501,14.6404854 246.210102,14.1436867 C246.209408,14.1275788 246.208503,14.1139327 246.207387,14.1027483 C245.935829,10.9969308 243.265513,8.72991071 239.690007,8.72991071 C235.616644,8.72991071 232.85581,11.3369838 231.79221,16.6871512 Z M261.856991,5.72560317 L259.649632,17.5691778 C259.602654,17.8212399 259.768543,18.063728 260.020155,18.1107902 C260.164653,18.1378174 260.313382,18.0945715 260.42098,17.9942424 L274.49023,4.87547388 C274.661766,4.7155261 274.887411,4.62660436 275.121755,4.62660436 L278.851677,4.62660436 C279.363598,4.62660436 279.778593,5.04233994 279.778593,5.55517578 C279.778593,5.80637007 279.677005,6.04684787 279.497012,6.22173358 L267.357773,18.0164726 C267.062332,18.3035296 266.991222,18.75137 267.18317,19.1160937 L275.126753,34.2097939 C275.3655,34.6634417 275.191945,35.2250849 274.739106,35.4642591 C274.605843,35.5346438 274.457465,35.5714286 274.306815,35.5714286 L270.548136,35.5714286 C270.200691,35.5714286 269.882423,35.3767755 269.723655,35.0671756 L263.336587,22.6122861 C263.102661,22.1561247 262.543893,21.9763067 262.088544,22.2106513 C262.01716,22.2473895 261.95084,22.2932594 261.891249,22.3471102 L258.630992,25.2933151 C258.47852,25.4310998 258.376035,25.6157038 258.339623,25.8181508 L256.722805,34.8075158 C256.643271,35.2497164 256.259098,35.5714286 255.810578,35.5714286 L252.530722,35.5714286 C252.0188,35.5714286 251.603806,35.155693 251.603806,34.6428571 C251.603806,34.5887316 251.60853,34.5347097 251.617924,34.4814086 L256.744396,5.39372725 C256.822593,4.9500379 257.207446,4.62660436 257.657195,4.62660436 L260.94582,4.62660436 C261.457742,4.62660435 261.872737,5.04233994 261.872737,5.55517578 C261.872737,5.61234938 261.867465,5.6694008 261.856991,5.72560317 Z" id="TRUCK" fill="#9B9B9B"></path>
                <path d="M20.1952831,34.4791508 L25.2196309,6.37644852 C25.4174758,5.26984185 26.3784132,4.46428571 27.5006249,4.46428571 L40.0961592,4.46428571 C45.9799047,4.46428571 48.8991477,7.43770927 48.8991477,11.6090262 C48.8991477,16.211077 45.2557514,19.0493862 42.2459893,19.3214286 C45.1426025,19.5027902 47.8355476,22.3773716 47.8355476,26.2313058 C47.8355476,32.7149832 41.951802,35.5714286 34.8913074,35.5714286 L21.1076807,35.5714286 C20.595759,35.5714286 20.1807645,35.155693 20.1807645,34.6428571 C20.1807645,34.5879658 20.1856231,34.5331825 20.1952831,34.4791508 Z M33.1858055,11.0970578 L32.3717136,15.729357 C32.2829517,16.2344251 32.6197046,16.7159479 33.1238724,16.8048684 C33.1769351,16.8142271 33.2307113,16.8189332 33.2845901,16.8189332 L35.7156884,16.8189332 C38.156296,16.8189332 39.8670023,15.5164747 39.8670023,13.0258085 C39.8670023,10.9464451 38.2703431,10.3294911 36.514018,10.3294911 L34.098682,10.3294911 C33.6487636,10.3294911 33.2638167,10.6531629 33.1858055,11.0970578 Z M31.0864172,23.1377437 L30.1154656,28.6154984 C30.0259637,29.1204355 30.3620108,29.6024529 30.8660477,29.6921146 C30.919544,29.701631 30.973772,29.7064168 31.0281052,29.7064168 L33.8453162,29.7064168 C36.7193027,29.7064168 38.7949597,28.2211571 38.7949597,25.5019895 C38.7949597,23.1484242 37.061444,22.3715192 34.7576929,22.3715192 L31.9990568,22.3715192 C31.549652,22.3715192 31.1649889,22.6944706 31.0864172,23.1377437 Z M48.2735415,34.2441561 L61.7777549,5.78896156 C62.1617496,4.97983314 62.9762457,4.46428571 63.870566,4.46428571 L72.9478057,4.46428571 C73.4131552,4.46428571 73.806372,4.80993525 73.8668584,5.272161 L77.6944815,34.522161 C77.7610211,35.0306462 77.4034887,35.4968924 76.8959098,35.5635511 C76.855963,35.5687971 76.8157172,35.5714286 76.7754288,35.5714286 L69.0368889,35.5714286 C68.5485547,35.5714286 68.1439775,35.1918808 68.1119665,34.703727 L67.8184316,30.2274951 C67.7864201,29.7393413 67.3818429,29.3597936 66.8935087,29.3597936 L59.7933971,29.3597936 C59.4592937,29.3597936 59.1510431,29.5399163 58.9865724,29.8312525 L56.0121743,35.0999696 C55.8477035,35.3913059 55.539453,35.5714286 55.2053495,35.5714286 L49.1106659,35.5714286 C48.5987442,35.5714286 48.1837497,35.155693 48.1837497,34.6428571 C48.1837497,34.5049254 48.2144232,34.3687261 48.2735415,34.2441561 Z M63.0639968,22.1062361 L66.9500066,22.1062361 C67.2059675,22.1062361 67.4134647,21.8983682 67.4134647,21.6419503 C67.4134647,21.6318584 67.4131361,21.6217691 67.4124798,21.6116987 L66.928624,14.1883047 C66.9119465,13.9324317 66.6913701,13.7385497 66.4359532,13.7552573 C66.266095,13.7663682 66.1159863,13.8698644 66.0449629,14.0248353 L62.642809,21.4482292 C62.5360104,21.6812602 62.6380054,21.9569011 62.870621,22.0638903 C62.9312835,22.0917914 62.9972463,22.1062361 63.0639968,22.1062361 Z M89.043583,35.5714286 L81.9564289,35.5714286 C81.444507,35.5714286 81.0295127,35.155693 81.0295127,34.6428571 C81.0295127,34.589228 81.03415,34.5356997 81.0433738,34.4828725 L85.9489884,6.38575264 C86.1429489,5.27483536 87.1058545,4.46428571 88.2316267,4.46428571 L99.5681541,4.46428571 C106.040274,4.46428571 110.158896,7.86844308 110.158896,13.8760463 C110.158896,14.3294503 110.136266,14.8055246 110.091007,15.1229073 C109.72893,19.4982562 107.307543,22.8534459 103.25681,24.4403599 L106.717081,34.3358647 C106.886325,34.819863 106.631867,35.3496663 106.148731,35.5192135 C106.050245,35.5537754 105.94664,35.5714286 105.842286,35.5714286 L98.5141331,35.5714286 C98.1162464,35.5714286 97.7627456,35.3170405 97.635721,34.9393015 L94.8474286,26.6476126 C94.720404,26.2698736 94.3669032,26.0154855 93.9690165,26.0154855 L92.3509693,26.0154855 C91.9040942,26.0154855 91.5208375,26.3348983 91.4395261,26.7750981 L89.9550258,34.8118159 C89.8737144,35.2520157 89.4904577,35.5714286 89.043583,35.5714286 Z M97.3504343,11.2689732 L94.8867683,11.2689732 C94.4393311,11.2689732 94.0557611,11.5891709 93.9750554,12.0300552 L92.8667065,18.0848124 C92.7743694,18.5892368 93.1077033,19.0731412 93.6112287,19.1656431 C93.6663844,19.1757757 93.7223442,19.1808733 93.7784194,19.1808733 L96.1736854,19.1808733 C98.8440008,19.1808733 100.767533,17.7979911 101.10698,15.3949498 C101.129609,15.190918 101.174869,14.8735352 101.174869,14.5788225 C101.174869,11.9717495 99.0476688,11.2689732 97.3504343,11.2689732 Z M121.622585,23.0357143 L120.863232,27.0566073 C120.831006,27.2272482 120.863585,27.403794 120.954579,27.5516151 C121.156105,27.8789982 121.584398,27.9807336 121.911198,27.7788473 L133.636452,20.5353618 C133.70384,20.4937317 133.763634,20.4408759 133.813256,20.3790747 C134.053894,20.0793683 134.006443,19.6409838 133.707271,19.3999156 L124.717909,12.1564301 C124.628912,12.0847175 124.523648,12.0360761 124.411424,12.0148067 C124.034175,11.9433078 123.670496,12.1917135 123.599124,12.5696364 L122.850123,16.5357143 L113.139926,16.5357143 L113.157796,16.437779 C114.538213,8.61655971 119.833584,4.46428571 127.84453,4.46428571 C135.561288,4.46428571 140.629096,8.73144931 140.947179,16.1657366 C141.122786,20.2700631 140.385168,22.8125262 139.65068,25.1238787 C137.507682,31.867658 132.902917,35.6285575 125.219474,35.6285575 C117.570605,35.6285575 112.184715,31.5814732 112.184715,24.1229771 C112.184715,23.7753681 112.187024,23.4092522 112.196069,23.0357143 L121.622585,23.0357143 Z" id="BARO" fill="#333333"></path>
            </g>
        </g>
    </g>
</svg>